<svg xmlns="http://www.w3.org/2000/svg" xmlns:xlink="http://www.w3.org/1999/xlink" width="352" height="319" viewBox="0 0 352 319">
  <defs>
    <clipPath id="clip-path">
      <rect id="Rectangle_57" data-name="Rectangle 57" width="87" height="81" transform="translate(0 0)" fill="#fff"/>
    </clipPath>
    <clipPath id="clip-path-2">
      <rect id="Rectangle_60" data-name="Rectangle 60" width="87" height="81" transform="translate(0 0.425)" fill="#fff"/>
    </clipPath>
    <clipPath id="clip-path-3">
      <rect id="Rectangle_58" data-name="Rectangle 58" width="89" height="81" transform="translate(0 0)" fill="#fff"/>
    </clipPath>
    <linearGradient id="linear-gradient" x1="-10.229" y1="13.597" x2="-10.229" y2="14.597" gradientUnits="objectBoundingBox">
      <stop offset="0.387" stop-color="#d1d3d4" stop-opacity="0"/>
      <stop offset="1" stop-color="#d1d3d4"/>
    </linearGradient>
    <linearGradient id="linear-gradient-2" x1="-9.516" y1="14.078" x2="-9.516" y2="15.078" xlink:href="#linear-gradient"/>
    <linearGradient id="linear-gradient-3" x1="-5.39" y1="6.703" x2="-4.39" y2="6.703" gradientUnits="objectBoundingBox">
      <stop offset="0" stop-color="#e8e7e5"/>
      <stop offset="1" stop-color="#fff"/>
    </linearGradient>
    <linearGradient id="linear-gradient-4" x1="-4.964" y1="30.297" x2="-3.964" y2="30.297" xlink:href="#linear-gradient-3"/>
    <clipPath id="clip-path-4">
      <rect id="Rectangle_61" data-name="Rectangle 61" width="89" height="81" transform="translate(0 0.425)" fill="#fff"/>
    </clipPath>
    <linearGradient id="linear-gradient-5" x1="-4.183" y1="0.143" x2="-3.174" y2="0.794" gradientUnits="objectBoundingBox">
      <stop offset="0" stop-color="#909ca9"/>
      <stop offset="1" stop-color="#ededee"/>
    </linearGradient>
    <linearGradient id="linear-gradient-6" x1="-8.133" y1="37.388" x2="-6.64" y2="37.388" gradientUnits="objectBoundingBox">
      <stop offset="0" stop-color="#939fab"/>
      <stop offset="1" stop-color="#dcdee1"/>
    </linearGradient>
    <radialGradient id="radial-gradient" cx="0.443" cy="0.439" r="0.128" gradientTransform="matrix(-0.691, -0.149, -0.208, 1.978, -19.227, -9.973)" gradientUnits="objectBoundingBox">
      <stop offset="0" stop-color="#ee352c"/>
      <stop offset="1" stop-color="#a91d22"/>
    </radialGradient>
  </defs>
  <g id="Groupe_149" data-name="Groupe 149" transform="translate(-676 -1451.632)">
    <rect id="Rectangle_56" data-name="Rectangle 56" width="352" height="319" transform="translate(676 1451.632)" fill="#fff"/>
    <g id="Groupe_de_masques_8" data-name="Groupe de masques 8" transform="translate(697 1473.632)" clip-path="url(#clip-path)">
      <g id="html-5" transform="translate(14.677 0.042)">
        <path id="Tracé_1461" data-name="Tracé 1461" d="M57.443,20.635,52.222,79.128l-23.47,6.507-23.406-6.5L.13,20.635Z" transform="translate(-0.13 -4.737)" fill="#e44d26"/>
        <path id="Tracé_1462" data-name="Tracé 1462" d="M37.324,82.086l18.965-5.258,4.462-49.985H37.324Z" transform="translate(-8.667 -6.162)" fill="#f16529"/>
        <path id="Tracé_1463" data-name="Tracé 1463" d="M21.814,43.331h10.15V36.156H13.972l.172,1.925,1.764,19.772H31.964V50.679H22.47Zm1.617,18.11h-7.2l1.005,11.266,14.7,4.08.033-.009V69.313l-.031.008-7.991-2.158-.511-5.722Z" transform="translate(-3.307 -8.299)" fill="#ebebeb"/>
        <path id="Tracé_1464" data-name="Tracé 1464" d="M7.051,0H10.7V3.6h3.336V0h3.646V10.909H14.033V7.256H10.7v3.653H7.051V0ZM22.474,3.618h-3.21V0H29.332V3.618H26.121v7.291H22.474V3.618h0ZM30.93,0h3.8l2.339,3.833L39.407,0h3.8V10.909H39.579V5.5L37.071,9.381h-.063L34.5,5.5v5.407H30.93Zm14.1,0h3.647V7.3H53.8v3.606H45.025V0Z" transform="translate(-1.718)"/>
        <path id="Tracé_1465" data-name="Tracé 1465" d="M37.292,57.854h8.835l-.833,9.305-8,2.16v7.465L52,72.707l.108-1.212L53.8,52.605l.175-1.927H37.292v7.175Zm0-14.54v.018H54.623l.144-1.613.327-3.637.171-1.925H37.292v7.158Z" transform="translate(-8.66 -8.299)" fill="#fff"/>
      </g>
    </g>
    <g id="Groupe_de_masques_11" data-name="Groupe de masques 11" transform="translate(697 1661.208)" clip-path="url(#clip-path-2)">
      <g id="php-1" transform="translate(-0.968 16.983)">
        <ellipse id="Ellipse_1" data-name="Ellipse 1" cx="44.301" cy="23.061" rx="44.301" ry="23.061" transform="translate(0 0)" fill="#8993be"/>
        <path id="Tracé_1482" data-name="Tracé 1482" d="M16.147,38.433,21,13.855H32.229c4.855.3,7.282,2.731,7.282,6.979,0,7.282-5.765,11.53-10.924,11.227H23.126l-1.214,6.372ZM24.34,27.51l1.517-9.1H29.8c2.124,0,3.641.91,3.641,2.731-.3,5.159-2.731,6.069-5.462,6.372H24.34Zm14.044,4.551L43.238,7.483H49L47.79,13.855h5.462c4.855.3,6.676,2.731,6.069,5.765L57.2,32.061H51.128l2.124-11.227c.3-1.517.3-2.428-1.821-2.428H46.879L44.149,32.061Zm18.424,6.372,4.855-24.578H72.889c4.855.3,7.283,2.731,7.283,6.979,0,7.282-5.765,11.53-10.924,11.227H63.786l-1.214,6.372ZM65,27.51l1.517-9.1h3.945c2.124,0,3.641.91,3.641,2.731-.3,5.159-2.731,6.069-5.462,6.372H65Z" transform="translate(-3.706 -1.718)" fill="#232531" fill-rule="evenodd"/>
      </g>
    </g>
    <g id="Groupe_de_masques_9" data-name="Groupe de masques 9" transform="translate(808 1473.632)" clip-path="url(#clip-path-3)">
      <g id="css3" transform="translate(3.6 0.042)">
        <path id="Tracé_1466" data-name="Tracé 1466" d="M0,0H80.9V80.9H0Z" fill="none"/>
        <path id="Tracé_1467" data-name="Tracé 1467" d="M65.457,75.894,45,81.4l-20.46-5.509L19.817,24.746H70.179Z" transform="translate(-4.549 -5.68)" fill="#2062af"/>
        <path id="Tracé_1468" data-name="Tracé 1468" d="M52.5,30.123V78.244l.046.013L69.1,73.8l3.822-43.675H52.5Z" transform="translate(-12.051 -6.914)" fill="#3c9cd7"/>
        <path id="Tracé_1469" data-name="Tracé 1469" d="M36.436,13.092V10.048h4.442V6.717H33.1v9.415h7.773v-3.04Zm12.432-3.044h3.105V6.717H44.2v3.331c1.04,1.04,1.582,1.538,3.087,3.042l-3.087,0v3.039h7.774v-3.04Zm11.018,0h3.105V6.717H55.217v3.331c1.04,1.04,1.583,1.538,3.087,3.042l-3.087,0v3.039h7.774v-3.04l-3.105-3.044Z" transform="translate(-7.599 -1.542)"/>
        <path id="Tracé_1470" data-name="Tracé 1470" d="M48.113,44.776l-14.644,6.1.486,6.038,14.158-6.053,15.06-6.439.624-6.177L48.113,44.776Z" transform="translate(-7.683 -8.779)" fill="#fff"/>
        <path id="Tracé_1471" data-name="Tracé 1471" d="M33.469,52.821l.486,6.038,14.158-6.053V46.722Z" transform="translate(-7.683 -10.725)" fill="url(#linear-gradient)"/>
        <path id="Tracé_1472" data-name="Tracé 1472" d="M68.161,38.244,52.476,44.776V50.86l15.06-6.439Z" transform="translate(-12.045 -8.779)" fill="url(#linear-gradient-2)"/>
        <path id="Tracé_1473" data-name="Tracé 1473" d="M33.5,54.638l.486,6.038,21.723.069L55.222,68.8l-7.148,2.012L41.2,69.073l-.416-5H34.4l.833,9.647L48.143,77.54l12.839-3.748,1.666-19.155Z" transform="translate(-7.689 -12.542)" fill="url(#linear-gradient-3)"/>
        <path id="Tracé_1474" data-name="Tracé 1474" d="M48.113,54.638H33.47l.486,6.038,14.158.045V54.638Zm0,16.151-.069.019-6.871-1.735-.416-5H34.372l.833,9.647,12.908,3.817Z" transform="translate(-7.683 -12.542)" opacity="0.05"/>
        <path id="Tracé_1475" data-name="Tracé 1475" d="M31.758,38.244H63.405l-.624,6.177H32.521l-.763-6.177Z" transform="translate(-7.29 -8.779)" fill="url(#linear-gradient-4)"/>
        <path id="Tracé_1476" data-name="Tracé 1476" d="M47.72,38.244H31.758l.763,6.177h15.2V38.244Z" transform="translate(-7.29 -8.779)" opacity="0.05"/>
      </g>
    </g>
    <g id="Groupe_de_masques_12" data-name="Groupe de masques 12" transform="translate(808 1661.208)" clip-path="url(#clip-path-4)">
      <g id="c--4" transform="translate(8.084 -0.405)">
        <path id="Tracé_1483" data-name="Tracé 1483" d="M97.184,43.2a7.015,7.015,0,0,0-.886-3.59A6.774,6.774,0,0,0,93.7,37.081Q79.345,28.8,64.963,20.528a7.074,7.074,0,0,0-7.645.066C53.507,22.833,34.4,33.78,28.732,37.081a6.631,6.631,0,0,0-3.479,6.138V76.548a7.266,7.266,0,0,0,.842,3.523,6.948,6.948,0,0,0,2.637,2.615c5.7,3.3,24.775,14.227,28.586,16.487a7.032,7.032,0,0,0,7.645.066Q79.323,90.93,93.7,82.686a6.65,6.65,0,0,0,2.637-2.615,7.266,7.266,0,0,0,.842-3.523Z" transform="translate(-25.253 -19.439)" fill="#9a4993"/>
        <path id="Tracé_1484" data-name="Tracé 1484" d="M61.545,71.761l-35.256,20.3a6.949,6.949,0,0,0,2.637,2.615c5.7,3.3,24.775,14.227,28.586,16.487a7.03,7.03,0,0,0,7.645.066q14.36-8.31,28.741-16.553a6.651,6.651,0,0,0,2.637-2.615Z" transform="translate(-25.491 -31.449)" fill="#6a1577"/>
        <path id="Tracé_1485" data-name="Tracé 1485" d="M58.5,77.766A11.887,11.887,0,0,0,79.2,77.7l-10.26-5.939Z" transform="translate(-32.885 -31.449)" fill="#6a1577"/>
        <path id="Tracé_1486" data-name="Tracé 1486" d="M107.925,49.206a7.016,7.016,0,0,0-.886-3.59L72.049,65.76l35.035,20.3a7.266,7.266,0,0,0,.842-3.523Z" transform="translate(-35.995 -25.448)" fill="#813084"/>
        <g id="Groupe_147" data-name="Groupe 147" transform="translate(12.033 16.534)">
          <path id="Tracé_1487" data-name="Tracé 1487" d="M75.152,70.616a11.911,11.911,0,1,1-.089-11.789l10.393-5.983a23.867,23.867,0,1,0,.089,23.778ZM88.293,59.137H85.922V70.594h2.371Zm5.252,0H91.174V70.594h2.371Z" transform="translate(-40.871 -40.899)" fill="#fff"/>
          <path id="Tracé_1488" data-name="Tracé 1488" d="M108.327,67.073H96.87v2.371h11.457Zm0,5.23H96.87v2.371h11.457Z" transform="translate(-53.725 -46.907)" fill="#fff"/>
        </g>
      </g>
    </g>
    <g id="Groupe_de_masques_10" data-name="Groupe de masques 10" transform="translate(919 1473.632)" clip-path="url(#clip-path-3)">
      <g id="javascript-4" transform="translate(16.031 0.042)">
        <path id="Tracé_1477" data-name="Tracé 1477" d="M57.47,20.576H0L5.388,79l23.344,6.621L52.076,79Z" transform="translate(0 -4.723)" fill="#e6a329"/>
        <path id="Tracé_1478" data-name="Tracé 1478" d="M37.292,26.754V82.088L56.206,76.73l4.6-49.976Z" transform="translate(-8.56 -6.141)" fill="#f1bf22"/>
        <path id="Tracé_1479" data-name="Tracé 1479" d="M47.554,36.057H18.473L16.447,57.932l.042-.136H41.2l-.806,9.255-7.883,2.268-8-2.3-.479-5.6H16.768L17.8,72.607l14.7,4.174,14.711-4.174,2.026-21.969H23.023l.337-7.32H41.551l.272,4.194h7.326Z" transform="translate(-3.775 -8.277)" fill="#fff"/>
        <path id="Tracé_1480" data-name="Tracé 1480" d="M32.514,36.057H18.473L16.447,57.932l.042-.136H32.514V50.661H24.045l.337-7.32h8.132ZM24.045,61.414H16.768L17.8,72.6l14.7,4.168V69.326l-8-2.31Z" transform="translate(-3.775 -8.277)" fill="#ebebeb"/>
        <path id="Tracé_1481" data-name="Tracé 1481" d="M28.514,7.236H23.4v3.673h8.776V0h-3.66ZM44.81.058H35.892V3.877C37.083,5.067,37.7,5.64,39.458,7.365H35.892v3.482H44.81V7.371L41.244,3.883H44.81Z" transform="translate(-5.371)" fill="#231f20"/>
      </g>
    </g>
    <g id="Groupe_de_masques_13" data-name="Groupe de masques 13" transform="translate(919 1661.208)" clip-path="url(#clip-path-4)">
      <g id="microsoft-sql-server" transform="translate(0.465 4.227)">
        <g id="Groupe_148" data-name="Groupe 148" transform="translate(31.886 0)">
          <path id="Tracé_1489" data-name="Tracé 1489" d="M54.053,36.042l-9.785,3.2-8.513,3.757-2.382.629c-.607.577-1.242,1.161-1.93,1.753-.754.651-1.457,1.243-2,1.671a14.9,14.9,0,0,0-1.938,1.923A8.719,8.719,0,0,0,26.074,51.4a4.073,4.073,0,0,0,.577,3.661A12.969,12.969,0,0,0,32,59.073a33.977,33.977,0,0,0,4.7,1.575,62.281,62.281,0,0,0,10.029,1.428,11.5,11.5,0,0,0,1.294,0,17.626,17.626,0,0,0,.954-1.812,45.809,45.809,0,0,0,3.469-9.178,43.5,43.5,0,0,0,.887-6.36c.052-.717.074-3.121.03-3.935A27.634,27.634,0,0,0,53,37.321a.8.8,0,0,1-.022-.3,12.776,12.776,0,0,1,1.324-.4l-.244-.577h0Zm-2.234,1.309a23.954,23.954,0,0,1,.384,3.705,1.982,1.982,0,0,1-.007.5c-.059,0-1.25-.7-2.1-1.235-.74-.466-2.145-1.4-2.367-1.575-.074-.052-.067-.059.54-.266C49.3,38.135,51.738,37.351,51.819,37.351Zm-4.985,1.642a2.455,2.455,0,0,1,.643.348,45.851,45.851,0,0,0,4.482,2.493c.274.118.3.074-.325.5a32.237,32.237,0,0,1-5.081,2.729c-.362.163-.666.288-.673.288a1.918,1.918,0,0,1,.089-.407,21.807,21.807,0,0,0,.792-5.2c.007-.74.007-.74.074-.762-.015.007-.008.007,0,.007Zm-1.028.392a15.945,15.945,0,0,1-.044,2.152,18.823,18.823,0,0,1-.68,3.217,4.936,4.936,0,0,1-.17.518,13.013,13.013,0,0,1-1.376-1.339,10.008,10.008,0,0,1-1.361-1.982,6.232,6.232,0,0,1-.414-1.006c.118-.081,4.016-1.59,4.046-1.561Zm-4.837,1.9a.027.027,0,0,1,.022.007,1.383,1.383,0,0,1,.111.266,10,10,0,0,0,1.228,2.2A12.517,12.517,0,0,0,44.039,45.6c.178.148.34.288.362.311.044.044.059.037-1.146.5-1.4.532-2.921,1.065-4.667,1.627q-.625.2-1.25.407c-.067.022-.044-.015.148-.318a41.59,41.59,0,0,0,2.921-5.887c.126-.325.251-.651.274-.725a.267.267,0,0,1,.163-.192.717.717,0,0,1,.126-.03ZM39.49,41.9a16.54,16.54,0,0,1-.725,1.531c-.717,1.4-1.5,2.774-2.552,4.445-.177.288-.348.555-.37.584-.037.052-.052.037-.17-.192a6.782,6.782,0,0,1-.57-1.716,6.906,6.906,0,0,1,.037-2.2c.1-.459.089-.451.311-.562C36.4,43.3,39.461,41.87,39.49,41.9Zm12.758.518v.311a40.234,40.234,0,0,1-.436,5.562c-.044.288-.081.525-.089.532s-.214-.059-.466-.133a19.086,19.086,0,0,1-3.4-1.457,15.064,15.064,0,0,1-1.731-1.065c.007-.007.318-.17.68-.362A43.575,43.575,0,0,0,50.85,43.43c.451-.3,1.131-.791,1.28-.925l.118-.089ZM33.906,44.606c.03,0,.022.059-.022.325-.03.192-.067.547-.081.791a5.472,5.472,0,0,0,.651,2.973,6.147,6.147,0,0,1,.259.562c-.052.044-4.948,1.479-6.486,1.9l-.888.244c-.052.015-.059.008-.037-.118a7.771,7.771,0,0,1,2.152-3.705,9.566,9.566,0,0,1,2.433-1.864c.754-.429,1.916-1.072,2-1.1C33.892,44.606,33.9,44.606,33.906,44.606ZM45.444,46.67a2.987,2.987,0,0,1,.4.215,22.282,22.282,0,0,0,5.665,2.2l.17.037-.237.133c-.984.547-4.216,1.893-7.522,3.129-.481.177-.954.355-1.043.392a.534.534,0,0,1-.17.052c0-.008.133-.266.3-.584a36.494,36.494,0,0,0,2.33-5.3c.059-.141.1-.266.1-.274Zm-1.176.385a2.129,2.129,0,0,1-.126.34,46.838,46.838,0,0,1-2.566,5.17c-.274.488-.5.88-.51.88s-.229-.133-.5-.3A15.21,15.21,0,0,1,36.7,49.857l-.133-.163.673-.185a48.292,48.292,0,0,0,6.494-2.241C44.024,47.151,44.261,47.054,44.268,47.054Zm7.307,2.552h0c.007.17-.37,1.694-.681,2.8-.259.924-.481,1.649-.887,2.929-.177.562-.333,1.028-.34,1.028a.489.489,0,0,1-.1-.022,30.912,30.912,0,0,1-6.013-1.694c-.518-.207-1.257-.54-1.3-.577a8.63,8.63,0,0,1,.991-.466c3.365-1.472,6.856-3.143,8.054-3.861A.964.964,0,0,1,51.575,49.606Zm-16.87.577c.015.015-.924,1.368-2.241,3.21-.459.643-.991,1.4-1.191,1.679s-.5.725-.673.991l-.311.481-.333-.281a12.32,12.32,0,0,1-1.376-1.405,6.07,6.07,0,0,1-1.235-2.389c-.081-.355-.081-.533-.008-.555.111-.03,2.086-.5,3.935-.925,1.028-.237,2.219-.518,2.648-.621S34.7,50.183,34.705,50.183Zm.947.362.237.266a13.887,13.887,0,0,0,3.469,2.84,1.943,1.943,0,0,1,.4.259c-.052.037-4.571,1.642-6.664,2.367-1.176.414-2.145.747-2.152.747a1.272,1.272,0,0,1-.148-.1l-.133-.1.214-.311c.7-1.006,1.568-2.108,3.469-4.4l1.309-1.575Zm5.9,4.223c.007-.007.333.111.732.259a23.671,23.671,0,0,0,2.744.85,30.374,30.374,0,0,0,4.149.717c.163.015.251.03.222.052-.052.03-1.139.392-1.938.643-1.272.4-5.155,1.546-8.32,2.455-.584.17-1.087.311-1.117.318a.586.586,0,0,1-.318-.081,5.356,5.356,0,0,1,.392-.5,43.9,43.9,0,0,0,3-4.038c.244-.37.451-.673.451-.681Zm-1.3.037c.007.007-.518.85-1.435,2.3-.392.614-.828,1.309-.984,1.553s-.37.607-.5.814l-.215.377-.111-.03c-.266-.074-2.137-.732-2.633-.932a18.313,18.313,0,0,1-1.723-.791,7.2,7.2,0,0,1-1.272-.806c.015-.007,1.028-.281,2.248-.614,3.239-.88,5.037-1.39,6.213-1.76a2.96,2.96,0,0,1,.407-.111Zm9.208,2.159h.007c.03.074-1.168,3.4-1.605,4.452-.1.237-.133.3-.185.288-.126-.007-1.864-.251-2.921-.407-1.841-.281-4.933-.821-5.71-1l-.177-.037,1.1-.252c2.367-.532,3.506-.821,4.659-1.176a32.933,32.933,0,0,0,4.356-1.679,3.569,3.569,0,0,1,.473-.192Z" transform="translate(-25.869 -13.232)" fill="url(#linear-gradient-5)"/>
          <path id="Tracé_1490" data-name="Tracé 1490" d="M46.175,6.437a47.016,47.016,0,0,0-4.482,1.612,27.987,27.987,0,0,0-5.155,2.589,3.909,3.909,0,0,0-1,1,.691.691,0,0,0-.044.251l.991.939,2.359.754,5.614,1.006,6.42,1.1.067-.555c-.022,0-.037-.007-.059-.007l-.843-.133-.17-.3c-.873-1.538-1.834-3.447-2.4-4.733A24.464,24.464,0,0,1,46.4,6.977c-.126-.5-.14-.532-.222-.54h0Zm-.118.377h.008c.007.007.037.215.067.458a15.45,15.45,0,0,0,.717,3.114c.274.814.274.769-.044.673-.754-.207-4.134-.791-6.582-1.132-.392-.052-.725-.1-.725-.111-.03-.03,1.768-.969,2.559-1.339,1.013-.466,3.794-1.627,4-1.664Zm-7.13,3.313.289.1A44.085,44.085,0,0,0,46.9,11.688c.244.022.451.044.458.044a3.419,3.419,0,0,1-.466.244c-1.05.525-2.2,1.169-3,1.664a3.066,3.066,0,0,1-.481.266c-.03,0-.185-.03-.348-.052l-.3-.044-.74-.725c-1.3-1.265-2.322-2.241-2.714-2.611Zm-.3.229,1.043,1.3c.569.717,1.146,1.42,1.272,1.575a2.425,2.425,0,0,1,.222.289c-.03.022-1.509-.266-2.293-.444-.806-.185-1.139-.274-1.634-.429l-.407-.133v-.1c.007-.5.636-1.235,1.7-1.989l.1-.067Zm8.86,1.775c.03,0,.067.067.155.266.251.555,1.036,2.049,1.228,2.337.059.1.163.1-.88-.067-2.507-.407-3.313-.54-3.313-.555a.767.767,0,0,1,.17-.111,14.438,14.438,0,0,0,2.256-1.561c.17-.141.325-.274.355-.3.007-.015.022-.022.03-.015Z" transform="translate(-28.078 -6.436)" fill="url(#linear-gradient-6)"/>
          <path id="Tracé_1491" data-name="Tracé 1491" d="M34.458,13.051a.737.737,0,0,0-.007.644,2.922,2.922,0,0,0,.7.821s3.291,3.21,3.691,3.668a10.283,10.283,0,0,1,2.685,7.026,11.376,11.376,0,0,1-1.169,5.318c-1.538,3.358-4.785,7.063-9.792,11.175l.732-.244A23.517,23.517,0,0,1,33.918,39.9a93.589,93.589,0,0,1,12.211-5.466,152.286,152.286,0,0,1,24.784-6.642l.673-.1-.1-.163A22.8,22.8,0,0,0,70,25.432a17.771,17.771,0,0,0-5.251-4.371,38.943,38.943,0,0,0-11.4-3.824c-.895-.178-2.862-.518-4.46-.762-3.387-.525-5.577-.887-7.988-1.3-.865-.148-2.16-.37-3.018-.555a19.165,19.165,0,0,1-1.96-.525c-.532-.207-1.3-.414-1.464-1.043ZM36.367,14.9a2.062,2.062,0,0,1,.281.089c.281.1.643.207,1.072.325q.487.134.976.259c.444.111.813.214.821.214.052.052.8,2.441,1.05,3.358.1.348.17.643.163.643a1.5,1.5,0,0,1-.185-.288,15.4,15.4,0,0,0-3.816-4.312,3.153,3.153,0,0,1-.362-.288Zm3.639,1.006a2.905,2.905,0,0,1,.4.067c1.257.281,3.513.71,4.955.954a1.811,1.811,0,0,1,.436.1.747.747,0,0,1-.2.126c-.244.126-1.228.71-1.553.932a14.169,14.169,0,0,0-2.093,1.671c-.214.215-.4.392-.4.392s-.044-.126-.081-.281a23.967,23.967,0,0,0-1.324-3.624A3.175,3.175,0,0,1,40,15.9C40,15.913,40,15.906,40.005,15.906Zm6.4,1.22a2.845,2.845,0,0,1,.266.821,12.108,12.108,0,0,1,.355,3.387,6.376,6.376,0,0,1-.044.636l-.022.074-.385-.126c-.791-.251-2.078-.629-3.18-.939-.629-.17-1.139-.325-1.139-.34A17.485,17.485,0,0,1,43.57,19.33a34.326,34.326,0,0,1,2.84-2.2Zm.51.074c.022-.022,3.062.5,4.445.769,1.028.2,2.522.51,2.611.547.044.015-.111.1-.607.325a32.1,32.1,0,0,0-4.844,2.633c-.377.251-.7.459-.7.459a4.034,4.034,0,0,1-.015-.473,10.33,10.33,0,0,0-.8-4.023A1.12,1.12,0,0,1,46.921,17.2Zm7.862,1.553a5.563,5.563,0,0,1-.163.976A18.541,18.541,0,0,1,52.756,24a4.873,4.873,0,0,1-.311.5A3.156,3.156,0,0,1,52,24.271a24.083,24.083,0,0,0-2.9-1.42c-.3-.126-.555-.229-.562-.244-.052-.044,2.33-1.62,3.587-2.374C53.126,19.626,54.753,18.724,54.782,18.753Zm.562.089c.067,0,1.413.37,2.115.577A43.635,43.635,0,0,1,62.5,21.261l.54.244-.377.089a55.133,55.133,0,0,0-8.528,2.64c-.214.089-.407.163-.421.163a1.9,1.9,0,0,1,.155-.377,14.977,14.977,0,0,0,1.427-4.926c.008-.141.03-.251.052-.251Zm-13.4,3.077c.022-.022,1.05.222,1.6.377.843.237,2.633.836,2.633.88,0,.007-.2.177-.436.385-.969.806-1.9,1.657-3.018,2.736-.333.318-.614.577-.629.577s-.022-.044-.015-.1a16.674,16.674,0,0,0-.1-4.46C41.958,22.1,41.936,21.926,41.943,21.919Zm21.6.022a14.193,14.193,0,0,1-.784,1.22c-.444.636-1.095,1.479-2.566,3.328-.776.976-1.649,2.078-1.938,2.448s-.54.68-.547.68a2.552,2.552,0,0,1-.207-.3,15.284,15.284,0,0,0-3-3.306c-.222-.185-.466-.385-.547-.444a.825.825,0,0,1-.148-.126c0-.022,1.257-.562,2.211-.947,1.672-.68,3.949-1.494,5.658-2.019C62.578,22.2,63.532,21.926,63.547,21.941Zm.569.148a1.7,1.7,0,0,1,.422.207,25.086,25.086,0,0,1,4.948,3.713c.392.385,1.361,1.39,1.346,1.4s-.34.03-.74.059a72.9,72.9,0,0,0-10.931,1.819c-.259.059-.488.111-.5.111s.274-.288.636-.636a18.922,18.922,0,0,0,4.489-5.976c.17-.362.318-.673.333-.7ZM47.645,23.775c.1.022,1.065.473,1.79.836.666.333,1.664.865,1.716.91.007.007-.348.192-.784.407-1.391.7-2.581,1.353-3.824,2.108-.355.215-.651.392-.658.392-.03,0-.022-.03.177-.392a15.443,15.443,0,0,0,1.5-4.075c.029-.111.059-.185.081-.185Zm-.962.177A14.115,14.115,0,0,1,46.3,25.38a18.211,18.211,0,0,1-1.309,3c-.118.207-.3.51-.392.68l-.185.3L44,28.96a5.433,5.433,0,0,0-1.376-1.013,1.986,1.986,0,0,1-.355-.207c0-.059,1.265-1.206,2.234-2.034.7-.6,2.16-1.775,2.182-1.753Zm5.88,2.419.362.237a28.12,28.12,0,0,1,2.552,1.886c.421.348,1.235,1.08,1.4,1.257l.089.1-.6.17c-3.387.939-6.006,1.775-9.06,2.9-.34.126-.629.229-.651.229-.044,0-.081.037.681-.666a32.472,32.472,0,0,0,4.97-5.71l.259-.4Zm-1.546.385c.015.015-1,1.442-1.605,2.248-.725.962-2.012,2.574-2.9,3.624-.37.436-.688.8-.7.806s-.03-.1-.03-.274a6.2,6.2,0,0,0-.629-2.663c-.17-.34-.2-.422-.163-.459.14-.126,2.293-1.354,3.653-2.086.917-.488,2.352-1.213,2.374-1.2Zm-9.349,2.293a3.268,3.268,0,0,1,.385.192,8.123,8.123,0,0,1,1.272.858,2.205,2.205,0,0,1-.429.355c-.7.5-1.768,1.309-2.389,1.8-.651.518-.673.532-.6.422a12.691,12.691,0,0,0,1.612-3.254,1.254,1.254,0,0,1,.148-.377ZM44.162,31c.037-.007.081.059.281.355a5.336,5.336,0,0,1,.828,2.152l.015.148-1.013.392c-1.812.7-3.484,1.4-4.615,1.915-.318.148-.873.414-1.235.592s-.658.325-.658.318.229-.177.51-.385a29.822,29.822,0,0,0,5.562-5.125c.155-.185.3-.355.311-.362h.015Zm-1.146.281a15.634,15.634,0,0,1-1.39,1.568,24.531,24.531,0,0,1-4.593,3.706l-.444.281c-.052.03.015-.044.784-.88.488-.525.858-.969,1.28-1.516a2.5,2.5,0,0,1,.74-.7C40.479,32.954,42.986,31.252,43.016,31.282Z" transform="translate(-26.946 -7.955)" fill="url(#radial-gradient)"/>
        </g>
        <path id="Tracé_1492" data-name="Tracé 1492" d="M15.929,68.047c-.136,0-.273.013-.408.013a6.1,6.1,0,0,0-5.7,3.728,9.828,9.828,0,0,0,.01,7.1c.975,2.106,2.55,3.217,5.18,3.637.556.091.929.4,2.007,1.655l1.326,1.553h2.4l-1.6-1.612a17.073,17.073,0,0,1-1.6-1.721c0-.068.338-.216.747-.34a5.5,5.5,0,0,0,3.253-3.048,6.4,6.4,0,0,0,.816-3.275c.238-4.751-2.267-7.721-6.438-7.687Zm2.108,12.424a5.657,5.657,0,0,1-3.977.273,5.13,5.13,0,0,1-2.756-2.96,8.4,8.4,0,0,1,.159-5.418A4.572,4.572,0,0,1,15.8,69.52c2.925,0,4.588,1.791,4.805,5.158.172,2.81-.77,4.919-2.571,5.792Zm41.54-8.366a2.576,2.576,0,0,0-2.3,1.213l-.408.637V72.3H55.122v9.931h1.744V79.055c0-2.9.036-3.242.442-4.036a2.178,2.178,0,0,1,2.45-1.372l.624.182V72.108h-.806Zm-10.256-.091a5.644,5.644,0,0,0-3.334,9.172c1.9,1.562,3.626,1.687,5.95.849.4-.169.828-.364.828-.364V80.108l-.828.429c-1.881.819-3.3.819-4.432-.146a4.473,4.473,0,0,1-1.189-2.629h7.038V76.423c0-2.73-1.643-4.453-4.035-4.409h0Zm-2.847,4.354A4.069,4.069,0,0,1,47.7,74a2.632,2.632,0,0,1,1.518-.486,2.429,2.429,0,0,1,1.474.5,3.873,3.873,0,0,1,1.032,2.346H46.474v.013h0ZM4.39,74.577C2.5,73.431,1.658,72.6,1.761,71.629c.294-2.7,3.627-2.324,5.472-1.3l.013-1.814a7.118,7.118,0,0,0-2.483-.465c-2.243-.034-3.694.7-4.374,2.2-1,2.21-.114,3.876,3.081,5.735,1.794,1.044,2.587,1.95,2.587,2.938,0,2.041-2.461,2.753-5,1.473-.522-.26-.964-.477-.988-.477a15.672,15.672,0,0,0-.044,1.963,10.849,10.849,0,0,0,1.95.554c2.9.578,5.541-.782,5.791-2.992.217-2.074-.533-3.162-3.376-4.861v0Zm70.636-2.587a5.285,5.285,0,0,0-1.079.126,4.972,4.972,0,0,0-3.558,5.147,4.95,4.95,0,0,0,1.3,3.886c1.9,1.564,3.627,1.69,5.962.85.4-.169.825-.361.825-.361V80.074l-.827.431c-1.885.816-3.3.816-4.432-.148a4.416,4.416,0,0,1-1.191-2.63h7.027V76.389c0-2.717-1.643-4.441-4.035-4.4l0,0Zm-2.847,4.354A4.134,4.134,0,0,1,73.4,73.964a2.618,2.618,0,0,1,1.517-.487,2.429,2.429,0,0,1,1.474.5,3.9,3.9,0,0,1,1.032,2.358H72.181v.012Zm-32-1.746c-1.892-1.144-2.73-1.973-2.628-2.948.294-2.7,3.627-2.324,5.472-1.3l.013-1.814a7.083,7.083,0,0,0-2.483-.463c-2.243-.034-3.694.7-4.375,2.2-1,2.21-.1,3.876,3.083,5.735,1.791,1.043,2.584,1.937,2.584,2.925,0,2.041-2.459,2.765-5,1.473-.52-.26-.962-.474-.988-.474a15.673,15.673,0,0,0-.044,1.963,11.875,11.875,0,0,0,1.937.554c2.9.58,5.545-.78,5.793-2.99.216-2.064-.533-3.152-3.367-4.852v0Zm45.1-2.518a2.566,2.566,0,0,0-2.3,1.214l-.408.634V72.277H80.828V82.2h1.744V79.031c0-2.9.035-3.242.442-4.035a2.177,2.177,0,0,1,2.45-1.371l.624.182V72.082h-.806ZM26.3,74.542V68.217h-1.76v14.01h7.4V80.572H26.3v-6.03ZM67,76.514,65.55,80.289l-1.395-3.8-1.417-4.206h-1.8c1.167,3.309,2.437,6.676,3.717,9.94.555.013,1.111,0,1.666,0l1.959-4.919,2-5.02H68.553S67.792,74.282,67,76.515h0ZM30.357,64.4a.964.964,0,0,0,.715-.286.948.948,0,0,0,.294-.7.932.932,0,0,0-.294-.7.978.978,0,0,0-.7-.273.964.964,0,0,0-.715.283.945.945,0,0,0-.283.7.916.916,0,0,0,.283.7.955.955,0,0,0,.7.273Zm-.624-1.612a.89.89,0,0,1,1.521.624.873.873,0,0,1-.26.634.849.849,0,0,1-.624.25.829.829,0,0,1-.624-.25.873.873,0,0,1-.26-.634A.838.838,0,0,1,29.733,62.788Zm.42.715h.114c.081,0,.16.078.227.226l.137.307h.214l-.169-.341c-.069-.136-.136-.216-.216-.238a.413.413,0,0,0,.237-.125.312.312,0,0,0,.078-.227.29.29,0,0,0-.1-.239.569.569,0,0,0-.364-.1h-.361v1.27h.182V63.5h.022Zm0-.59h.159a.406.406,0,0,1,.239.057c.043.034.055.078.055.159,0,.147-.091.216-.26.216H30.15v-.432h0ZM1.081,63.39c0-.442-.013-.771-.023-.964h.01a2.9,2.9,0,0,0,.147.512L2.9,66.712h.283L4.878,62.9a3.434,3.434,0,0,0,.147-.477h.013c-.034.377-.045.7-.045.966v3.331H5.57V61.771H4.845L3.292,65.216c-.057.136-.137.341-.238.611H3.03a3.968,3.968,0,0,0-.226-.588L1.286,61.76H.515v4.952h.556v-3.32l.009,0Zm5.757.009h.5v3.084h-.5Zm.25-1.131a.352.352,0,0,0,.26-.1.361.361,0,0,0,.114-.26.327.327,0,0,0-.113-.26.364.364,0,0,0-.263-.1.356.356,0,0,0-.26.1.366.366,0,0,0-.114.26.313.313,0,0,0,.114.26.374.374,0,0,0,.26.1h0ZM10.9,66.551v-.543a1.436,1.436,0,0,1-.871.306,1.129,1.129,0,0,1-.875-.364,1.408,1.408,0,0,1-.329-.975,1.465,1.465,0,0,1,.351-1.03,1.142,1.142,0,0,1,.884-.374,1.45,1.45,0,0,1,.84.273v-.578a1.728,1.728,0,0,0-.816-.182,1.747,1.747,0,0,0-1.339.533,1.992,1.992,0,0,0-.5,1.4A1.8,1.8,0,0,0,8.7,66.291a1.608,1.608,0,0,0,1.224.509,2,2,0,0,0,.975-.25Zm1.428-1.644a1.6,1.6,0,0,1,.26-.962.711.711,0,0,1,.578-.307.664.664,0,0,1,.429.114v-.59a.9.9,0,0,0-.338-.045.862.862,0,0,0-.546.195,1.194,1.194,0,0,0-.383.6h-.013v-.724h-.565v3.536h.567V64.907Zm3.253,1.885a1.673,1.673,0,0,0,1.28-.512,2.23,2.23,0,0,0,.034-2.709,1.562,1.562,0,0,0-1.235-.487,1.774,1.774,0,0,0-1.28.465,1.928,1.928,0,0,0-.52,1.427,1.842,1.842,0,0,0,.452,1.3,1.646,1.646,0,0,0,1.269.511h0Zm-.806-2.88a1.117,1.117,0,0,1,.85-.341,1.057,1.057,0,0,1,.84.341,1.9,1.9,0,0,1,.022,2.029,1.033,1.033,0,0,1-.85.364,1.1,1.1,0,0,1-.862-.364,1.433,1.433,0,0,1-.317-1,1.388,1.388,0,0,1,.317-1.031Zm5.043,2.572a.929.929,0,0,0,.33-.725.885.885,0,0,0-.26-.646,2.005,2.005,0,0,0-.659-.385,2.059,2.059,0,0,1-.533-.3.485.485,0,0,1-.147-.364.428.428,0,0,1,.169-.351.7.7,0,0,1,.455-.135,1.336,1.336,0,0,1,.806.251v-.567a1.661,1.661,0,0,0-.76-.169,1.348,1.348,0,0,0-.9.294.971.971,0,0,0-.125,1.37,1.832,1.832,0,0,0,.634.4,2.382,2.382,0,0,1,.578.329.432.432,0,0,1,.147.338c0,.33-.226.5-.668.5a1.4,1.4,0,0,1-.919-.338V66.6a1.671,1.671,0,0,0,.871.216,1.537,1.537,0,0,0,.975-.329h0Zm2.7-3.4a1.774,1.774,0,0,0-1.28.465,1.939,1.939,0,0,0-.52,1.427,1.848,1.848,0,0,0,.452,1.3,1.845,1.845,0,0,0,2.55,0,1.9,1.9,0,0,0,.477-1.36,1.939,1.939,0,0,0-.442-1.349,1.6,1.6,0,0,0-1.235-.487h0Zm1.1,1.859a1.521,1.521,0,0,1-.283,1,1.033,1.033,0,0,1-.85.364,1.105,1.105,0,0,1-.862-.364,1.433,1.433,0,0,1-.317-1,1.454,1.454,0,0,1,.341-1.043,1.118,1.118,0,0,1,.85-.341,1.075,1.075,0,0,1,.837.341,1.723,1.723,0,0,1,.283,1.043Zm1.531,1.769h.565V63.65h.828v-.476H25.71v-.546c0-.5.192-.746.59-.746a.782.782,0,0,1,.372.091v-.511a1.037,1.037,0,0,0-.408-.056,1.055,1.055,0,0,0-.759.283,1.193,1.193,0,0,0-.364.918v.58h-.6v.476h.6v3.049Zm2.323-.964c0,.692.306,1.044.929,1.044a1.022,1.022,0,0,0,.533-.117v-.486a.592.592,0,0,1-.364.114.482.482,0,0,1-.407-.148.83.83,0,0,1-.126-.51v-2h.9v-.476h-.9V62.13c-.195.068-.386.125-.567.182v.86h-.611v.476h.611v2.1ZM88.3,72.264a.973.973,0,0,0-.7-.273.973.973,0,0,0-1,.988.927.927,0,0,0,.282.7,1,1,0,0,0,.715.273.975.975,0,0,0,.715-.283.958.958,0,0,0,.292-.7.982.982,0,0,0-.305-.7ZM88.208,73.6a.912.912,0,0,1-1.248,0,.882.882,0,0,1-.26-.637.849.849,0,0,1,.884-.871.847.847,0,0,1,.624.247.858.858,0,0,1,.26.624A.816.816,0,0,1,88.208,73.6Zm-.51-.578a.489.489,0,0,0,.238-.125.313.313,0,0,0,.078-.229.289.289,0,0,0-.1-.238.57.57,0,0,0-.364-.1h-.361V73.6h.182v-.533h.113c.078,0,.156.078.226.226l.135.305h.216l-.169-.341c-.059-.148-.126-.216-.195-.238Zm-.125-.114h-.195v-.429h.16a.4.4,0,0,1,.238.056c.045.034.056.078.056.159,0,.147-.091.215-.26.215ZM55.95,63.027h.159v-1.27h.42V61.6h-1v.159h.42v1.27Zm.962-.954a2.288,2.288,0,0,0-.009-.282.788.788,0,0,0,.044.147l.487,1.089h.078l.489-1.1c.013-.034.024-.078.046-.136-.01.113-.01.2-.01.273v.962h.169V61.6H58l-.442.985c-.01.035-.046.1-.068.182h-.013a1.036,1.036,0,0,0-.065-.169l-.442-1h-.229v1.43h.16v-.954h.009Z" transform="translate(0 -14.095)" fill="#231f1f"/>
      </g>
    </g>
  </g>
</svg>
