<?xml version="1.0" encoding="utf-8"?>
<!-- Generator: Adobe Illustrator 24.0.0, SVG Export Plug-In . SVG Version: 6.00 Build 0)  -->
<svg version="1.1" id="Capa_1" xmlns="http://www.w3.org/2000/svg" xmlns:xlink="http://www.w3.org/1999/xlink" x="0px" y="0px"
	 viewBox="0 0 511.9 511.9" style="enable-background:new 0 0 511.9 511.9;" xml:space="preserve">
<style type="text/css">
	.st0{opacity:0.8;stroke:#000000;stroke-miterlimit:10;}
	.st1{fill:#FFFCFC;}
</style>
<rect class="st0" width="511.9" height="511.9"/>
<g>
	<g>
		<g>
			<path class="st1" d="M389.9,430.4l-86.3-57.5c-3.9-2.5-9-1.7-11.9,1.9l-25.1,32.3c-8.1,10.6-22.8,13.6-34.5,7.1l-4.6-2.6
				c-16.8-9.1-37.6-20.5-79-61.9s-52.8-62.3-61.9-79l-2.6-4.6c-6.5-11.7-3.5-26.4,7.1-34.5l32.3-25.1c3.6-2.9,4.5-8,1.9-11.9
				l-57.5-86.3c-2.6-3.9-7.8-5.1-11.9-2.7l-36.1,21.7c-7.7,4.5-13.4,11.9-15.9,20.5c-11.9,43.2-1.9,118.8,113,233.6
				s190.4,124.8,233.7,113c8.6-2.5,16-8.2,20.5-15.9l21.6-36.1C395,438.3,393.8,433.1,389.9,430.4z"/>
			<path class="st1" d="M510.4,15.2c-0.9-0.9-2.2-1.5-3.6-1.5H123.8c-1.3,0-2.6,0.5-3.6,1.5c-0.9,0.9-1.5,2.2-1.5,3.6v133.1
				l21.7,32.6c7.8,11.8,5.3,27.7-5.9,36.5L102.3,246c-3.5,2.6-4.5,7.4-2.4,11.2l2.6,4.8c8.4,16,18.6,30.9,30.5,44.5h373.8
				c2.7,0,5-2.2,5-4.9V18.7C511.9,17.4,511.4,16.1,510.4,15.2z M250.7,181.4L250.7,181.4L157,281.7c-3.4,3.7-9.2,3.9-12.9,0.5
				c-3.7-3.4-3.9-9.2-0.5-12.9L237.3,169c3.4-3.7,9.2-3.9,12.9-0.5C253.9,172,254.1,177.7,250.7,181.4z M315.3,174.2
				c-6.6,0-13-2.1-18.3-6L144.2,52.3c-4-3.1-4.8-8.8-1.7-12.8c3.1-4,8.8-4.8,12.8-1.7l152.8,115.9c4.3,3.1,10.2,3.1,14.5,0
				L475.4,37.7c4-3.1,9.8-2.3,12.8,1.8s2.3,9.8-1.8,12.8L333.6,168.2C328.3,172.1,321.9,174.3,315.3,174.2z M487.1,282.2
				c-1.8,1.7-4.1,2.5-6.6,2.5c-2.4-0.1-4.7-1.1-6.4-2.9l-93.6-100.3c-3.2-3.7-2.9-9.3,0.7-12.6c3.6-3.3,9.2-3.2,12.7,0.2l93.6,100.3
				C491,273,490.8,278.7,487.1,282.2z"/>
		</g>
	</g>
</g>
</svg>
