<svg height="448pt" viewBox="0 0 448 448" width="448pt" xmlns="http://www.w3.org/2000/svg"><path d="m112 144c68.398438 0 112-18.960938 112-32v-55.519531c-23.039062 15.519531-67.679688 23.519531-112 23.519531s-88.960938-8-112-23.519531v55.519531c0 13.039062 43.601562 32 112 32zm0 0"/><path d="m224 32c0-17.671875-50.144531-32-112-32s-112 14.328125-112 32 50.144531 32 112 32 112-14.328125 112-32zm0 0"/><path d="m112 224c68.398438 0 112-18.960938 112-32v-55.519531c-23.039062 15.519531-67.679688 23.519531-112 23.519531s-88.960938-8-112-23.519531v55.519531c0 13.039062 43.601562 32 112 32zm0 0"/><path d="m256 408h20.6875l-2.34375-2.34375 11.3125-11.3125 10.34375 10.34375v-60.6875h-40zm0 0"/><path d="m408 368h-28.078125c-3.253906.019531-6.191406-1.929688-7.4375-4.933594-1.246094-3-.550781-6.457031 1.753906-8.746094l2.882813-2.878906c13.308594-13.273437 15.5625-34.027344 5.410156-49.84375-10.15625-15.816406-29.964844-22.414062-47.570312-15.835937-3.574219 1.332031-7.59375-.039063-9.601563-3.28125-13.035156-21.410157-36.292969-34.476563-61.359375-34.476563s-48.324219 13.066406-61.359375 34.476563c-2.007813 3.242187-6.027344 4.613281-9.601563 3.28125-17.605468-6.578125-37.414062.019531-47.570312 15.835937-10.152344 15.816406-7.898438 36.570313 5.410156 49.84375l2.882813 2.878906c2.304687 2.289063 3 5.746094 1.753906 8.746094-1.246094 3.003906-4.183594 4.953125-7.4375 4.933594h-28.078125c-22.089844 0-40 17.910156-40 40s17.910156 40 40 40h288c22.089844 0 40-17.910156 40-40s-17.910156-40-40-40zm-176-24h-56v24h56v48c0 4.417969-3.582031 8-8 8h-56c-4.417969 0-8-3.582031-8-8v-8h56v-24h-56v-48c0-4.417969 3.582031-8 8-8h56c4.417969 0 8 3.582031 8 8zm74.34375 93.65625-13.65625-13.65625h-44.6875c-4.417969 0-8-3.582031-8-8v-80c0-4.417969 3.582031-8 8-8h56c4.417969 0 8 3.582031 8 8v80c-.027344 1.292969-.371094 2.554688-1.007812 3.679688l6.664062 6.664062zm85.65625-21.65625c0 4.417969-3.582031 8-8 8h-56c-4.417969 0-8-3.582031-8-8v-80c0-4.417969 3.582031-8 8-8h8v80h56zm0 0"/><path d="m126.878906 303.601562c9.617188-26.78125 38.046875-41.832031 65.601563-34.722656 8.171875-11.484375 18.980469-20.839844 31.519531-27.277344v-25.121093c-23.039062 15.519531-67.679688 23.519531-112 23.519531s-88.960938-8-112-23.519531v55.519531c0 13.039062 43.601562 32 112 32 4.800781 0 9.761719-.160156 14.878906-.398438zm0 0"/></svg>