<svg xmlns="http://www.w3.org/2000/svg" width="41.994" height="10.066" viewBox="0 0 41.994 10.066">
  <g id="Calque_2" data-name="Calque 2" transform="translate(42.105 2.684) rotate(169)">
    <g id="OBJECTS" transform="translate(0 0)">
      <path id="Tracé_245" data-name="Tracé 245" d="M.063.018H.1s0-.04-.073,0S.076,0,.063.018Z" transform="translate(9.361 1.981)" fill="#252a30" fill-rule="evenodd"/>
      <path id="Tracé_246" data-name="Tracé 246" d="M0,.009Z" transform="translate(6.641 1.837)" fill="#252a30" fill-rule="evenodd"/>
      <path id="Tracé_247" data-name="Tracé 247" d="M.261,0H.148C.195,0,.234.04.261,0Z" transform="translate(4.501 1.713)" fill="#252a30" fill-rule="evenodd"/>
      <path id="Tracé_248" data-name="Tracé 248" d="M0,.012H.066C.06.012,0-.015,0,.012Z" transform="translate(5.844 1.788)" fill="#252a30" fill-rule="evenodd"/>
      <path id="Tracé_249" data-name="Tracé 249" d="M.126.04A.226.226,0,0,1,.006.007C-.033-.026.126.067.126.04Z" transform="translate(2.531 1.553)" fill="#252a30" fill-rule="evenodd"/>
      <path id="Tracé_250" data-name="Tracé 250" d="M.018,0Z" transform="translate(10.283 2.019)" fill="#252a30" fill-rule="evenodd"/>
      <path id="Tracé_251" data-name="Tracé 251" d="M0,0H.066A.113.113,0,0,0,0,0Z" transform="translate(5.645 1.755)" fill="#252a30" fill-rule="evenodd"/>
      <path id="Tracé_252" data-name="Tracé 252" d="M0,.009a.139.139,0,0,0,.08,0H.035C-.012.009,0-.011,0,.009Z" transform="translate(13.34 2.149)" fill="#252a30" fill-rule="evenodd"/>
      <path id="Tracé_253" data-name="Tracé 253" d="M.1,0H.02C-.053.027.1.053.1,0Z" transform="translate(7.87 1.826)" fill="#252a30" fill-rule="evenodd"/>
      <path id="Tracé_254" data-name="Tracé 254" d="M.06.024c.04,0-.066-.053-.06,0S.053,0,.06.024Z" transform="translate(15.547 2.248)" fill="#252a30" fill-rule="evenodd"/>
      <path id="Tracé_255" data-name="Tracé 255" d="M0,0H.053Z" transform="translate(16.304 2.298)" fill="#252a30" fill-rule="evenodd"/>
      <path id="Tracé_256" data-name="Tracé 256" d="M0,0H0Z" transform="translate(11.39 2.032)" fill="#252a30" fill-rule="evenodd"/>
      <path id="Tracé_257" data-name="Tracé 257" d="M.061,0h0Z" transform="translate(11.288 2.006)" fill="#252a30" fill-rule="evenodd"/>
      <path id="Tracé_258" data-name="Tracé 258" d="M.073.007A.093.093,0,0,0,0,.007H0C.027-.006.053.021.073.007Z" transform="translate(14.856 2.184)" fill="#252a30" fill-rule="evenodd"/>
      <path id="Tracé_259" data-name="Tracé 259" d="M.02.053C.086.053.1.053.1,0H0Z" transform="translate(17.772 2.258)" fill="#252a30" fill-rule="evenodd"/>
      <path id="Tracé_260" data-name="Tracé 260" d="M.053,0H0A.132.132,0,0,0,.053,0Z" transform="translate(13.183 2.052)" fill="#252a30" fill-rule="evenodd"/>
      <path id="Tracé_261" data-name="Tracé 261" d="M.032.048a.618.618,0,0,1,.246,0S.218.048.211.015s-.073,0-.166,0S.032.035.032.048Z" transform="translate(22.96 2.529)" fill="#252a30" fill-rule="evenodd"/>
      <path id="Tracé_262" data-name="Tracé 262" d="M.053.006H0S.053-.007.053.006Z" transform="translate(13.063 2.04)" fill="#252a30" fill-rule="evenodd"/>
      <path id="Tracé_263" data-name="Tracé 263" d="M.02,0H0Z" transform="translate(16.616 2.225)" fill="#252a30" fill-rule="evenodd"/>
      <path id="Tracé_264" data-name="Tracé 264" d="M.067,0H0C-.006,0,.06.013.067,0Z" transform="translate(21.749 2.484)" fill="#252a30" fill-rule="evenodd"/>
      <path id="Tracé_265" data-name="Tracé 265" d="M.053,0Z" transform="translate(11.489 1.946)" fill="#252a30" fill-rule="evenodd"/>
      <path id="Tracé_266" data-name="Tracé 266" d="M0,0Z" transform="translate(16.961 2.235)" fill="#252a30" fill-rule="evenodd"/>
      <path id="Tracé_267" data-name="Tracé 267" d="M.093,0H0A.213.213,0,0,0,.093,0Z" transform="translate(21.889 2.504)" fill="#252a30" fill-rule="evenodd"/>
      <path id="Tracé_268" data-name="Tracé 268" d="M.093.053A.173.173,0,0,0,0,0H0S.053.053.093.053Z" transform="translate(16.722 2.172)" fill="#252a30" fill-rule="evenodd"/>
      <path id="Tracé_269" data-name="Tracé 269" d="M.17.115S.057.115.077.035H.024A1.328,1.328,0,0,0,.17.115Z" transform="translate(17.004 2.13)" fill="#252a30" fill-rule="evenodd"/>
      <path id="Tracé_270" data-name="Tracé 270" d="M.135,0h0A.232.232,0,0,1,0,0C-.017.015.082-.005.135,0Z" transform="translate(20.698 2.436)" fill="#252a30" fill-rule="evenodd"/>
      <path id="Tracé_271" data-name="Tracé 271" d="M.06,0H0Z" transform="translate(17.499 2.265)" fill="#252a30" fill-rule="evenodd"/>
      <path id="Tracé_272" data-name="Tracé 272" d="M.027,0Z" transform="translate(20.123 2.378)" fill="#252a30" fill-rule="evenodd"/>
      <path id="Tracé_273" data-name="Tracé 273" d="M.02.043C.066.043.133.043.1,0A.379.379,0,0,0,0,0S.033.03.02.043Z" transform="translate(1.222 1.338)" fill="#252a30" fill-rule="evenodd"/>
      <path id="Tracé_274" data-name="Tracé 274" d="M.1.006H.014C-.026-.014.027.026.1.006Z" transform="translate(17.333 2.239)" fill="#252a30" fill-rule="evenodd"/>
      <path id="Tracé_275" data-name="Tracé 275" d="M.259,0H.086V.06A.2.2,0,0,0,0,.06H0a.213.213,0,0,1,.126,0L.166.02a.086.086,0,0,0-.08,0H.252C.232.027.286.027.259,0Z" transform="translate(18.13 2.178)" fill="#252a30" fill-rule="evenodd"/>
      <path id="Tracé_276" data-name="Tracé 276" d="M.087,0H.007C-.026,0,.061,0,.087,0Z" transform="translate(21.304 2.461)" fill="#252a30" fill-rule="evenodd"/>
      <path id="Tracé_277" data-name="Tracé 277" d="M.007.015H.053A.08.08,0,0,0,0,.015S.013-.018.007.015Z" transform="translate(19.492 2.363)" fill="#252a30" fill-rule="evenodd"/>
      <path id="Tracé_278" data-name="Tracé 278" d="M.193.094c-.04,0-.066-.046,0-.08s-.04,0-.08,0H.12c.04,0,0,0,0,.053A.292.292,0,0,0,.193.094Z" transform="translate(19.784 2.283)" fill="#252a30" fill-rule="evenodd"/>
      <path id="Tracé_279" data-name="Tracé 279" d="M.06,0H0A.046.046,0,0,0,.06,0Z" transform="translate(18.595 2.298)" fill="#252a30" fill-rule="evenodd"/>
      <path id="Tracé_280" data-name="Tracé 280" d="M.033.086h.06A.06.06,0,0,0,.159.027c.007-.06-.086,0-.159,0A.383.383,0,0,1,.033.086Z" transform="translate(19.08 2.238)" fill="#252a30" fill-rule="evenodd"/>
      <path id="Tracé_281" data-name="Tracé 281" d="M.083,0H0A.241.241,0,0,1,.083,0Z" transform="translate(24.522 2.614)" fill="#252a30" fill-rule="evenodd"/>
      <path id="Tracé_282" data-name="Tracé 282" d="M.093,0A.219.219,0,0,1,0,0S.086.02.093,0Z" transform="translate(25.25 2.63)" fill="#252a30" fill-rule="evenodd"/>
      <path id="Tracé_283" data-name="Tracé 283" d="M0,.009H.067C.133.009-.006-.011,0,.009Z" transform="translate(25.488 2.648)" fill="#252a30" fill-rule="evenodd"/>
      <path id="Tracé_284" data-name="Tracé 284" d="M.093,0A.425.425,0,0,0,0,0S.093.029.093,0Z" transform="translate(24.692 2.594)" fill="#252a30" fill-rule="evenodd"/>
      <path id="Tracé_285" data-name="Tracé 285" d="M.046.053C.12.053.2.053.219,0A.3.3,0,0,0,.405,0H.325A.79.79,0,0,0,.08.04H0S.06.027.046.053Z" transform="translate(18.655 2.225)" fill="#252a30" fill-rule="evenodd"/>
      <path id="Tracé_286" data-name="Tracé 286" d="M.084,0H0A.3.3,0,0,1,.084,0Z" transform="translate(27.809 2.773)" fill="#252a30" fill-rule="evenodd"/>
      <path id="Tracé_287" data-name="Tracé 287" d="M.091.058V.018H.024C-.042.018.044.058.091.058Z" transform="translate(20.497 2.32)" fill="#252a30" fill-rule="evenodd"/>
      <path id="Tracé_288" data-name="Tracé 288" d="M.093,0h0Z" transform="translate(26.671 2.703)" fill="#252a30" fill-rule="evenodd"/>
      <path id="Tracé_289" data-name="Tracé 289" d="M.093.006A.173.173,0,0,0,0,.006H.093Z" transform="translate(26.538 2.683)" fill="#252a30" fill-rule="evenodd"/>
      <path id="Tracé_290" data-name="Tracé 290" d="M0,0H0Z" transform="translate(26.916 2.703)" fill="#252a30" fill-rule="evenodd"/>
      <path id="Tracé_291" data-name="Tracé 291" d="M.371.059s0-.033-.06-.04S.132.066.172.019.119.019.1.059s-.04,0-.086,0H.371Z" transform="translate(16.637 2.086)" fill="#252a30" fill-rule="evenodd"/>
      <path id="Tracé_292" data-name="Tracé 292" d="M.06.04H.106C.153.04.066.04.06,0A.086.086,0,0,1,0,0C.06,0,0,0,0,.053S.027.04.06.04Z" transform="translate(18.064 2.192)" fill="#252a30" fill-rule="evenodd"/>
      <path id="Tracé_293" data-name="Tracé 293" d="M.1.006H0A.19.19,0,0,1,.1.006Z" transform="translate(0.885 1.289)" fill="#252a30" fill-rule="evenodd"/>
      <path id="Tracé_294" data-name="Tracé 294" d="M.093.006A.173.173,0,0,0,0,.006.375.375,0,0,0,.093.006Z" transform="translate(16.337 2.112)" fill="#252a30" fill-rule="evenodd"/>
      <path id="Tracé_295" data-name="Tracé 295" d="M.013.007H.106A.213.213,0,0,0,0,.007S.02-.007.013.007Z" transform="translate(17.187 2.158)" fill="#252a30" fill-rule="evenodd"/>
      <path id="Tracé_296" data-name="Tracé 296" d="M.013.006H0S.013-.007.013.006Z" transform="translate(19.405 2.279)" fill="#252a30" fill-rule="evenodd"/>
      <path id="Tracé_297" data-name="Tracé 297" d="M.13.053h0V0A.04.04,0,0,1,.077,0H0C-.023,0,.11.046.13.053Z" transform="translate(22.277 2.378)" fill="#252a30" fill-rule="evenodd"/>
      <path id="Tracé_298" data-name="Tracé 298" d="M.1.043.068.009C.035-.024.068.043.015.043S.068.049.1.043Z" transform="translate(20.394 2.269)" fill="#252a30" fill-rule="evenodd"/>
      <path id="Tracé_299" data-name="Tracé 299" d="M.073.007A.1.1,0,0,0,0,.007.209.209,0,0,1,.073.007Z" transform="translate(26.12 2.616)" fill="#252a30" fill-rule="evenodd"/>
      <path id="Tracé_300" data-name="Tracé 300" d="M.08.009H0S.053-.011.08.009Z" transform="translate(26.013 2.608)" fill="#252a30" fill-rule="evenodd"/>
      <path id="Tracé_301" data-name="Tracé 301" d="M.465.014h-.1A1.162,1.162,0,0,0,0,.014,1.1,1.1,0,0,0,.465.014Z" transform="translate(25.329 2.556)" fill="#252a30" fill-rule="evenodd"/>
      <path id="Tracé_302" data-name="Tracé 302" d="M0,0Z" transform="translate(18.177 2.172)" fill="#252a30" fill-rule="evenodd"/>
      <path id="Tracé_303" data-name="Tracé 303" d="M.061.018s-.073-.04-.06,0S.028.024.061.018Z" transform="translate(19.968 2.247)" fill="#252a30" fill-rule="evenodd"/>
      <path id="Tracé_304" data-name="Tracé 304" d="M.066,0H0A.086.086,0,0,0,.066,0Z" transform="translate(25.243 2.544)" fill="#252a30" fill-rule="evenodd"/>
      <path id="Tracé_305" data-name="Tracé 305" d="M.146.058S.1.058.106.018s-.053,0-.106,0l.04.04a.538.538,0,0,1,.106,0Z" transform="translate(19.113 2.134)" fill="#252a30" fill-rule="evenodd"/>
      <path id="Tracé_306" data-name="Tracé 306" d="M.086,0A.126.126,0,0,1,0,0S.1.02.086,0Z" transform="translate(18.675 2.145)" fill="#252a30" fill-rule="evenodd"/>
      <path id="Tracé_307" data-name="Tracé 307" d="M.087,0H0C-.006,0,.1.02.087,0Z" transform="translate(27.361 2.61)" fill="#252a30" fill-rule="evenodd"/>
      <path id="Tracé_308" data-name="Tracé 308" d="M.173,0a.345.345,0,0,1-.12,0H0S.153.04.173,0Z" transform="translate(25.94 2.524)" fill="#252a30" fill-rule="evenodd"/>
      <path id="Tracé_309" data-name="Tracé 309" d="M.126.03c0-.04-.133-.04-.126,0a.724.724,0,0,0,.126,0Z" transform="translate(26.153 2.52)" fill="#252a30" fill-rule="evenodd"/>
      <path id="Tracé_310" data-name="Tracé 310" d="M.379.01H.305A1.182,1.182,0,0,0,0,.01a1.654,1.654,0,0,0,.379,0Z" transform="translate(26.339 2.567)" fill="#252a30" fill-rule="evenodd"/>
      <path id="Tracé_311" data-name="Tracé 311" d="M0,.007H.1A.173.173,0,0,0,0,.007Z" transform="translate(27.003 2.583)" fill="#252a30" fill-rule="evenodd"/>
      <path id="Tracé_312" data-name="Tracé 312" d="M.213.053A.053.053,0,0,0,.213,0H0A.527.527,0,0,0,.213.053Z" transform="translate(14.504 1.873)" fill="#252a30" fill-rule="evenodd"/>
      <path id="Tracé_313" data-name="Tracé 313" d="M.305.007h0A1.567,1.567,0,0,0,0,.007,1.142,1.142,0,0,0,.305.007Z" transform="translate(24.751 2.47)" fill="#252a30" fill-rule="evenodd"/>
      <path id="Tracé_314" data-name="Tracé 314" d="M.09,0H.01C-.03,0,.057,0,.09,0Z" transform="translate(24.608 2.454)" fill="#252a30" fill-rule="evenodd"/>
      <path id="Tracé_315" data-name="Tracé 315" d="M0,.006H.086C.113.006.013-.007,0,.006Z" transform="translate(28.059 2.604)" fill="#252a30" fill-rule="evenodd"/>
      <path id="Tracé_316" data-name="Tracé 316" d="M.106,0A.558.558,0,0,0,0,0S.106.029.106,0Z" transform="translate(28.145 2.607)" fill="#252a30" fill-rule="evenodd"/>
      <path id="Tracé_317" data-name="Tracé 317" d="M.06,0H0S.06.02.06,0Z" transform="translate(28.291 2.617)" fill="#252a30" fill-rule="evenodd"/>
      <path id="Tracé_318" data-name="Tracé 318" d="M.005.012H.059S-.021-.015.005.012Z" transform="translate(27.708 2.585)" fill="#252a30" fill-rule="evenodd"/>
      <path id="Tracé_319" data-name="Tracé 319" d="M.023.006H0C-.01.006.023-.007.023.006Z" transform="translate(26.541 2.518)" fill="#252a30" fill-rule="evenodd"/>
      <path id="Tracé_320" data-name="Tracé 320" d="M0,.008a.452.452,0,0,0,.139,0A.325.325,0,0,0,0,.008Z" transform="translate(26.91 2.516)" fill="#252a30" fill-rule="evenodd"/>
      <path id="Tracé_321" data-name="Tracé 321" d="M0,.009h.04S-.011-.011,0,.009Z" transform="translate(20.785 2.176)" fill="#252a30" fill-rule="evenodd"/>
      <path id="Tracé_322" data-name="Tracé 322" d="M.186.015c0-.033-.153,0-.186,0A.478.478,0,0,0,.186.015Z" transform="translate(29.593 2.608)" fill="#252a30" fill-rule="evenodd"/>
      <path id="Tracé_323" data-name="Tracé 323" d="M.053,0H0Z" transform="translate(29.938 2.637)" fill="#252a30" fill-rule="evenodd"/>
      <path id="Tracé_324" data-name="Tracé 324" d="M.179.058c0-.033-.06,0-.093-.04H.04A.1.1,0,0,1,0,.084.7.7,0,0,0,.179.058Z" transform="translate(30.224 2.592)" fill="#252a30" fill-rule="evenodd"/>
      <path id="Tracé_325" data-name="Tracé 325" d="M.073,0Z" transform="translate(30.656 2.67)" fill="#252a30" fill-rule="evenodd"/>
      <path id="Tracé_326" data-name="Tracé 326" d="M.2,0H.159A.139.139,0,0,1,.033,0H0A.943.943,0,0,0,.2,0Z" transform="translate(31.147 2.69)" fill="#252a30" fill-rule="evenodd"/>
      <path id="Tracé_327" data-name="Tracé 327" d="M.405,0H.359A3.228,3.228,0,0,0,0,0H.08A.923.923,0,0,0,.405,0Z" transform="translate(31.731 2.725)" fill="#252a30" fill-rule="evenodd"/>
      <path id="Tracé_328" data-name="Tracé 328" d="M.153.046A.2.2,0,0,0,.06,0H0A.6.6,0,0,0,.153.046Z" transform="translate(32.389 2.71)" fill="#252a30" fill-rule="evenodd"/>
      <path id="Tracé_329" data-name="Tracé 329" d="M0,.015H.066C.133.015,0-.018,0,.015Z" transform="translate(37.117 2.994)" fill="#252a30" fill-rule="evenodd"/>
      <path id="Tracé_330" data-name="Tracé 330" d="M.089,0H0A.345.345,0,0,0,.089,0Z" transform="translate(33.621 2.809)" fill="#252a30" fill-rule="evenodd"/>
      <path id="Tracé_331" data-name="Tracé 331" d="M.093,0H0A.093.093,0,0,0,.093,0Z" transform="translate(36.792 2.975)" fill="#252a30" fill-rule="evenodd"/>
      <path id="Tracé_332" data-name="Tracé 332" d="M.193,0H0A1.784,1.784,0,0,0,.193,0Z" transform="translate(33.066 2.769)" fill="#252a30" fill-rule="evenodd"/>
      <path id="Tracé_333" data-name="Tracé 333" d="M.159.02A.166.166,0,0,0,0,.02C.06,0,.106.034.159.02Z" transform="translate(33.445 2.782)" fill="#252a30" fill-rule="evenodd"/>
      <path id="Tracé_334" data-name="Tracé 334" d="M.08.058A.052.052,0,0,1,.033.018c-.013-.04,0,0-.033,0a.126.126,0,0,0,.08.04Z" transform="translate(35.583 2.858)" fill="#252a30" fill-rule="evenodd"/>
      <path id="Tracé_335" data-name="Tracé 335" d="M0,.009H.073S0-.011,0,.009Z" transform="translate(36.453 2.953)" fill="#252a30" fill-rule="evenodd"/>
      <path id="Tracé_336" data-name="Tracé 336" d="M.073,0H0C.007,0,.073.04.073,0Z" transform="translate(37.542 3.002)" fill="#252a30" fill-rule="evenodd"/>
      <path id="Tracé_337" data-name="Tracé 337" d="M0,.048V.015H0Z" transform="translate(36.433 2.907)" fill="#252a30" fill-rule="evenodd"/>
      <path id="Tracé_338" data-name="Tracé 338" d="M.007,0H.02C-.02,0,.013,0,.007,0Z" transform="translate(35.131 2.873)" fill="#252a30" fill-rule="evenodd"/>
      <path id="Tracé_339" data-name="Tracé 339" d="M0,.006H.046C.04.006,0-.007,0,.006Z" transform="translate(34.381 2.823)" fill="#252a30" fill-rule="evenodd"/>
      <path id="Tracé_340" data-name="Tracé 340" d="M0,.006H.073S0-.007,0,.006Z" transform="translate(34.813 2.85)" fill="#252a30" fill-rule="evenodd"/>
      <path id="Tracé_341" data-name="Tracé 341" d="M.068,0h0Z" transform="translate(38.338 3.042)" fill="#252a30" fill-rule="evenodd"/>
      <path id="Tracé_342" data-name="Tracé 342" d="M.115.015c0-.033-.066,0-.106,0Z" transform="translate(37.899 2.994)" fill="#252a30" fill-rule="evenodd"/>
      <path id="Tracé_343" data-name="Tracé 343" d="M.011,0H.064a.06.06,0,0,1-.04,0Z" transform="translate(38.687 3.042)" fill="#252a30" fill-rule="evenodd"/>
      <path id="Tracé_344" data-name="Tracé 344" d="M0,.008H.139A.312.312,0,0,0,0,.008Z" transform="translate(38.824 3.034)" fill="#252a30" fill-rule="evenodd"/>
      <path id="Tracé_345" data-name="Tracé 345" d="M.073.007A.1.1,0,0,0,0,.007Z" transform="translate(39.05 3.035)" fill="#252a30" fill-rule="evenodd"/>
      <path id="Tracé_346" data-name="Tracé 346" d="M0,.009H.047S-.006-.011,0,.009Z" transform="translate(29.971 2.555)" fill="#252a30" fill-rule="evenodd"/>
      <path id="Tracé_347" data-name="Tracé 347" d="M.1,0H.024C-.049,0,.064,0,.1,0Z" transform="translate(31.422 2.64)" fill="#252a30" fill-rule="evenodd"/>
      <path id="Tracé_348" data-name="Tracé 348" d="M.071,0H0C-.015,0,.031,0,.071,0Z" transform="translate(32.251 2.673)" fill="#252a30" fill-rule="evenodd"/>
      <path id="Tracé_349" data-name="Tracé 349" d="M.04.015H.093A.146.146,0,0,1,0,.015S.06-.018.04.015Z" transform="translate(29.473 2.509)" fill="#252a30" fill-rule="evenodd"/>
      <path id="Tracé_350" data-name="Tracé 350" d="M.12,0H0S.113.033.12,0Z" transform="translate(34.859 2.783)" fill="#252a30" fill-rule="evenodd"/>
      <path id="Tracé_351" data-name="Tracé 351" d="M.06,0H0A.093.093,0,0,0,.06,0Z" transform="translate(35.138 2.816)" fill="#252a30" fill-rule="evenodd"/>
      <path id="Tracé_352" data-name="Tracé 352" d="M.086,0H0S.1.027.086,0Z" transform="translate(34.68 2.776)" fill="#252a30" fill-rule="evenodd"/>
      <path id="Tracé_353" data-name="Tracé 353" d="M.02.005a.159.159,0,0,1,.08,0H0Z" transform="translate(36.732 2.877)" fill="#252a30" fill-rule="evenodd"/>
      <path id="Tracé_354" data-name="Tracé 354" d="M.069,0H.016C-.037,0,.056.007.069,0Z" transform="translate(36.404 2.856)" fill="#252a30" fill-rule="evenodd"/>
      <path id="Tracé_355" data-name="Tracé 355" d="M.06,0H0A.093.093,0,0,0,.06,0Z" transform="translate(35.968 2.822)" fill="#252a30" fill-rule="evenodd"/>
      <path id="Tracé_356" data-name="Tracé 356" d="M.206.012A.432.432,0,0,0,0,.012C.046,0,.159.039.206.012Z" transform="translate(34.726 2.737)" fill="#252a30" fill-rule="evenodd"/>
      <path id="Tracé_357" data-name="Tracé 357" d="M.126.006A.319.319,0,0,0,0,.006.372.372,0,0,1,.126.006Z" transform="translate(34.454 2.723)" fill="#252a30" fill-rule="evenodd"/>
      <path id="Tracé_358" data-name="Tracé 358" d="M.086,0h0A.365.365,0,0,0,0,0Z" transform="translate(38.744 2.939)" fill="#252a30" fill-rule="evenodd"/>
      <path id="Tracé_359" data-name="Tracé 359" d="M.053,0H0S.06.02.053,0Z" transform="translate(36.134 2.769)" fill="#252a30" fill-rule="evenodd"/>
      <path id="Tracé_360" data-name="Tracé 360" d="M.08,0h0Z" transform="translate(35.383 2.736)" fill="#252a30" fill-rule="evenodd"/>
      <path id="Tracé_361" data-name="Tracé 361" d="M.06,0h0Z" transform="translate(38.771 2.909)" fill="#252a30" fill-rule="evenodd"/>
      <path id="Tracé_362" data-name="Tracé 362" d="M0,0H.053Z" transform="translate(32.96 2.51)" fill="#252a30" fill-rule="evenodd"/>
      <path id="Tracé_363" data-name="Tracé 363" d="M.053,0H0S.053.013.053,0Z" transform="translate(32.953 2.49)" fill="#252a30" fill-rule="evenodd"/>
      <path id="Tracé_364" data-name="Tracé 364" d="M.014.006a1.209,1.209,0,0,0,.219,0H.028C-.026.006.014-.007.014.006Z" transform="translate(40.151 2.883)" fill="#252a30" fill-rule="evenodd"/>
      <path id="Tracé_365" data-name="Tracé 365" d="M.006,0Z" transform="translate(40.412 2.899)" fill="#252a30" fill-rule="evenodd"/>
      <path id="Tracé_366" data-name="Tracé 366" d="M.033,0Z" transform="translate(32.727 2.378)" fill="#252a30" fill-rule="evenodd"/>
      <path id="Tracé_367" data-name="Tracé 367" d="M.359,0H.352A.086.086,0,0,1,.279,0H0C.073,0,.146,0,.159.06S.332.053.359,0Z" transform="translate(39.01 2.723)" fill="#252a30" fill-rule="evenodd"/>
      <path id="Tracé_368" data-name="Tracé 368" d="M.113,0H0A.312.312,0,0,0,.113,0Z" transform="translate(40.046 2.796)" fill="#252a30" fill-rule="evenodd"/>
      <path id="Tracé_369" data-name="Tracé 369" d="M.06,0H.013C-.033,0,.06.027.06,0Z" transform="translate(34.182 2.451)" fill="#252a30" fill-rule="evenodd"/>
      <path id="Tracé_370" data-name="Tracé 370" d="M0,0H0Z" transform="translate(31.32 2.304)" fill="#252a30" fill-rule="evenodd"/>
      <path id="Tracé_371" data-name="Tracé 371" d="M.129,0H0C-.023.013.123.04.129,0Z" transform="translate(40.308 2.769)" fill="#252a30" fill-rule="evenodd"/>
      <path id="Tracé_372" data-name="Tracé 372" d="M.093,0H0A.093.093,0,0,0,.093,0Z" transform="translate(37.961 2.65)" fill="#252a30" fill-rule="evenodd"/>
      <path id="Tracé_373" data-name="Tracé 373" d="M.06,0h0Z" transform="translate(35.364 2.51)" fill="#252a30" fill-rule="evenodd"/>
      <path id="Tracé_374" data-name="Tracé 374" d="M0,0Z" transform="translate(27.833 2.099)" fill="#252a30" fill-rule="evenodd"/>
      <path id="Tracé_375" data-name="Tracé 375" d="M.073,0H0S.08.027.073,0Z" transform="translate(27.853 2.079)" fill="#252a30" fill-rule="evenodd"/>
      <path id="Tracé_376" data-name="Tracé 376" d="M.015.058c-.04,0,.033,0,0-.04h0Z" transform="translate(33.124 2.32)" fill="#252a30" fill-rule="evenodd"/>
      <path id="Tracé_377" data-name="Tracé 377" d="M0,0Z" transform="translate(29.504 2.175)" fill="#252a30" fill-rule="evenodd"/>
      <path id="Tracé_378" data-name="Tracé 378" d="M.272.179H.027c-.06,0,0,0,0-.046a.206.206,0,0,1,.126,0,.06.06,0,0,1,.053,0A.126.126,0,0,1,.3.08a.159.159,0,0,0-.1,0V.04C.2,0,.12.04.12,0A.252.252,0,0,0,.259,0s-.033,0,0,0H.465V.053c0,.013,0-.013,0-.013h0a.252.252,0,0,0,.126,0C.591.073.545.04.5.04s0,0,0,.033a.259.259,0,0,0-.106,0V.106C.392.139.305.173.272.179Zm.1-.153H.319A.2.2,0,0,0,.372.04Z" transform="translate(36.061 2.338)" fill="#252a30" fill-rule="evenodd"/>
      <path id="Tracé_379" data-name="Tracé 379" d="M.071,0H.018C-.035,0,.044.007.071,0Z" transform="translate(36.641 2.537)" fill="#252a30" fill-rule="evenodd"/>
      <path id="Tracé_380" data-name="Tracé 380" d="M.018,0Z" transform="translate(37.08 2.563)" fill="#252a30" fill-rule="evenodd"/>
      <path id="Tracé_381" data-name="Tracé 381" d="M0,.021H.054S-.006-.026,0,.021Z" transform="translate(33.278 2.357)" fill="#252a30" fill-rule="evenodd"/>
      <path id="Tracé_382" data-name="Tracé 382" d="M0,0H.054C.107,0-.012.013,0,0Z" transform="translate(36.837 2.524)" fill="#252a30" fill-rule="evenodd"/>
      <path id="Tracé_383" data-name="Tracé 383" d="M.185.187a.525.525,0,0,1,.166,0h0C.424.187.656.153.61.227H.869c.027,0,0,0,0-.046H.922S.982.18,1,.22a.146.146,0,0,1,.093,0s0,0,0-.04A.359.359,0,0,1,.922.114c.04,0,.12,0,.139-.04s-.04,0-.04,0H.789c-.033,0,.133,0,.126.033a.4.4,0,0,1-.133,0h0L.736.067c-.046-.04,0,0-.046,0s0-.04-.08-.04-.04.04-.1.04S.424.067.451.021s-.06,0-.053,0H.344c-.053,0,0,0,0,.033H.238A.073.073,0,0,1,.172.087L.112.054c-.06-.033-.046,0-.093,0h.06a.04.04,0,0,0,0,.04S.2.153.185.187Z" transform="translate(36.653 2.337)" fill="#252a30" fill-rule="evenodd"/>
      <path id="Tracé_384" data-name="Tracé 384" d="M0,.04S.1.04.066,0A.066.066,0,0,0,0,.04Z" transform="translate(34.215 2.337)" fill="#252a30" fill-rule="evenodd"/>
      <path id="Tracé_385" data-name="Tracé 385" d="M.026,0a.472.472,0,0,1,.1,0H.019C-.027,0,.026,0,.026,0Z" transform="translate(39.157 2.653)" fill="#252a30" fill-rule="evenodd"/>
      <path id="Tracé_386" data-name="Tracé 386" d="M0,0H.027Z" transform="translate(37.111 2.544)" fill="#252a30" fill-rule="evenodd"/>
      <path id="Tracé_387" data-name="Tracé 387" d="M0,.009a.04.04,0,0,0,.046,0S0-.011,0,.009Z" transform="translate(35.995 2.448)" fill="#252a30" fill-rule="evenodd"/>
      <path id="Tracé_388" data-name="Tracé 388" d="M.478.092A1.481,1.481,0,0,1,.79.132H.956a.166.166,0,0,0,.159,0,.2.2,0,0,0,.08.04,1.374,1.374,0,0,0,.166,0c.06,0,0,0,0-.046-.106,0-.186-.08-.292,0s-.186,0-.252,0a.08.08,0,0,1-.053,0H.412A.186.186,0,0,0,.339.092h0s0-.046.033-.033H.425c.066,0,0-.04,0-.053s-.08,0-.06,0S.3.046.319.072.153.072.106.032s0,.04-.053.06.073,0,.06.04A.166.166,0,0,1,0,.132V.185c0,.053.113,0,.139,0a.518.518,0,0,0,.232,0C.4.145.478.125.478.092Z" transform="translate(38.04 2.458)" fill="#252a30" fill-rule="evenodd"/>
      <path id="Tracé_389" data-name="Tracé 389" d="M.153.073a.073.073,0,0,0-.06-.04V0H.007C-.026,0,.06.066.153.073Z" transform="translate(37.854 2.477)" fill="#252a30" fill-rule="evenodd"/>
      <path id="Tracé_390" data-name="Tracé 390" d="M.114.067C.08.067.067.067.074.021s-.033,0-.066,0S.061.067.114.067Z" transform="translate(29.287 1.958)" fill="#252a30" fill-rule="evenodd"/>
      <path id="Tracé_391" data-name="Tracé 391" d="M0,.006Z" transform="translate(29.261 1.993)" fill="#252a30" fill-rule="evenodd"/>
      <path id="Tracé_392" data-name="Tracé 392" d="M0,.04H.04C.08.04,0,0,0,0Z" transform="translate(37.19 2.378)" fill="#252a30" fill-rule="evenodd"/>
      <path id="Tracé_393" data-name="Tracé 393" d="M.146.073h0A.086.086,0,0,1,.08,0H0Z" transform="translate(37.775 2.378)" fill="#252a30" fill-rule="evenodd"/>
      <path id="Tracé_394" data-name="Tracé 394" d="M.077.082s0-.053,0-.073,0,0-.053,0,0,.046,0,.066S.044.075.077.082Z" transform="translate(29.934 1.937)" fill="#252a30" fill-rule="evenodd"/>
      <path id="Tracé_395" data-name="Tracé 395" d="M.009.018Z" transform="translate(37.381 2.4)" fill="#252a30" fill-rule="evenodd"/>
      <path id="Tracé_396" data-name="Tracé 396" d="M.079,0h0Z" transform="translate(34.9 2.278)" fill="#252a30" fill-rule="evenodd"/>
      <path id="Tracé_397" data-name="Tracé 397" d="M.058.024H.032C-.048-.03.045.024.058.024Z" transform="translate(36.574 2.354)" fill="#252a30" fill-rule="evenodd"/>
      <path id="Tracé_398" data-name="Tracé 398" d="M.108.046A.166.166,0,0,0,.108,0H.015c-.033,0,0,0,0,.04S.068.046.108.046Z" transform="translate(36.757 2.331)" fill="#252a30" fill-rule="evenodd"/>
      <path id="Tracé_399" data-name="Tracé 399" d="M.033.053h.08C.066.053.033.053.053,0H0S.02.033.033.053Z" transform="translate(31.32 2.019)" fill="#252a30" fill-rule="evenodd"/>
      <path id="Tracé_400" data-name="Tracé 400" d="M.142.006H0A.429.429,0,0,1,.142.006Z" transform="translate(35.514 2.299)" fill="#252a30" fill-rule="evenodd"/>
      <path id="Tracé_401" data-name="Tracé 401" d="M.023.058s.06,0,.06-.04-.066,0-.08,0S.023.044.023.058Z" transform="translate(29.251 1.902)" fill="#252a30" fill-rule="evenodd"/>
      <path id="Tracé_402" data-name="Tracé 402" d="M.166.043h.06c.046,0,0,0,0-.033A.624.624,0,0,0,0,.01C.066.1.166.1.166.043Z" transform="translate(36.905 2.281)" fill="#252a30" fill-rule="evenodd"/>
      <path id="Tracé_403" data-name="Tracé 403" d="M.086.006A.166.166,0,0,0,0,.006H0C.033.032.093.039.086.006Z" transform="translate(31.911 2.046)" fill="#252a30" fill-rule="evenodd"/>
      <path id="Tracé_404" data-name="Tracé 404" d="M.01.015h0C-.024.015.043-.018.01.015Z" transform="translate(37.181 2.363)" fill="#252a30" fill-rule="evenodd"/>
      <path id="Tracé_405" data-name="Tracé 405" d="M0,.021H.046S0-.026,0,.021Z" transform="translate(37.363 2.357)" fill="#252a30" fill-rule="evenodd"/>
      <path id="Tracé_406" data-name="Tracé 406" d="M.02.046S.053,0,.02,0,0,.033.02.046Z" transform="translate(36.347 2.251)" fill="#252a30" fill-rule="evenodd"/>
      <path id="Tracé_407" data-name="Tracé 407" d="M9.391,1.3v.066c.086,0-.04,0,0,.033s-.04,0-.086,0h0a2.318,2.318,0,0,1-.379,0s-.033,0,0,.053H8.853V1.4c0-.046,0,0-.08,0H8.707c-.066,0,.086,0,.066-.046a.664.664,0,0,1-.279.053.066.066,0,0,0-.046,0,.531.531,0,0,1-.206,0H8.076c-.066,0,0-.06,0-.093s0-.046.033-.046,0,.033-.046.033H7.85a.554.554,0,0,1-.179.073c-.086.013,0,0-.033,0a.645.645,0,0,0-.206-.06H7.265a.359.359,0,0,1-.113-.053.89.89,0,0,1-.206,0c-.053-.053-.159,0-.259-.046a.112.112,0,0,1-.08-.04.392.392,0,0,1-.213,0h0a.611.611,0,0,1-.153-.046s-.033,0,0,.06a.392.392,0,0,1-.126,0s-.066-.06-.1-.06a.259.259,0,0,1-.226,0h-.1a.133.133,0,0,1-.113-.06,1.846,1.846,0,0,1-.5,0,.073.073,0,0,0-.053.06l-.206-.1H4.556A2.079,2.079,0,0,0,4.124.99H3.958a.345.345,0,0,0-.173,0h0A.418.418,0,0,1,3.56.936H3.453a.319.319,0,0,0,.12.046s-.06,0-.053.053H3.374a.412.412,0,0,1-.166,0H3.081c-.04,0,0-.053,0-.073s-.066,0-.133,0,0,0,0-.046a.179.179,0,0,0-.08,0H2.836s.053.033.06.06a2.132,2.132,0,0,1-.511,0H2.2a.432.432,0,0,0-.159,0c-.033,0,0,0,0-.053-.106,0-.312-.053-.345,0s-.12-.046-.186-.06S1.461.8,1.454.77s.08,0,.139,0a.126.126,0,0,0,.086,0s-.06,0-.053-.046-.04,0-.06,0-.04,0-.066.066c-.139,0-.259-.04-.4-.046S1,.744.95.677A.159.159,0,0,1,.824.624.215.215,0,0,1,.664.584c-.046-.04.093,0,.1,0L.664.531H.432A.81.81,0,0,1,0,.372.305.305,0,0,0,.113.259H.166c.053,0,0,0,.04-.046C.046.146.305.086.286.027s.139,0,.213,0A.664.664,0,0,1,.85.08h.2a.664.664,0,0,0,.12,0H1.72a.511.511,0,0,1,.266,0h0a.179.179,0,0,1,.086.046h.06a1.607,1.607,0,0,0,.432,0H2.63a.97.97,0,0,1,.359,0h.04a.863.863,0,0,0,.266,0h.943c.08,0,.226.066.312.033a.365.365,0,0,0,.146,0c.159.053.385,0,.551.046a.339.339,0,0,1,.2,0,7.259,7.259,0,0,1,.764,0c.133.053.305,0,.445.046a.332.332,0,0,1,.086,0,2.656,2.656,0,0,0,.591.033,2.736,2.736,0,0,0,.638.046h.186A1.794,1.794,0,0,1,8.62.379h.166a1.727,1.727,0,0,1,.246,0,.219.219,0,0,1,.173,0,1.992,1.992,0,0,1,.392,0,.877.877,0,0,1,.272,0h.252a.564.564,0,0,0,.272.086h0a1.594,1.594,0,0,1,.359,0,2.557,2.557,0,0,0,.319,0c.226,0,.372.053.6.073.086-.046.206,0,.312,0h0c.372,0,.883.04,1.242.04a1.767,1.767,0,0,1,.345.04,3.042,3.042,0,0,1,.412,0,2.657,2.657,0,0,1,.392,0h.04a5.315,5.315,0,0,0,.8,0c.08.04.232,0,.319,0a8.209,8.209,0,0,1,.823.046.1.1,0,0,0-.053,0A.664.664,0,0,1,16.6.75h0s0,.033.073.033a.286.286,0,0,1,.173,0h.139c.08,0,.033-.04.066-.046a7.086,7.086,0,0,0,.777.046.279.279,0,0,1,.2,0h0c.046,0,0,.033.06.033h.219a.126.126,0,0,1,.073,0h.086a.259.259,0,0,0,.146,0h0a9.415,9.415,0,0,1,1.043.04h.352a.365.365,0,0,1,.159,0s-.033,0,0,.04.053,0,.113.04,0-.066.06-.046.04,0,.04,0h.086a.379.379,0,0,0,.146,0,.159.159,0,0,1,.04-.053c.06,0,.04.046.086.053a.1.1,0,0,0,.053,0h0a.246.246,0,0,1,.246,0,1.109,1.109,0,0,0,.392,0,1.169,1.169,0,0,0,.219,0h.073c.02,0,0,0,0-.04h.06a.332.332,0,0,0,.113,0h0A1.361,1.361,0,0,1,22.2.81c.1.053.226.093.332.139s0,0,0,.04.06,0,.086,0,0-.04,0-.053-.04.193-.04.193v-.06c0-.06.08,0,.086,0h-.06a.976.976,0,0,1,.272,0h0a.222.222,0,0,1,.113.033c.046.033.113,0,.126,0s.133,0,.159-.04a.511.511,0,0,0,.219,0,.259.259,0,0,0,.086.033h.086a.053.053,0,0,0,.046.046h0a3.161,3.161,0,0,1,.525.04c0-.046.146,0,.2,0a2.032,2.032,0,0,1,.405,0,.359.359,0,0,0,.106-.053V1.083a.219.219,0,0,1,.146.046h0a2.152,2.152,0,0,1,.359,0h.239a1.952,1.952,0,0,1,.392,0h0a.133.133,0,0,0,.086,0c.053-.08.3.033.4,0a1.328,1.328,0,0,0,.325,0,.545.545,0,0,0,.332.106l.073.04c.073.04,0,0,0-.04s.219,0,.252.053h.033c.033,0,.12.04.106,0s.053.04.12.04h0c.053,0,.073,0,.08.04s-.053,0-.066,0,.04.053.113.06h.1c.04,0,.073-.073-.046-.06,0-.033-.046-.046-.073-.066h0a.611.611,0,0,1,.166.053h.053c.053,0,0,0,0,.033s.1,0,.166,0,.066,0,.04-.033,0,0-.046,0a.279.279,0,0,0-.093,0s0,0,0-.053a.9.9,0,0,1,.193,0h.179c.066,0,.053,0,0-.053h.159a2.706,2.706,0,0,1,.312.08c.1.02,0,0-.04,0h.04c-.073,0,0,.06.093.053h.239a.046.046,0,0,1,0,.066h-.086a.491.491,0,0,0-.325,0h0a1.118,1.118,0,0,1-.305-.04h0c-.159-.04-.279,0-.438-.04a.385.385,0,0,0,.332.159h-.013a.345.345,0,0,0,.153,0h.086a.806.806,0,0,1,.319.053.315.315,0,0,0,.226,0h.259c-.1,0,0,.073,0,.1a.571.571,0,0,1,.113,0h-.106c-.04,0,0,0,0-.04l.053-.046c-.04-.046-.113-.08-.133-.133s.086,0,.12,0h.033a.2.2,0,0,1-.053,0H29.7s-.146-.04-.179,0,0-.053-.053-.073,0,0-.04,0h-.053a.272.272,0,0,1,.179,0c.046,0,.1,0,.1-.06s.086.053.166.073a.12.12,0,0,1,.126,0c-.046,0-.06.033-.1.04s.08,0,.126,0,0,.04.06.046,0,0,.046,0h.06V1.441c0-.046,0,0,.093,0a.272.272,0,0,0-.073-.046l-.053.04c-.053.04,0-.093.12-.073h.266c.046,0,0,.053.06.06H30.6c-.027,0,0,.066.06.073a.258.258,0,0,0,.073,0c.04,0,.073,0,.066-.06s-.04,0-.04,0,.1,0,.08-.04a.232.232,0,0,1,.12,0c.066,0,.106,0,.1-.04h.04a.114.114,0,0,1,.086.046c.033.046-.053,0-.053,0l.166.033c0,.04.033.08.1.053s0-.04,0-.073a.219.219,0,0,1,.213,0h.246a.345.345,0,0,1-.193.04.139.139,0,0,0,.213.146c.033.046.12,0,.166,0h0a.083.083,0,0,0,.066-.046c.027-.046,0,0,0-.046s0,0-.073,0,0-.04,0,0,0,0,.04,0h0a.737.737,0,0,1,.325,0,.045.045,0,0,0-.046.053.246.246,0,0,0,.133,0h-.04a1.992,1.992,0,0,1,.418,0c0,.053,0,.1-.146.113H32.7c-.053,0-.06-.04-.1-.06a1.083,1.083,0,0,1-.252,0h0a.558.558,0,0,0,.126,0c-.04.08.133.066.226.073h.066c.066,0,.139-.06.206-.086a.173.173,0,0,1-.093,0,2.3,2.3,0,0,1,.425,0c0,.033.08.053.06.086s0,0-.066,0h.033a.162.162,0,0,1-.153-.08.239.239,0,0,0-.12,0c.033.04-.053.04-.066.073s0,0-.073,0-.153.073-.219.1-.08-.053-.153-.04h-.2a.066.066,0,0,1-.073,0V1.687c0-.053-.12,0-.12.053s.053,0,.06,0,0,.04,0,.04V1.74c0-.04.133,0,.159,0s0,0,.046.053.12,0,.12,0h.066q-.053,0,0,.06a.257.257,0,0,1,.153.033c.06.033-.053.046,0,.053a.37.37,0,0,0,.086,0h.159c.053,0,.053.04.1,0h-.193c-.046,0,0,0,0,.033s-.046,0-.086,0-.053.046,0,.066h-.08c-.046,0,0,0,0,.04h-.007c-.066,0-.033-.04-.093-.053s.06,0,0-.04h-.04c0-.046-.133-.046-.179-.06s.04,0,0,0a.279.279,0,0,0-.146,0s-.053,0-.053.04,0,0,.04,0h.053c.04,0,0,.04.1,0s0,.073.053.1,0-.033-.053-.046-.219-.093-.339,0c0,0,.053.033.053.04H32l.046.04c-.046,0-.06.033-.093.046a.43.43,0,0,1-.239-.033.392.392,0,0,0,.139,0H31.8c-.046,0,.073-.133-.073-.146,0-.04.1,0,.106-.046l.04-.126a.8.8,0,0,1,.106-.106.292.292,0,0,0-.146-.046V1.607h-.06a.179.179,0,0,0-.086.06s.093.04.146,0,.086,0,.093.046,0,0-.08,0,0,0,0,.046l-.08.06c.086,0,.153.066.066.086s-.08,0-.12,0-.146,0-.173.046.04,0,.053,0a1.461,1.461,0,0,1-.3,0,.133.133,0,0,1-.1-.046.232.232,0,0,1,.066-.073h.093a.339.339,0,0,0-.186,0s.033,0,0,0,0,0-.033.046a.432.432,0,0,0-.159,0V1.84c0-.04.12,0,.093,0h-.12s.046,0,0-.046-.066,0-.139,0H30.9c.053,0-.08.06,0,.08s.046,0,.053,0,.066.053,0,.086-.066,0-.106,0H30.4c-.046,0,0-.04,0-.046s-.06,0-.073,0h.053a.053.053,0,0,1,0,.04h-.133c-.06,0,0,0-.04-.04s-.066,0-.106,0-.292,0-.312-.093h-.219s-.06,0-.066.053,0,0-.053,0H28.53a1.541,1.541,0,0,1-.305,0h0l-.046.033a.432.432,0,0,0-.213,0h1.175a.877.877,0,0,1,.193,0h-.139a.306.306,0,0,0-.093,0,4.044,4.044,0,0,1-.936-.046.2.2,0,0,1-.139,0h-.053c-.412,0-.75-.066-1.156-.073a4.107,4.107,0,0,1-.412-.046h.04a1.627,1.627,0,0,1-.179,0,.392.392,0,0,1-.246,0H25.88c-.033,0,.053,0,.046.033a7.385,7.385,0,0,1-.75-.053H25.4c0-.033-.146,0-.193,0H25.4a.87.87,0,0,0-.232,0s.08,0,.106-.033h0a1.056,1.056,0,0,0-.259.106,1.388,1.388,0,0,0-.166,0h.3v.033a1.992,1.992,0,0,1-.405-.046.405.405,0,0,1-.173.013v-.06h-.5s.153,0,.153.06-.04,0-.04,0,.246.046.232,0,0,0,.04.04,0-.033.053-.033.06,0,.06.053h-.412a.365.365,0,0,0-.246-.06s.08,0,.08.046h-.418c.046,0,0,0,0-.04s-.106,0-.113,0a.379.379,0,0,1,.106,0,2.73,2.73,0,0,1-.465,0h.445l.073.04h.166s.073-.033.106,0h0a.232.232,0,0,1,.08,0V1.793h.053a.3.3,0,0,1-.066.06h-.239a5.605,5.605,0,0,1-.6,0h.046a.126.126,0,0,0-.086,0,.049.049,0,0,0-.046-.046.636.636,0,0,0-.113,0h.153c.053,0,0,0,0,.033h-.571a.213.213,0,0,0-.159,0s-.053,0-.06-.046,0,0,.04,0a.186.186,0,0,1,.159,0h.086s-.139,0-.126-.033a.219.219,0,0,0,.093,0h0a.472.472,0,0,1-.2,0h-.113a6.249,6.249,0,0,1-.664-.046.035.035,0,0,1,.04-.033c.04,0-.06-.053,0-.066a1.328,1.328,0,0,0-.232,0,.226.226,0,0,0,.179.179v.04c0,.04-.073,0-.093,0h.126a1.286,1.286,0,0,0-.319-.04h0V1.86c0,.027.033,0,.04,0a.412.412,0,0,0-.126,0c-.033-.113-.379,0-.478-.066h0a.272.272,0,0,0-.106,0v-.06H20.8a.086.086,0,0,1,.073,0h.073s-.04,0-.046.053.133,0,.159,0,.08-.066-.046-.073c.08-.046-.073-.053-.153-.073a.06.06,0,0,1-.08.033h-.093s.066-.04,0-.04,0,0-.046.04a2.656,2.656,0,0,1-.525,0h-.033a.039.039,0,0,1,.04.04c0,.04-.04,0-.053,0H20.1a.823.823,0,0,0-.179,0s-.066,0-.08-.046-.04,0-.086,0c.06,0-.04,0,0,.053s.073,0,.086,0h-.226c-.033,0,.046-.046,0-.06h-.166c-.073,0,0-.04-.086,0s.1,0,.066,0a.066.066,0,0,0,.086,0,3.042,3.042,0,0,0-.7,0h-.1a.06.06,0,0,0-.046,0v.093a.246.246,0,0,1-.139,0H18.5a1.428,1.428,0,0,1,.153,0,.226.226,0,0,0-.159-.04c0-.12-.259-.033-.365-.093a1.587,1.587,0,0,1-.432,0h.093c0,.04-.08,0-.066.06H17.9a1.654,1.654,0,0,1-.186.1V1.733c0-.046-.086,0-.053,0h.1a.2.2,0,0,0-.139,0s-.033,0,0-.06-.113,0-.126-.06.04,0,.033,0a.133.133,0,0,0-.113,0c.033,0-.053,0,0,.053a.7.7,0,0,0-.166,0h-.066a.3.3,0,0,0-.073-.086h-.033c0-.04-.08-.046-.1,0s0,0,.033.04a.392.392,0,0,1-.166-.093s0,.033-.073.033,0-.04-.04-.04H16.51a.292.292,0,0,0-.213-.093.1.1,0,0,1-.1,0c.066.04-.1.033-.066.06h-.272a.093.093,0,0,0,.086,0c.046,0,.2,0,.213.066a.219.219,0,0,1-.113,0h-.139a1.893,1.893,0,0,1-.445,0,.086.086,0,0,1,0,.046h.053a.1.1,0,0,1,.086-.06.226.226,0,0,0,.08,0h.04c.04,0,.033,0,0,.046s.08,0,.08,0h0a.153.153,0,0,1,.093,0h-.066a.06.06,0,0,1-.04,0h-.06c-.08,0-.186-.06-.272,0h-.08c-.02,0,0,0,0-.046s0,0-.053,0h-.033c-.106,0-.066-.08-.153-.113s-.053,0-.086,0,0-.04,0-.046-.126-.033-.146-.066.046,0,.053,0l-.04-.04h-.053c-.053,0-.232-.04-.239,0a2.656,2.656,0,0,0-.266-.06c-.033,0,0,0-.033.046a.279.279,0,0,1-.093,0h0V1.3c0,.04-.093,0-.086,0h.04a.292.292,0,0,1-.106,0v-.04c0-.007-.04,0-.073,0s-.093,0-.106-.06-.033.053,0,.073.04,0,.053,0q0-.01-.007-.02s.033,0,0,.046-.1,0-.12,0a.252.252,0,0,0,.179.046.076.076,0,0,0-.046-.066.166.166,0,0,1,.12.046h.053v.04c0,.04.106,0,.193,0h0a.285.285,0,0,1,.139.04c.06.04.073,0,.133,0h.053c.053,0,.04,0,.093.04s.1,0,.06.06h.073c-.033.046.073.04.066.08-.133,0-.193-.06-.325,0v.04c0,.04-.073,0-.106,0h-.126c-.093,0-.04-.086.046-.08a.106.106,0,0,0,.06,0,.259.259,0,0,1,.213,0c0-.066-.166-.053-.232,0a.843.843,0,0,0-.3-.046.418.418,0,0,1,.1.066h-.126s.12,0,.153.04h-.179c-.06,0-.133-.053-.239-.06h0s.12,0,.126.053a.79.79,0,0,1-.252,0h0a.877.877,0,0,1-.193,0h0a.465.465,0,0,1-.2,0h-.08c.033,0,0-.053.04-.053h.186c.066,0,0-.033,0-.046a.259.259,0,0,0-.093,0h-.226a.139.139,0,0,1-.113,0h0c-.053,0,0,.04-.073.046s.066,0,0,.053a.219.219,0,0,0-.093,0,.79.79,0,0,0-.106-.053c.033-.053-.126-.08-.139-.033a.126.126,0,0,0-.12,0h.027c-.113,0-.279,0-.246.06a1.2,1.2,0,0,0-.246,0,.1.1,0,0,0-.073-.04h-.04a1.118,1.118,0,0,1-.179-.06c-.066-.02,0,.046,0,.066a.359.359,0,0,0-.146,0h0a.187.187,0,0,0-.173-.066H11.7a.232.232,0,0,0-.106,0h-.073c-.04,0,0-.046.086-.06-.139-.046-.166.046-.272,0s-.133,0-.153.053h-.066a.207.207,0,0,0-.113.04c-.053.04,0,.046,0,.073s0,0-.053,0a.664.664,0,0,0-.053-.139,1.474,1.474,0,0,0-.564,0c.046.046.232,0,.325.04a.419.419,0,0,0,.126.046c.04.007-.186,0-.259.046s0-.033,0-.033a.206.206,0,0,1-.113,0H10.34c-.027,0-.133,0-.146-.053s0,0-.053,0,0-.053-.066-.066-.06,0-.06,0H9.9c.139.04-.073.073-.139,0s0-.046-.06-.06H9.6a.093.093,0,0,1,.08,0c0-.033,0-.04.04-.06s0,0-.046,0H9.623c-.053,0-.033-.04-.08-.04S9.417,1.249,9.391,1.3Zm3.938,0h.04c.04,0-.093-.046-.146-.066H13c.033,0-.173-.046-.186,0a.405.405,0,0,1,.153.033.724.724,0,0,0-.339,0c-.053,0-.04-.053-.106-.053h-.093v.046c0,.046.08,0,.06.053s.232,0,.246,0a.9.9,0,0,0,.352.046h.066c.066,0,.166,0,.179-.046Zm10.732.5h0ZM8.281,1.242a.359.359,0,0,1,.146,0s-.08,0-.08-.046a.093.093,0,0,1-.093,0s-.007.06.027.08Zm.286,0a.066.066,0,0,0-.06,0s.02.046.06.046Zm0,0H8.58Zm-.345,0H8.169A.112.112,0,0,0,8.222,1.242Zm.85.04H9c-.027,0,.04-.007.073,0Zm-2.3-.153h0Zm.319,0a.843.843,0,0,0,.146,0c0-.046-.113-.04-.146,0s.013,0,0,0ZM5.9,1.056a.139.139,0,0,0-.113-.046c-.08,0-.106,0-.106.04Zm.153,0a.073.073,0,0,0-.066,0s.073.073.066.033Zm5.977.332h.08V1.355H12.04a.341.341,0,0,0-.027.066ZM8.361,1.129a.266.266,0,0,1-.126,0s-.04,0,0,.04S8.374,1.209,8.361,1.129ZM1.594.83ZM3.586.916h-.02Zm8.5.432H12a.283.283,0,0,1,.113,0Zm-1.813-.093h.033c-.007,0-.007-.013-.007,0Zm1.567.046h-.106c.04.046.139.033.133,0ZM7.85,1.129H7.79C7.77,1.129,7.85,1.083,7.85,1.129Zm2.776.126h-.066C10.493,1.255,10.626,1.242,10.626,1.255Zm3.507.186c.06-.053-.073-.066-.153-.046h.073c.027,0-.007.053.046.046Zm1.1.053a.385.385,0,0,1,.12,0c-.073-.073-.219-.053-.153,0Zm7.584.4a.04.04,0,0,0,.04,0,.478.478,0,0,1-.113,0c-.04.007.033-.027.04,0ZM10.858,1.229s.086,0,0-.046-.06.046-.06.066ZM21.8,1.813h0ZM10.36,1.149a.319.319,0,0,0-.08-.066.073.073,0,0,1-.08,0c-.06,0-.1,0-.1.046-.139,0-.186-.093-.332-.06h0l.04.04a1.2,1.2,0,0,0,.312,0A.143.143,0,0,0,10.3,1.2Zm10.493.644a.817.817,0,0,0-.179,0,.279.279,0,0,0,.179,0ZM8.819,1.129H8.726a.93.93,0,0,0-.226,0H8.494s.073,0,.053.04A.465.465,0,0,0,8.819,1.1Zm2.876.179c-.04,0,0-.053,0-.073s.1,0,.12-.046a.571.571,0,0,0-.2,0s0,.046,0,.053a1.919,1.919,0,0,1-.206,0c-.086,0-.12-.113-.246-.113h-.053c-.053,0,.053,0,.08.04s.06,0,.066-.033c.146,0,.126.08.12.106a1.328,1.328,0,0,0,.319.033Zm3.241,0c.086,0,0,.08.073.113s.086,0,.126,0h.007c.046,0,.033-.04,0-.046h.08a.339.339,0,0,0,.272,0,.584.584,0,0,0,.219.033h0a.126.126,0,0,0-.086,0h.093a.551.551,0,0,0-.159,0h.146a.146.146,0,0,0,.073,0c-.06,0,0-.046-.08-.053a.059.059,0,0,1-.093,0c-.046-.053-.08,0-.086.04s-.04,0-.073,0h-.06V1.342a.664.664,0,0,1-.226,0c.053,0-.04,0,0-.033s-.133,0-.206,0H14.9c-.06,0-.02-.02.04-.027ZM8.959,1.162h.073V1.116H8.959s-.02.013.02.013Zm1.773,0h.08a1.175,1.175,0,0,0-.146,0c.033,0,0,.06-.033.093.1-.007.093-.126.12-.126Zm-1.2-.033s0-.04-.086-.04h0a.239.239,0,0,0,.086.04Zm-.305,0s-.073,0-.086-.053S9.158,1.129,9.231,1.129Zm4.224.133H13.4c-.053,0,0,0,0,.04S13.428,1.262,13.455,1.262Zm-.053.053h.053c.053,0,0,.06.1.066s.106-.06.153-.1h-.2c-.027,0,0,.04.046.053S13.369,1.268,13.4,1.315Zm9.351.438h-.073c-.027,0,.04,0,0,.046a.458.458,0,0,0,.219.053.173.173,0,0,1,.08-.06.737.737,0,0,0-.226,0h.106c-.06,0,0-.046-.073-.053s-.046,0-.046.04.007.013.013-.027Zm-10.8-.491h-.073C11.841,1.262,11.894,1.268,11.954,1.262ZM7.6,1.023h0c-.04,0-.027-.013-.027,0Zm2.915.159h.093a.455.455,0,0,0-.193-.04h.073a.076.076,0,0,1,0,.04Zm10.812.578h-.02a.664.664,0,0,0-.113,0s.113-.046.106,0ZM11.071,1.169h-.213c-.04,0,.179.046.186,0Zm1.209.1V1.222H12.12a.272.272,0,0,0,.133.046ZM8.295.976a.113.113,0,0,0-.04.053.193.193,0,0,0,.139,0c-.106-.013-.073-.053-.126-.053Zm12.857.75h0a.551.551,0,0,1,.232,0h0c-.093,0-.186-.073-.286-.033h-.073s.08,0,.073.066ZM7.737,1Zm1.328.066s0-.033-.06-.033h0Zm13.966.731c.08-.06.266,0,.312-.033h-.279c-.06,0,0,0,0,.053a.266.266,0,0,0-.126,0A.52.52,0,0,1,23.031,1.793Zm-1.116-.06h-.033S21.916,1.713,21.916,1.733Zm.664,0h-.013s.013.013.013.06Zm-.89-.053h.139a.12.12,0,0,0-.093-.053h-.06c-.06,0,0,.08.013.086Zm-.126,0c.046,0,.066-.04.033-.053s-.066.06-.033.073ZM12.206,1.2h0a.086.086,0,0,0-.06,0A.053.053,0,0,0,12.206,1.2Zm-.3,0h.1a.181.181,0,0,0-.12-.066c-.066,0,.013,0,.02.046Zm10.327.531h.013C22.221,1.727,22.241,1.72,22.234,1.727Zm1.142.066h.04S23.363,1.753,23.377,1.793ZM12.751,1.2h-.066c-.027,0,.086.013.08-.007ZM25.9,1.906h-.073A.209.209,0,0,0,25.9,1.906ZM22.527,1.7h-.053c-.053,0-.007.007.02,0Zm3.792.179h.073a.788.788,0,0,0-.305,0c.04,0,.139.046.2,0Zm-3.36-.166ZM21.9,1.66Zm-.12,0V1.594H21.73s-.027.04.013.046Zm1.76.1V1.693c0-.027-.12,0-.12,0H23.41c-.053,0,.053.033.093.046Zm2.119.033h-.033a.213.213,0,0,0,.113,0,.717.717,0,0,0,.3,0h0A2.6,2.6,0,0,0,25.655,1.793Zm-2.71-.139h.086a.159.159,0,0,0-.106-.033Zm.963.066c-.12,0-.113-.06-.232-.046,0,.046.12,0,.113.053S23.941,1.76,23.908,1.72Zm.731.066h-.007a.046.046,0,0,0,.027.007Zm-3.513-.2h-.073a.335.335,0,0,1,.093,0Zm1.594.08h.02Zm5.253.286h.06s-.06-.02-.04,0Zm-5.731-.325h-.007s.027-.013.027,0Zm1.933.08h-.2a.488.488,0,0,0,.219,0Zm.491,0h0s.007.027.02.033Zm1.235.086Zm-.418,0h.073c-.007,0-.073-.046-.066,0Zm-.843-.073h.027s-.02-.027-.02-.02Zm5.432.232h-.06a.173.173,0,0,0,.066-.02Zm.664,0a.7.7,0,0,0-.219,0s.193-.007.239-.013Zm-.777-.046H30c0-.04-.046-.066-.113-.04s.093-.007.093.027Zm.757,0c.04-.046-.06-.08-.133-.073.06.02.046.086.153.073Zm-9.464-.511v-.04h-.04S21.179,1.388,21.252,1.395Zm9.058.485s.04,0,0-.04a.252.252,0,0,0-.106,0,.139.139,0,0,0,.073.04Zm1.036.046h.086c.073,0,0-.066-.106-.046a.04.04,0,0,0,.02.046Zm-.279,0h.046c.046,0-.027-.027-.046-.027ZM16.3,1.129h.106S16.311,1.089,16.3,1.129ZM29.8,1.793h0ZM27.893,1.7h0c-.139.04-.232-.053-.379,0l.073.04c.073.04.053,0,.08,0A.664.664,0,0,0,27.893,1.7Zm3.805.2h-.046s.027.013.027,0Zm-3.54-.193h-.113a.093.093,0,0,0,.093,0Zm.086,0H28.3s-.08-.02-.073.007Zm1.368.046H29.52s.073.04.073.007Zm2.065.12a.392.392,0,0,0,.106-.046h-.126c-.053,0,.007.033,0,.053Zm-3.321-.186H28.3c-.06,0,.013-.007.013.007Zm.3,0h.093c.04,0-.06,0-.08-.04s-.046.04-.053.066Zm2.032.106h0Zm.757,0h-.08a.06.06,0,0,0,.08.046Zm.877,0a.139.139,0,0,0-.053,0s.06.093.053.066Zm-1.687,0Zm.312-.086a.08.08,0,0,0,.086,0c.04,0,.093.04.093.073.086-.053.086.013.086.013s.206,0,.12-.053a.412.412,0,0,0,.12,0s-.066-.053,0-.073h-.219a.445.445,0,0,0-.179-.04s-.093,0-.073.066,0,0,0-.04a2.318,2.318,0,0,0-.305,0s.053,0,.053.046.133,0,.232,0,.013-.013-.013-.013Zm1.328.139h-.093c-.04,0,.06-.013.1-.053ZM28.431,1.64h0s.007-.027.007-.02Zm-.458-.046h0a.71.71,0,0,1-.153-.106c-.04-.046-.06,0-.113,0s.033,0,0,.053a.551.551,0,0,1-.146,0h-.066v.04a.1.1,0,0,1,.046,0h.146a.153.153,0,0,0,.073,0h.073a.59.59,0,0,0,.146-.007Zm2.285.1h-.04c-.04,0,.02-.02.046-.02Zm-8.341-.472h-.106C21.756,1.222,21.916,1.209,21.916,1.222Zm8.507.452s-.04-.033-.04-.06a.345.345,0,0,0,.219,0s0-.04,0-.06a.438.438,0,0,0-.166,0H30.27s-.053,0-.053.04,0-.033-.04,0h0l.053.046a.251.251,0,0,0,.213.033Zm1.707.08a.139.139,0,0,0-.073,0s.093.04.093,0Zm-2.245-.126h0C29.825,1.627,29.845,1.6,29.885,1.627Zm-5.632-.312h.073a.213.213,0,0,1-.046-.066c-.007-.027-.08,0-.113,0h.046s.033.04.007.066Zm.79.046h0Zm4.709.252s-.04,0-.04-.033h0a.1.1,0,0,0,.007.033Zm1.84.093H31.6s-.027-.02-.04,0Zm-3.367-.186h-.007s-.013-.02-.027,0ZM27.2,1.454h-.033Zm4.775.226a.345.345,0,0,0,.2,0h0c-.053,0-.106,0-.106-.046h0a.377.377,0,0,1-.126.046Zm-9.55-.491h.06a.415.415,0,0,1-.093,0Zm2.444.133H24.8c-.066,0,.007-.007.033,0Zm1.029.046h-.086a.126.126,0,0,0,.086,0Zm.292,0h0c-.046,0-.033.007-.013.02Zm-3.7-.219-.033-.04h-.093s-.073-.06-.106,0c.066.02.1.073.219.06Zm3.174.179a.89.89,0,0,0,.139,0s-.159-.007-.153.02Zm2.484.126h-.1a.884.884,0,0,0,.086.02Zm-6.641-.385-.093-.046h0s.02.073.073.066Zm5.718.325h.053c.007,0,0,0,0-.033s-.093,0-.086,0h-.106C27.056,1.361,27.189,1.375,27.229,1.395Zm-5.147-.266h0Zm5.253.272h.093s-.04-.033,0-.06-.046,0-.086,0-.007.033-.007.046Zm-.3,0a.073.073,0,0,1,.053,0,.066.066,0,0,0-.073,0s.02-.04.02-.033Zm1.992.1v-.04c0-.04-.252-.04-.272,0a.279.279,0,0,0,.126,0,.232.232,0,0,0,.179.007Zm-6.794-.385h-.146c-.073,0,.113-.033.179-.033Zm2.7.146h0s-.007-.02.033-.033Zm3.321.179h.066c.007,0,.027-.04-.007-.033ZM20,.983h.06a.193.193,0,0,0-.093,0Zm12.359.664h-.106c-.02,0,.146-.02.166-.046Zm-7.073-.385h-.106c-.033,0,.153-.027.166-.046Zm-.392,0v-.04h0s.06-.04.06-.027Zm4.609.232a.06.06,0,0,0,.053,0h-.046Zm1.375.073h.073a.166.166,0,0,0-.08,0Zm1.242.053h0c-.066,0,.073-.066.06-.066Zm-5.5-.3h0s.04-.06.06-.066Z" transform="translate(0 0.584)" fill="#252a30" fill-rule="evenodd"/>
      <path id="Tracé_408" data-name="Tracé 408" d="M0,0H0Z" transform="translate(17.267 2.072)" fill="#252a30" fill-rule="evenodd"/>
      <path id="Tracé_409" data-name="Tracé 409" d="M2.216.153C2.136.093,1.91.12,1.8.1H1.731A2.205,2.205,0,0,1,1.459.046a1.858,1.858,0,0,0-.545,0H.768a.724.724,0,0,1-.126,0h0a.279.279,0,0,0-.086,0H.6c.06,0,.04,0,0-.046A.664.664,0,0,1,.35,0H.044c-.1,0,0,0,0,.046H.529c.312,0,.664.046,1.009.053a6.21,6.21,0,0,0,.677.053Z" transform="translate(24.256 2.537)" fill="#252a30" fill-rule="evenodd"/>
      <path id="Tracé_410" data-name="Tracé 410" d="M.066.053a.325.325,0,0,1,.139,0h0s-.04,0,0-.053h-.2C-.027,0,.086.027.066.053Z" transform="translate(16.165 2.019)" fill="#252a30" fill-rule="evenodd"/>
      <path id="Tracé_411" data-name="Tracé 411" d="M.128.007c0,.046-.086,0-.12,0s.046,0,.073.04a.179.179,0,0,1,.106,0S.114-.006.187,0,.147,0,.128.007Z" transform="translate(24.252 2.317)" fill="#252a30" fill-rule="evenodd"/>
      <path id="Tracé_412" data-name="Tracé 412" d="M.458.372h0v.04A.465.465,0,0,1,.764.345L.724.305c-.04-.04-.232,0-.206,0-.093,0-.08.04-.173.033H.292c-.013,0,0-.033,0-.04A.146.146,0,0,1,.2.3.179.179,0,0,1,.073.3c-.033,0,0,.04,0,.046S.033.312.02.292.08.292.073.259A.12.12,0,0,1,0,.259H.08c.02,0,.04,0,0-.04A.558.558,0,0,1,.226.166a.432.432,0,0,1,.126,0A.076.076,0,0,0,.438.239c.086,0,0-.04,0-.086V.186a.385.385,0,0,0,.093,0h0L.511.166S.671.166.684.2.624.2.624.2H.711c.013,0,0-.053,0-.08a1.142,1.142,0,0,0,.425,0H1.2l-.02.046s-.06,0-.06-.046,0,0,.04,0H1.029s0-.04-.08,0H.837S.6.033.5.12c0-.033,0,0-.046,0H.4c.066.046.173,0,.252,0H.8C.8.12.8.12.8.066s.08,0,.06.04.086,0,.086,0A.048.048,0,0,1,.9.053C.9,0,1,.1,1.063.093a.228.228,0,0,1,.186.046H1.109a.046.046,0,0,1,0-.04h.073a.206.206,0,0,1,.106,0c-.06,0,0,.053-.046.073s.139,0,.153.066-.046,0-.093,0h0l-.053.04C1.2.319,1.3.365,1.4.345h0l.066.046c.066.046-.086,0-.093.033s.073-.033.126,0h.046c.046,0,.06,0,.073-.04a.193.193,0,0,0,.073,0s.04-.033,0-.04,0,0-.033,0,0,0,0-.04.073,0,.146,0h.106c.053,0,.066,0,.113.06s.1-.06.12-.113-.106,0-.106,0h0c-.073,0-.093-.053-.133-.08h0a.405.405,0,0,0-.219,0c-.12-.04-.239,0-.345-.053a.465.465,0,0,1,.166,0,.046.046,0,0,1,.033,0,.086.086,0,0,0,.066,0A.159.159,0,0,1,1.74.08h0s.073,0,.086-.04.06,0,.066,0h.166c.053,0,.04,0,.033-.04h.093a.151.151,0,0,1,.106.073c.02.033-.093,0-.139,0H2.065c-.04,0,0,.04,0,.046h.027A.23.23,0,0,1,2.218.08c-.04,0,0,.066,0,.08h.106S2.4.159,2.4.12s0,.06.093.066.133-.113,0-.1h.066c.013,0-.08-.046-.033-.066s.033,0,.073,0h0a.06.06,0,0,0,.073,0h.093a.186.186,0,0,1,0,.08h0s.093-.033.106,0S2.8.1,2.8.1a.046.046,0,0,1,0,.06c0,.053.04.066.06.113h-.1V.226c0-.046-.06,0-.073-.033a.106.106,0,0,1-.1,0H2.424c-.053,0,0,.033,0,.04a.311.311,0,0,0,.213.04c.106-.02,0,0,.033,0A.3.3,0,0,0,2.849.239h.286s.08,0,0,.046H3.36c.033,0,.12.066.173.046-.066,0-.073-.033-.12-.04H3.6a2.371,2.371,0,0,0,.392.04H4.3a.053.053,0,0,1,.046,0,.206.206,0,0,1,.06.046c.066,0,.053-.033.106-.033h.432c.086,0,0,0,.04.04a.259.259,0,0,1,.106,0V.345H5.24a.7.7,0,0,1,.053.06.664.664,0,0,1,.252,0s.053.04,0,.053a1.521,1.521,0,0,0,.246,0h0a.272.272,0,0,1-.179,0,.076.076,0,0,0-.06-.066c-.06-.02.086,0,0-.04s.066,0,.106,0,0,.04,0,.053,0,0,.033,0h.053a.8.8,0,0,0,.213,0H5.97a.438.438,0,0,0,.133,0h.159c.033,0,0,.053.093.046a.04.04,0,0,0,0,.046H6.229c-.04,0,.12,0,.1.053H6.156c-.066,0-.08,0-.053-.04H5.745c-.053,0,.053,0,.08-.046a.79.79,0,0,0-.193,0h.033c-.007,0,.159,0,.186.04a2.776,2.776,0,0,0-.345,0,.319.319,0,0,0-.193,0,.963.963,0,0,1-.186,0H4.748a.066.066,0,0,1,.046,0,.9.9,0,0,0-.239.033h0l-.6-.046H3.8A.7.7,0,0,1,3.56.458c-.04-.033,0,0,0,.033a1.919,1.919,0,0,1-.193,0,.558.558,0,0,1,.08-.066c.033-.02,0,0-.053,0h0a.153.153,0,0,0-.073,0c-.053.066,0,.1,0,.173-.08,0-.1-.093-.232-.073h.033a1.255,1.255,0,0,1-.232,0s0-.066-.1-.06h0a.219.219,0,0,0-.1,0H2.477c-.04,0,0-.04,0-.053s-.053,0-.053,0h-.1a2.092,2.092,0,0,1-.664,0h0a3.174,3.174,0,0,0-.352-.04h0a.289.289,0,0,1-.159.04h.086c.033,0,.04.046.066.066s0,0-.06,0-.173,0-.206-.06.046,0,.04,0a.545.545,0,0,0-.2,0,.066.066,0,0,0-.04,0c-.08,0-.159,0-.179.033a.445.445,0,0,0,.166,0,.206.206,0,0,0,.086,0,.048.048,0,0,1,.046.04.558.558,0,0,1-.213,0H.564c-.053,0,0-.04,0-.046S.5.445.491.445H.425A.128.128,0,0,1,.458.372Zm.564,0h.066c.066,0,0,0,0,.033s.04,0,.053,0,0,0,0-.053A.392.392,0,0,0,.9.352h0a.432.432,0,0,0,.126.04ZM2.211.445h0ZM5.459.6a.345.345,0,0,1,.113,0S5.5.6,5.479.564H5.406s0-.06-.04-.08a.6.6,0,0,1-.206,0H5.007V.538H5.1a.392.392,0,0,0,.113,0,.246.246,0,0,0,.139,0,.219.219,0,0,1,0,.04H5.266a.372.372,0,0,0-.086,0h0a.6.6,0,0,0,.219,0c.066.013.013.033.06.046Zm-3.4-.2h0ZM3.752.491h.053a.053.053,0,0,0,0-.046h0a.305.305,0,0,1,.1,0,.153.153,0,0,1,.066,0H3.865a.073.073,0,0,0-.06,0c-.046,0-.066-.053-.126-.06h0a.054.054,0,0,1,.053.06c0,.06-.06,0-.106,0H3.553c-.013,0,0,.046.093.04s0,0,.04,0,.053.007.066.027ZM1.454.359H1.441a.1.1,0,0,0,.013.02Zm.312,0H1.7s.08.033.066.013Zm0,0h-.04l.066.033ZM4.3.485a.2.2,0,0,0,.139,0L4.4.432H4.25c-.04,0,.06.08.073.086ZM.976.272a.246.246,0,0,0-.106,0s.159.073.146.033Zm.1,0h.113a.226.226,0,0,1-.073.013ZM4.782.5h-.12s.126.033.159.013ZM1.886.352a.166.166,0,0,0,.126-.06h-.12a.387.387,0,0,1,.033.073ZM4.137.458h.053s0-.033-.06-.033.06.027.046.046Zm.485,0c.04,0,0,0,0-.04s.04.066.04.08ZM5.95.525h.093s-.066.013-.053.04ZM2.092.312h.033a.166.166,0,0,0-.08,0h.06c.013,0,.02.027.027.04ZM4.748.445c.066,0,0-.04,0-.04h0s.04.073.06.08Zm1.076.04h.033c.113.02.093.053.027.04ZM2.69.305H2.676ZM1.056.213H1c-.053,0,.08.04.113.04ZM1.581.046H1.72c.033,0,.246.046.193,0s-.073,0-.066,0A.538.538,0,0,0,1.627,0,.6.6,0,0,1,1.64.086Z" transform="translate(32.694 2.211)" fill="#252a30" fill-rule="evenodd"/>
      <path id="Tracé_413" data-name="Tracé 413" d="M.1,0h0Z" transform="translate(36.992 2.896)" fill="#252a30" fill-rule="evenodd"/>
      <path id="Tracé_414" data-name="Tracé 414" d="M.062,0H.009S.049.02.062,0Z" transform="translate(35.528 2.736)" fill="#252a30" fill-rule="evenodd"/>
      <path id="Tracé_415" data-name="Tracé 415" d="M.052,0H.012C-.028,0,.045,0,.052,0Z" transform="translate(32.855 2.521)" fill="#252a30" fill-rule="evenodd"/>
      <path id="Tracé_416" data-name="Tracé 416" d="M.286.048H.14V.015c0-.033,0,0-.066,0h0s-.06.04-.073,0,.12.06.2.073h0a.239.239,0,0,1,.153,0A.274.274,0,0,1,.286.048Z" transform="translate(33.929 2.124)" fill="#252a30" fill-rule="evenodd"/>
      <path id="Tracé_417" data-name="Tracé 417" d="M.664.142H.584a.292.292,0,0,0-.159,0C.372.075.193.069.093.062S.033.062,0,.029a.75.75,0,0,1,.279,0H.325a.438.438,0,0,0,.153,0H.445a.664.664,0,0,1,.286,0c.113-.086.113.053.305,0H1.009s-.06,0,0,.04H.8A.133.133,0,0,0,.664.142ZM.352.075Z" transform="translate(15.593 2.063)" fill="#252a30" fill-rule="evenodd"/>
      <path id="Tracé_418" data-name="Tracé 418" d="M.046.084H.279c.053,0-.073,0-.046-.04s-.046,0-.086,0h0a.624.624,0,0,1,.2,0c-.04,0,0,0,0-.04A.332.332,0,0,0,.259,0,1.767,1.767,0,0,0,0,0a.263.263,0,0,1,.146.04c.04.04-.033,0,0,0H.193A.176.176,0,0,0,.046.084Z" transform="translate(17.738 2.14)" fill="#252a30" fill-rule="evenodd"/>
      <path id="Tracé_419" data-name="Tracé 419" d="M.077.04s0-.04-.053,0H.316c.053,0-.08,0-.066.073S.176.033.077.04ZM.2,0Z" transform="translate(23.997 2.504)" fill="#252a30" fill-rule="evenodd"/>
      <path id="Tracé_420" data-name="Tracé 420" d="M.359.083H.406a.065.065,0,0,0-.04-.06H.505C.452-.03.353.024.266.024H.173a.168.168,0,0,0-.106.04.246.246,0,0,0,.1,0C.167.1.061.063.08.11H.127a.12.12,0,0,1-.093,0H.167C.1.11.227.063.167.057s.06,0,.086,0H.346S.366.083.359.083Z" transform="translate(19.982 2.294)" fill="#252a30" fill-rule="evenodd"/>
      <path id="Tracé_421" data-name="Tracé 421" d="M.146.144c.04,0,0-.04.046-.053S.286.091.279.058H.159c-.033,0,0,0,0-.04s-.04,0-.04,0H.146C.2.018.133.117.146.144Z" transform="translate(16.41 2.001)" fill="#252a30" fill-rule="evenodd"/>
      <path id="Tracé_422" data-name="Tracé 422" d="M.2.044A.279.279,0,0,0,0,0,.664.664,0,0,0,.2.044Z" transform="translate(27.262 2.539)" fill="#252a30" fill-rule="evenodd"/>
      <path id="Tracé_423" data-name="Tracé 423" d="M1.249.076a.664.664,0,0,1,.232,0h.08c.08,0,0,0,0,.073s-.046,0-.073,0,0,0,0,.04H1.348V.242c0,.053,0,0-.093,0s0-.06,0-.066H1.063c0,.04-.186,0-.219,0H.877C.843.175.877.129.79.122h0S.684.122.677.175H.744V.208h.266a.1.1,0,0,0-.053,0H.3c.033,0,.093-.046.146,0h0a.279.279,0,0,1,.08,0V.175c0-.033,0,0-.046,0H.425V.268H.146A.394.394,0,0,0,.332.2h0C.385.2.385.2.412.155s.106,0,.073,0A.4.4,0,0,0,.664.2h.12C.79.2.75.2.784.162H.963C1,.162.923.162.91.115S.8.115.731.115c0,0-.06,0-.06-.04s-.126,0-.146,0,0,.04,0,.053,0,0,.053,0S.5.129.491.175A.365.365,0,0,1,.339.1S.405.1.392.042A.618.618,0,0,0,.232.009h0a.339.339,0,0,0,.113,0H.325a.246.246,0,0,1,.133,0H.545c.04,0,.3,0,.359.06s.113,0,.126,0A.736.736,0,0,0,1.255.036c.086-.033,0,0,0,.033s0,0,.053,0,0,0,0,.04l-.3-.046S.916.062.9.1h0A1.78,1.78,0,0,1,1.249.076Zm-.04.133h.06S1.2.188,1.209.208Zm.106,0h.093a.239.239,0,0,0-.126,0h0ZM.591.062H.531a.541.541,0,0,1,.06.007Zm.193,0h.04A.412.412,0,0,0,.7.062S.79.016.784.042ZM1,.062H1S1,.016,1,.036Z" transform="translate(38.957 2.481)" fill="#252a30" fill-rule="evenodd"/>
      <path id="Tracé_424" data-name="Tracé 424" d="M.446.217a.039.039,0,0,1,.04-.04H.446c-.007,0,.04,0,0-.04A.086.086,0,0,1,.5.138C.539.138.539.1.546.085s-.033,0-.053,0S.427.038.42,0A.093.093,0,0,0,.36,0,.1.1,0,0,0,.4.078c0,.033-.179,0-.206,0H.121s0,.046,0,.073-.073,0-.106,0,0,0,0,.046S.141.2.154.138.227.184.247.211a.173.173,0,0,1,.1,0h.04a.086.086,0,0,0,.066,0S.466.217.446.217Z" transform="translate(35.489 2.226)" fill="#252a30" fill-rule="evenodd"/>
      <path id="Tracé_425" data-name="Tracé 425" d="M.3.025s-.06-.04-.093,0,0,0-.046.04,0,0,0-.053A.286.286,0,0,0,0,.011l.033.04c.033.04.113,0,.133,0A.63.63,0,0,1,.3.025Z" transform="translate(33.478 2.127)" fill="#252a30" fill-rule="evenodd"/>
      <path id="Tracé_426" data-name="Tracé 426" d="M.216.04H.15C.19.04.223-.006.269,0s.06.066.053.1A.213.213,0,0,0,.21.1S.243.047.216.04Zm.053,0h0s-.02.027,0,.02Z" transform="translate(38.707 2.397)" fill="#252a30" fill-rule="evenodd"/>
      <path id="Tracé_427" data-name="Tracé 427" d="M0,.018Z" transform="translate(39.734 4.585)" fill="#252a30" fill-rule="evenodd"/>
      <path id="Tracé_428" data-name="Tracé 428" d="M0,.04H0v0Z" transform="translate(39.183 4.715)" fill="#252a30" fill-rule="evenodd"/>
      <path id="Tracé_429" data-name="Tracé 429" d="M.049,0H0S.056.033.049,0Z" transform="translate(38.808 4.855)" fill="#252a30" fill-rule="evenodd"/>
      <path id="Tracé_430" data-name="Tracé 430" d="M.006.046V.013C.006-.021-.007.019.006.046Z" transform="translate(39.057 4.756)" fill="#252a30" fill-rule="evenodd"/>
      <path id="Tracé_431" data-name="Tracé 431" d="M.042,0H.009C-.025,0,.049.046.042,0Z" transform="translate(38.423 4.987)" fill="#252a30" fill-rule="evenodd"/>
      <path id="Tracé_432" data-name="Tracé 432" d="M0,0Z" transform="translate(39.89 4.536)" fill="#252a30" fill-rule="evenodd"/>
      <path id="Tracé_433" data-name="Tracé 433" d="M0,0Z" transform="translate(39.017 4.788)" fill="#252a30" fill-rule="evenodd"/>
      <path id="Tracé_434" data-name="Tracé 434" d="M0,0Z" transform="translate(40.468 4.37)" fill="#252a30" fill-rule="evenodd"/>
      <path id="Tracé_435" data-name="Tracé 435" d="M0,0Z" transform="translate(39.435 4.589)" fill="#252a30" fill-rule="evenodd"/>
      <path id="Tracé_436" data-name="Tracé 436" d="M0,.021H0C0,.067,0,.007,0,.021Z" transform="translate(40.906 4.27)" fill="#252a30" fill-rule="evenodd"/>
      <path id="Tracé_437" data-name="Tracé 437" d="M0,0Z" transform="translate(41.042 4.257)" fill="#252a30" fill-rule="evenodd"/>
      <path id="Tracé_438" data-name="Tracé 438" d="M0,0Z" transform="translate(40.092 4.436)" fill="#252a30" fill-rule="evenodd"/>
      <path id="Tracé_439" data-name="Tracé 439" d="M0,0Z" transform="translate(40.079 4.416)" fill="#252a30" fill-rule="evenodd"/>
      <path id="Tracé_440" data-name="Tracé 440" d="M0,0Z" transform="translate(40.77 4.27)" fill="#252a30" fill-rule="evenodd"/>
      <path id="Tracé_441" data-name="Tracé 441" d="M0,.085V.065Z" transform="translate(41.328 4.072)" fill="#252a30" fill-rule="evenodd"/>
      <path id="Tracé_442" data-name="Tracé 442" d="M0,0Z" transform="translate(40.431 4.284)" fill="#252a30" fill-rule="evenodd"/>
      <path id="Tracé_443" data-name="Tracé 443" d="M0,0Z" transform="translate(41.089 2.676)" fill="#252a30" fill-rule="evenodd"/>
      <path id="Tracé_444" data-name="Tracé 444" d="M0,.04A.04.04,0,0,0,0,0H0Z" transform="translate(40.405 4.25)" fill="#252a30" fill-rule="evenodd"/>
      <path id="Tracé_445" data-name="Tracé 445" d="M0,0Z" transform="translate(41.095 4.164)" fill="#252a30" fill-rule="evenodd"/>
      <path id="Tracé_446" data-name="Tracé 446" d="M0,0Z" transform="translate(41.221 2.876)" fill="#252a30" fill-rule="evenodd"/>
      <path id="Tracé_447" data-name="Tracé 447" d="M0,0Z" transform="translate(40.096 4.337)" fill="#252a30" fill-rule="evenodd"/>
      <path id="Tracé_448" data-name="Tracé 448" d="M0,0Z" transform="translate(41.175 4.148)" fill="#252a30" fill-rule="evenodd"/>
      <path id="Tracé_449" data-name="Tracé 449" d="M0,0Z" transform="translate(41.208 2.842)" fill="#252a30" fill-rule="evenodd"/>
      <path id="Tracé_450" data-name="Tracé 450" d="M0,.046V0H0S0,.046,0,.046Z" transform="translate(41.126 4.104)" fill="#252a30" fill-rule="evenodd"/>
      <path id="Tracé_451" data-name="Tracé 451" d="M0,.1V.03H0a.04.04,0,0,1,0,.04Z" transform="translate(41.175 4.041)" fill="#252a30" fill-rule="evenodd"/>
      <path id="Tracé_452" data-name="Tracé 452" d="M0,0Z" transform="translate(41.354 3.042)" fill="#252a30" fill-rule="evenodd"/>
      <path id="Tracé_453" data-name="Tracé 453" d="M0,0Z" transform="translate(41.275 4.124)" fill="#252a30" fill-rule="evenodd"/>
      <path id="Tracé_454" data-name="Tracé 454" d="M0,0Z" transform="translate(41.444 3.121)" fill="#252a30" fill-rule="evenodd"/>
      <path id="Tracé_455" data-name="Tracé 455" d="M0,.046V0H0A.1.1,0,0,0,0,.046Z" transform="translate(38.15 4.928)" fill="#252a30" fill-rule="evenodd"/>
      <path id="Tracé_456" data-name="Tracé 456" d="M.006.058h0V.018h0S-.007.084.006.058Z" transform="translate(41.242 4.06)" fill="#252a30" fill-rule="evenodd"/>
      <path id="Tracé_457" data-name="Tracé 457" d="M.19.08h0L.615.266,0,.6H0V.564H0V.6c0,.007,0,.04,0,.053H0V.618H0a.046.046,0,0,1,0-.04L.7.332.217,0h0A.359.359,0,0,1,.19.08Z" transform="translate(41.403 3.394)" fill="#252a30" fill-rule="evenodd"/>
      <path id="Tracé_458" data-name="Tracé 458" d="M0,0Z" transform="translate(41.275 2.942)" fill="#252a30" fill-rule="evenodd"/>
      <path id="Tracé_459" data-name="Tracé 459" d="M0,0Z" transform="translate(41.527 3.228)" fill="#252a30" fill-rule="evenodd"/>
      <path id="Tracé_460" data-name="Tracé 460" d="M.053,0A.133.133,0,0,1,0,.053H.04C.08.053.06,0,.053,0Z" transform="translate(41.407 3.161)" fill="#252a30" fill-rule="evenodd"/>
      <path id="Tracé_461" data-name="Tracé 461" d="M0,0Z" transform="translate(41.633 3.357)" fill="#252a30" fill-rule="evenodd"/>
      <path id="Tracé_462" data-name="Tracé 462" d="M.077,0H.024A.138.138,0,0,0,.077,0Z" transform="translate(41.497 3.294)" fill="#252a30" fill-rule="evenodd"/>
      <path id="Tracé_463" data-name="Tracé 463" d="M0,0Z" transform="translate(40.85 2.457)" fill="#252a30" fill-rule="evenodd"/>
      <path id="Tracé_464" data-name="Tracé 464" d="M0,.015Z" transform="translate(40.737 2.363)" fill="#252a30" fill-rule="evenodd"/>
      <path id="Tracé_465" data-name="Tracé 465" d="M.009,0Z" transform="translate(40.728 2.324)" fill="#252a30" fill-rule="evenodd"/>
      <path id="Tracé_466" data-name="Tracé 466" d="M0,.006Z" transform="translate(40.803 2.445)" fill="#252a30" fill-rule="evenodd"/>
      <path id="Tracé_467" data-name="Tracé 467" d="M.073.021A.086.086,0,0,0,0,.021H0a.093.093,0,0,0,.073,0Z" transform="translate(41.54 3.346)" fill="#252a30" fill-rule="evenodd"/>
      <path id="Tracé_468" data-name="Tracé 468" d="M0,0Z" transform="translate(40.438 1.939)" fill="#252a30" fill-rule="evenodd"/>
      <path id="Tracé_469" data-name="Tracé 469" d="M.033,0H0S.033.007.033,0Z" transform="translate(41.321 3.095)" fill="#252a30" fill-rule="evenodd"/>
      <path id="Tracé_470" data-name="Tracé 470" d="M0,0Z" transform="translate(40.564 2.132)" fill="#252a30" fill-rule="evenodd"/>
      <path id="Tracé_471" data-name="Tracé 471" d="M0,0Z" transform="translate(40.577 2.158)" fill="#252a30" fill-rule="evenodd"/>
      <path id="Tracé_472" data-name="Tracé 472" d="M0,0Z" transform="translate(40.544 2.112)" fill="#252a30" fill-rule="evenodd"/>
      <path id="Tracé_473" data-name="Tracé 473" d="M0,.022H0V.069H0Z" transform="translate(41.175 4.029)" fill="#252a30" fill-rule="evenodd"/>
      <path id="Tracé_474" data-name="Tracé 474" d="M0,.081V.015H0V.068C0,.121,0,.081,0,.081Z" transform="translate(41.378 3.97)" fill="#252a30" fill-rule="evenodd"/>
      <path id="Tracé_475" data-name="Tracé 475" d="M0,0Z" transform="translate(38.071 4.925)" fill="#252a30" fill-rule="evenodd"/>
      <path id="Tracé_476" data-name="Tracé 476" d="M0,0Z" transform="translate(41.039 4.071)" fill="#252a30" fill-rule="evenodd"/>
      <path id="Tracé_477" data-name="Tracé 477" d="M0,.009Z" transform="translate(41.175 4.049)" fill="#252a30" fill-rule="evenodd"/>
      <path id="Tracé_478" data-name="Tracé 478" d="M0,0Z" transform="translate(41.487 3.287)" fill="#252a30" fill-rule="evenodd"/>
      <path id="Tracé_479" data-name="Tracé 479" d="M0,0Z" transform="translate(41.079 2.842)" fill="#252a30" fill-rule="evenodd"/>
      <path id="Tracé_480" data-name="Tracé 480" d="M0,0H.033C.066,0,.007.007,0,0Z" transform="translate(41.321 3.141)" fill="#252a30" fill-rule="evenodd"/>
      <path id="Tracé_481" data-name="Tracé 481" d="M0,0Z" transform="translate(40.597 2.251)" fill="#252a30" fill-rule="evenodd"/>
      <path id="Tracé_482" data-name="Tracé 482" d="M.006,0Z" transform="translate(40.598 2.271)" fill="#252a30" fill-rule="evenodd"/>
      <path id="Tracé_483" data-name="Tracé 483" d="M0,0H0V.066A.053.053,0,0,0,0,0Z" transform="translate(40.617 2.338)" fill="#252a30" fill-rule="evenodd"/>
      <path id="Tracé_484" data-name="Tracé 484" d="M0,.033v0Z" transform="translate(41.387 3.958)" fill="#252a30" fill-rule="evenodd"/>
      <path id="Tracé_485" data-name="Tracé 485" d="M0,.018H0C0-.022.007.018,0,.018Z" transform="translate(41.368 3.21)" fill="#252a30" fill-rule="evenodd"/>
      <path id="Tracé_486" data-name="Tracé 486" d="M0,0Z" transform="translate(40.677 2.417)" fill="#252a30" fill-rule="evenodd"/>
      <path id="Tracé_487" data-name="Tracé 487" d="M0,0Z" transform="translate(41.454 3.367)" fill="#252a30" fill-rule="evenodd"/>
      <path id="Tracé_488" data-name="Tracé 488" d="M0,.009Z" transform="translate(41.507 3.445)" fill="#252a30" fill-rule="evenodd"/>
      <path id="Tracé_489" data-name="Tracé 489" d="M0,.006Z" transform="translate(40.378 2.093)" fill="#252a30" fill-rule="evenodd"/>
      <path id="Tracé_490" data-name="Tracé 490" d="M0,.009Z" transform="translate(40.511 2.316)" fill="#252a30" fill-rule="evenodd"/>
      <path id="Tracé_491" data-name="Tracé 491" d="M.015.016c-.033,0,0,.04,0,0S.015.023.015.016Z" transform="translate(40.496 2.275)" fill="#252a30" fill-rule="evenodd"/>
      <path id="Tracé_492" data-name="Tracé 492" d="M0,0H0V0Z" transform="translate(40.471 2.211)" fill="#252a30" fill-rule="evenodd"/>
      <path id="Tracé_493" data-name="Tracé 493" d="M0,0Z" transform="translate(40.428 2.172)" fill="#252a30" fill-rule="evenodd"/>
      <path id="Tracé_494" data-name="Tracé 494" d="M.044.053A.186.186,0,0,0,.044,0H.011C-.022,0,.031.046.044.053Z" transform="translate(40.64 3.971)" fill="#252a30" fill-rule="evenodd"/>
      <path id="Tracé_495" data-name="Tracé 495" d="M0,0H0A.042.042,0,0,0,.053.04C.106.033.007.02,0,0Z" transform="translate(40.664 2.49)" fill="#252a30" fill-rule="evenodd"/>
      <path id="Tracé_496" data-name="Tracé 496" d="M0,0Z" transform="translate(40.71 2.55)" fill="#252a30" fill-rule="evenodd"/>
      <path id="Tracé_497" data-name="Tracé 497" d="M.006,0Z" transform="translate(40.273 2.019)" fill="#252a30" fill-rule="evenodd"/>
      <path id="Tracé_498" data-name="Tracé 498" d="M0,.009Z" transform="translate(40.245 1.983)" fill="#252a30" fill-rule="evenodd"/>
      <path id="Tracé_499" data-name="Tracé 499" d="M0,0Z" transform="translate(40.239 1.969)" fill="#252a30" fill-rule="evenodd"/>
      <path id="Tracé_500" data-name="Tracé 500" d="M.006,0Z" transform="translate(40.319 2.072)" fill="#252a30" fill-rule="evenodd"/>
      <path id="Tracé_501" data-name="Tracé 501" d="M.006,0Z" transform="translate(40.452 2.271)" fill="#252a30" fill-rule="evenodd"/>
      <path id="Tracé_502" data-name="Tracé 502" d="M0,0Z" transform="translate(40.395 2.218)" fill="#252a30" fill-rule="evenodd"/>
      <path id="Tracé_503" data-name="Tracé 503" d="M0,0Z" transform="translate(41.175 3.194)" fill="#252a30" fill-rule="evenodd"/>
      <path id="Tracé_504" data-name="Tracé 504" d="M0,0V.04C0,.08.013.007,0,0Z" transform="translate(40.013 1.773)" fill="#252a30" fill-rule="evenodd"/>
      <path id="Tracé_505" data-name="Tracé 505" d="M0,0Z" transform="translate(39.993 1.713)" fill="#252a30" fill-rule="evenodd"/>
      <path id="Tracé_506" data-name="Tracé 506" d="M0,.019H.06a.033.033,0,0,0-.06,0Z" transform="translate(39.94 1.655)" fill="#252a30" fill-rule="evenodd"/>
      <path id="Tracé_507" data-name="Tracé 507" d="M0,0Z" transform="translate(39.9 1.614)" fill="#252a30" fill-rule="evenodd"/>
      <path id="Tracé_508" data-name="Tracé 508" d="M0,0Z" transform="translate(39.847 1.514)" fill="#252a30" fill-rule="evenodd"/>
      <path id="Tracé_509" data-name="Tracé 509" d="M0,0H0S.033,0,.053.053h0Z" transform="translate(39.74 1.381)" fill="#252a30" fill-rule="evenodd"/>
      <path id="Tracé_510" data-name="Tracé 510" d="M0,0V.04H.04A.053.053,0,0,0,0,0Z" transform="translate(39.701 1.308)" fill="#252a30" fill-rule="evenodd"/>
      <path id="Tracé_511" data-name="Tracé 511" d="M.024,0Z" transform="translate(39.212 0.491)" fill="#252a30" fill-rule="evenodd"/>
      <path id="Tracé_512" data-name="Tracé 512" d="M0,0Z" transform="translate(39.568 1.109)" fill="#252a30" fill-rule="evenodd"/>
      <path id="Tracé_513" data-name="Tracé 513" d="M0,0Z" transform="translate(39.242 0.538)" fill="#252a30" fill-rule="evenodd"/>
      <path id="Tracé_514" data-name="Tracé 514" d="M0,0H.046A.106.106,0,0,0,0,0Z" transform="translate(39.594 1.193)" fill="#252a30" fill-rule="evenodd"/>
      <path id="Tracé_515" data-name="Tracé 515" d="M0,.018H0C0-.022.02.018,0,.018Z" transform="translate(39.574 1.111)" fill="#252a30" fill-rule="evenodd"/>
      <path id="Tracé_516" data-name="Tracé 516" d="M0,0Z" transform="translate(39.369 0.757)" fill="#252a30" fill-rule="evenodd"/>
      <path id="Tracé_517" data-name="Tracé 517" d="M.006,0Z" transform="translate(39.283 0.618)" fill="#252a30" fill-rule="evenodd"/>
      <path id="Tracé_518" data-name="Tracé 518" d="M0,0Z" transform="translate(39.183 0.385)" fill="#252a30" fill-rule="evenodd"/>
      <path id="Tracé_519" data-name="Tracé 519" d="M0,0Z" transform="translate(39.289 0.624)" fill="#252a30" fill-rule="evenodd"/>
      <path id="Tracé_520" data-name="Tracé 520" d="M0,0Z" transform="translate(39.408 0.857)" fill="#252a30" fill-rule="evenodd"/>
      <path id="Tracé_521" data-name="Tracé 521" d="M0,0Z" transform="translate(39.481 0.996)" fill="#252a30" fill-rule="evenodd"/>
      <path id="Tracé_522" data-name="Tracé 522" d="M.006,0Z" transform="translate(39.436 0.916)" fill="#252a30" fill-rule="evenodd"/>
      <path id="Tracé_523" data-name="Tracé 523" d="M0,0Z" transform="translate(39.076 0.279)" fill="#252a30" fill-rule="evenodd"/>
      <path id="Tracé_524" data-name="Tracé 524" d="M0,0Z" transform="translate(39.116 0.345)" fill="#252a30" fill-rule="evenodd"/>
      <path id="Tracé_525" data-name="Tracé 525" d="M0,0Z" transform="translate(39.056 0.219)" fill="#252a30" fill-rule="evenodd"/>
      <path id="Tracé_526" data-name="Tracé 526" d="M.006,0Z" transform="translate(39.031 0.196)" fill="#252a30" fill-rule="evenodd"/>
      <path id="Tracé_527" data-name="Tracé 527" d="M0,0Z" transform="translate(39.003 0.146)" fill="#252a30" fill-rule="evenodd"/>
      <path id="Tracé_528" data-name="Tracé 528" d="M.006,0Z" transform="translate(39.927 1.78)" fill="#252a30" fill-rule="evenodd"/>
      <path id="Tracé_529" data-name="Tracé 529" d="M0,0Z" transform="translate(39.754 1.514)" fill="#252a30" fill-rule="evenodd"/>
      <path id="Tracé_530" data-name="Tracé 530" d="M0,0Z" transform="translate(39.664 1.381)" fill="#252a30" fill-rule="evenodd"/>
      <path id="Tracé_531" data-name="Tracé 531" d="M.012,0Z" transform="translate(39.961 1.866)" fill="#252a30" fill-rule="evenodd"/>
      <path id="Tracé_532" data-name="Tracé 532" d="M0,.009Z" transform="translate(39.355 0.921)" fill="#252a30" fill-rule="evenodd"/>
      <path id="Tracé_533" data-name="Tracé 533" d="M0,0Z" transform="translate(39.342 0.877)" fill="#252a30" fill-rule="evenodd"/>
      <path id="Tracé_534" data-name="Tracé 534" d="M0,.006Z" transform="translate(39.375 0.957)" fill="#252a30" fill-rule="evenodd"/>
      <path id="Tracé_535" data-name="Tracé 535" d="M0,0Z" transform="translate(39.183 0.604)" fill="#252a30" fill-rule="evenodd"/>
      <path id="Tracé_536" data-name="Tracé 536" d="M0,0Z" transform="translate(39.183 0.664)" fill="#252a30" fill-rule="evenodd"/>
      <path id="Tracé_537" data-name="Tracé 537" d="M0,0Z" transform="translate(39.229 0.748)" fill="#252a30" fill-rule="evenodd"/>
      <path id="Tracé_538" data-name="Tracé 538" d="M0,0V.04S.033-.006,0,0Z" transform="translate(39.329 0.949)" fill="#252a30" fill-rule="evenodd"/>
      <path id="Tracé_539" data-name="Tracé 539" d="M0,0Z" transform="translate(39.359 1.016)" fill="#252a30" fill-rule="evenodd"/>
      <path id="Tracé_540" data-name="Tracé 540" d="M0,0Z" transform="translate(38.944 0.246)" fill="#252a30" fill-rule="evenodd"/>
      <path id="Tracé_541" data-name="Tracé 541" d="M0,0Z" transform="translate(39.183 0.741)" fill="#252a30" fill-rule="evenodd"/>
      <path id="Tracé_542" data-name="Tracé 542" d="M0,0Z" transform="translate(39.242 0.877)" fill="#252a30" fill-rule="evenodd"/>
      <path id="Tracé_543" data-name="Tracé 543" d="M0,0Z" transform="translate(38.91 0.259)" fill="#252a30" fill-rule="evenodd"/>
      <path id="Tracé_544" data-name="Tracé 544" d="M.006,0Z" transform="translate(39.422 1.375)" fill="#252a30" fill-rule="evenodd"/>
      <path id="Tracé_545" data-name="Tracé 545" d="M0,.006Z" transform="translate(39.402 1.375)" fill="#252a30" fill-rule="evenodd"/>
      <path id="Tracé_546" data-name="Tracé 546" d="M0,0H0V.046Z" transform="translate(38.711 0.046)" fill="#252a30" fill-rule="evenodd"/>
      <path id="Tracé_547" data-name="Tracé 547" d="M0,0Z" transform="translate(38.682 0)" fill="#252a30" fill-rule="evenodd"/>
      <path id="Tracé_548" data-name="Tracé 548" d="M0,0Z" transform="translate(39.342 1.471)" fill="#252a30" fill-rule="evenodd"/>
      <path id="Tracé_549" data-name="Tracé 549" d="M0,.022H0v.06H0L.033.029C.066-.024.046.009,0,.022Z" transform="translate(38.671 0.23)" fill="#252a30" fill-rule="evenodd"/>
      <path id="Tracé_550" data-name="Tracé 550" d="M.015,0Z" transform="translate(38.617 0.086)" fill="#252a30" fill-rule="evenodd"/>
      <path id="Tracé_551" data-name="Tracé 551" d="M0,.006Z" transform="translate(39.183 1.203)" fill="#252a30" fill-rule="evenodd"/>
      <path id="Tracé_552" data-name="Tracé 552" d="M0,0Z" transform="translate(39.508 1.713)" fill="#252a30" fill-rule="evenodd"/>
      <path id="Tracé_553" data-name="Tracé 553" d="M0,.006Z" transform="translate(38.565 0.047)" fill="#252a30" fill-rule="evenodd"/>
      <path id="Tracé_554" data-name="Tracé 554" d="M0,0Z" transform="translate(38.791 0.505)" fill="#252a30" fill-rule="evenodd"/>
      <path id="Tracé_555" data-name="Tracé 555" d="M0,0H.033C.066,0,0,.007,0,0Z" transform="translate(39.056 0.996)" fill="#252a30" fill-rule="evenodd"/>
      <path id="Tracé_556" data-name="Tracé 556" d="M0,0Z" transform="translate(39.907 2.378)" fill="#252a30" fill-rule="evenodd"/>
      <path id="Tracé_557" data-name="Tracé 557" d="M0,.021Z" transform="translate(39.847 2.357)" fill="#252a30" fill-rule="evenodd"/>
      <path id="Tracé_558" data-name="Tracé 558" d="M.018,0Z" transform="translate(39.271 1.415)" fill="#252a30" fill-rule="evenodd"/>
      <path id="Tracé_559" data-name="Tracé 559" d="M0,0Z" transform="translate(39.691 2.065)" fill="#252a30" fill-rule="evenodd"/>
      <path id="Tracé_560" data-name="Tracé 560" d="M.152.088H.046V.048H.119V.015h0S.139.088.152.088ZM.006.148Z" transform="translate(38.772 0.756)" fill="#252a30" fill-rule="evenodd"/>
      <path id="Tracé_561" data-name="Tracé 561" d="M0,0Z" transform="translate(38.884 0.777)" fill="#252a30" fill-rule="evenodd"/>
      <path id="Tracé_562" data-name="Tracé 562" d="M0,0Z" transform="translate(38.851 0.704)" fill="#252a30" fill-rule="evenodd"/>
      <path id="Tracé_563" data-name="Tracé 563" d="M.009,0Z" transform="translate(39.234 1.408)" fill="#252a30" fill-rule="evenodd"/>
      <path id="Tracé_564" data-name="Tracé 564" d="M0,0Z" transform="translate(38.851 0.761)" fill="#252a30" fill-rule="evenodd"/>
      <path id="Tracé_565" data-name="Tracé 565" d="M.156.086h0s-.066,0,0-.06-.04,0,0,0H.117a.071.071,0,0,1-.04.06c-.04.02,0,0-.053,0h.06c.06,0,0,0,0-.04s.04,0,0,0H.13c.007,0,0,0,0,.033H.21S.13.1.156.086Z" transform="translate(38.694 0.677)" fill="#252a30" fill-rule="evenodd"/>
      <path id="Tracé_566" data-name="Tracé 566" d="M.046.006A.046.046,0,0,0,0,.006.052.052,0,0,0,.046.006Z" transform="translate(39.083 1.236)" fill="#252a30" fill-rule="evenodd"/>
      <path id="Tracé_567" data-name="Tracé 567" d="M0,0Z" transform="translate(38.631 0.312)" fill="#252a30" fill-rule="evenodd"/>
      <path id="Tracé_568" data-name="Tracé 568" d="M0,0Z" transform="translate(38.831 0.711)" fill="#252a30" fill-rule="evenodd"/>
      <path id="Tracé_569" data-name="Tracé 569" d="M0,0Z" transform="translate(38.917 0.93)" fill="#252a30" fill-rule="evenodd"/>
      <path id="Tracé_570" data-name="Tracé 570" d="M.136.121V.048H.089c0,.04,0,0,0-.033H.049c-.04,0-.073.02-.027.02s0,.046.04.046h.02c.027,0,0,0,0,.053s0,0,.06,0H.189s0-.033,0-.046S.175.114.136.121Z" transform="translate(38.496 0.351)" fill="#252a30" fill-rule="evenodd"/>
      <path id="Tracé_571" data-name="Tracé 571" d="M0,0Z" transform="translate(38.711 0.558)" fill="#252a30" fill-rule="evenodd"/>
      <path id="Tracé_572" data-name="Tracé 572" d="M0,0V.04H0A.076.076,0,0,0,0,0Z" transform="translate(39.588 2.165)" fill="#252a30" fill-rule="evenodd"/>
      <path id="Tracé_573" data-name="Tracé 573" d="M.006,0Z" transform="translate(39.582 2.205)" fill="#252a30" fill-rule="evenodd"/>
      <path id="Tracé_574" data-name="Tracé 574" d="M0,0Z" transform="translate(38.711 0.757)" fill="#252a30" fill-rule="evenodd"/>
      <path id="Tracé_575" data-name="Tracé 575" d="M0,0Z" transform="translate(38.631 0.618)" fill="#252a30" fill-rule="evenodd"/>
      <path id="Tracé_576" data-name="Tracé 576" d="M.066,0,0,.033H.06A.288.288,0,0,0,.066,0Z" transform="translate(39.415 2.085)" fill="#252a30" fill-rule="evenodd"/>
      <path id="Tracé_577" data-name="Tracé 577" d="M0,0Z" transform="translate(38.678 0.724)" fill="#252a30" fill-rule="evenodd"/>
      <path id="Tracé_578" data-name="Tracé 578" d="M0,0Z" transform="translate(38.917 1.182)" fill="#252a30" fill-rule="evenodd"/>
      <path id="Tracé_579" data-name="Tracé 579" d="M.058,0H.018A.076.076,0,0,0,.058,0Z" transform="translate(38.693 0.87)" fill="#252a30" fill-rule="evenodd"/>
      <path id="Tracé_580" data-name="Tracé 580" d="M.046,0H.04C.08,0,.053.007.046,0Z" transform="translate(38.671 0.83)" fill="#252a30" fill-rule="evenodd"/>
      <path id="Tracé_581" data-name="Tracé 581" d="M.04,0h0L0,.04H0Z" transform="translate(39.269 1.853)" fill="#252a30" fill-rule="evenodd"/>
      <path id="Tracé_582" data-name="Tracé 582" d="M0,0Z" transform="translate(38.834 1.049)" fill="#252a30" fill-rule="evenodd"/>
      <path id="Tracé_583" data-name="Tracé 583" d="M.04,0H0S.033.007.04,0Z" transform="translate(39.508 2.225)" fill="#252a30" fill-rule="evenodd"/>
      <path id="Tracé_584" data-name="Tracé 584" d="M.015.009H.068C.088.009.055-.011.015.009Z" transform="translate(38.63 0.808)" fill="#252a30" fill-rule="evenodd"/>
      <path id="Tracé_585" data-name="Tracé 585" d="M0,.024Z" transform="translate(39.183 1.743)" fill="#252a30" fill-rule="evenodd"/>
      <path id="Tracé_586" data-name="Tracé 586" d="M0,0Z" transform="translate(38.648 0.777)" fill="#252a30" fill-rule="evenodd"/>
      <path id="Tracé_587" data-name="Tracé 587" d="M.006,0Z" transform="translate(38.619 0.757)" fill="#252a30" fill-rule="evenodd"/>
      <path id="Tracé_588" data-name="Tracé 588" d="M.04,0H0C.007,0,.027.007.04,0Z" transform="translate(38.684 0.95)" fill="#252a30" fill-rule="evenodd"/>
      <path id="Tracé_589" data-name="Tracé 589" d="M1.9,3s0,.04,0,.06H1.829c-.027,0,0,.033,0,.046h0V3.057h0c0,.033,0,0,0-.053s0,.066,0,.08H1.65v-.02h0v.08h0s-.04-.053-.053,0h0l-.04-.04c-.04-.04,0,.033,0,.053s0,0-.06,0h0a.06.06,0,0,1,0,.053H1.464a.312.312,0,0,0,0,.06h0s0,.04-.046,0h0l-.033-.046c-.033-.046-.04.066-.08.086a.206.206,0,0,0,0,.053L1.232,3.29s-.04,0,0,.066-.053,0-.086,0H1.092v.053h0L.72,3.376h0V3.329h0v.04c-.04,0-.04.073-.086.053s0,0,0,.04h0V3.409c0-.02-.073,0-.053.053s0,0-.053-.033l-.046-.08h0v-.04h0a.146.146,0,0,0,0,.066H.395c-.027,0,0,0-.053-.04s0,0-.04-.033,0,0-.04,0H.222A.139.139,0,0,1,.1,3.25c0-.04,0-.066,0-.12h0a.426.426,0,0,0,0-.046C.043,3.037.1,2.958.03,2.9s0-.033,0-.06.046-.033.086,0,0,0,0-.033h0A.347.347,0,0,0,.2,2.725h0s0-.06.04-.04h0a.08.08,0,0,1,.033.033h0s.066,0,.08-.04h0s0-.046.066,0H.468c.013,0,0-.046.06,0A.79.79,0,0,1,.66,2.625H.846c.046,0,0-.046,0-.033s.113-.04.139-.093.06-.04.1,0h0s.093,0,.12-.04.086,0,.126,0h0s.06-.06.1,0h.053s.06-.033.086,0,0,0,.046-.04h.239a.445.445,0,0,1,.133,0c0-.053.046,0,.066,0h0l.252-.08h.246a.307.307,0,0,0,.166-.046c.053-.046.046,0,.066,0h.173a.053.053,0,0,1,.053,0h0V2.24c0-.013.113,0,.166,0h.08l-.292.8h0V3h0a.578.578,0,0,1-.159-.153V2.8c0-.04-.04,0,0,0h0v-.04c0-.04-.053.046-.046,0h0v-.04h0V2.692l-.046.033V2.679h-.06c.02,0,0-.066-.066-.053s0,0,0-.04h-.08c-.033,0,0-.086.046-.133h0v.04H2.507l-.033-.046H2.42c-.053,0,0-.033,0-.04h0V2.373h0a.129.129,0,0,0-.06-.1c-.06-.04-.04,0,0-.033s-.06,0-.08-.046a.093.093,0,0,0,0-.04h-.04c-.04,0,0,0,0-.046h0a.106.106,0,0,1-.06-.046h0c-.04,0-.04-.04-.06-.06h0s0-.066-.08-.046,0-.046-.046-.053,0-.06,0-.073H2s-.033,0,0-.066H2v-.04H2v-.04H2s.04-.04,0-.053H2s-.073,0-.046.04,0,0-.04.046h0V1.662h0v-.04c0-.04-.033,0-.04,0H1.823a.046.046,0,0,1,0-.04h0v-.04H1.776s0-.066,0-.093h0c.033,0,.053,0,.033-.04h0a.106.106,0,0,1,.053-.04h0a.046.046,0,0,0,.06.046h0c.046,0,0,.04,0,.066h0c0,.04.04.046.046.086a.08.08,0,0,0,0-.053H1.916v-.08c0-.04,0-.04-.06,0H1.823a.838.838,0,0,1,.086-.06H1.862a1.1,1.1,0,0,1-.086.093h0c0-.046-.033,0-.046.046h0a.066.066,0,0,0-.06,0V1.45H1.637v.04h.046c.007,0-.08.053-.08,0h0a.039.039,0,0,0,.04-.046H1.69c.046,0,.053,0,.046-.046H1.63c-.046,0,0,0,0-.04a.04.04,0,0,0-.046,0h.033a.053.053,0,0,0,0-.046c.04,0,.066-.046,0-.046s0,.033-.06.04-.06,0,0,0-.04,0-.046-.033a.073.073,0,0,1,.066,0s.046-.06,0-.046H1.491s-.08,0-.073-.04h.046s-.053,0-.046-.08.093-.046.12-.04h0v.093h0s.04-.053.033-.073,0,0-.033,0H1.431c-.04,0-.046-.04-.066-.066S1.4.978,1.431.965h0a.07.07,0,0,1-.046.06H1.57c.027,0,0,.04,0,.046v.046c0,.046.04,0,.046,0h.007a.046.046,0,0,0,.033,0H1.584c-.04,0,0,0,.04-.04h0a.106.106,0,0,0,.053-.033s0,0,0-.046.046,0,.046,0h.046v.04c0,.04-.033,0-.04,0h0c-.04.033,0,.046,0,.06h.04V1.065c0-.033.06-.04.073-.06h0s-.046.086,0,.066H1.9s.046,0,0,.053h0c-.04,0-.12.066-.113.093s0,0-.053,0l-.106.04V1.3h0a.126.126,0,0,0,.066,0s0-.033,0-.033v-.04c0-.04,0,0,.033,0h.06a.059.059,0,0,1,.06-.06c.06,0,0,0,0,.04s.04,0,.066,0h0l.04.046c.04.046,0,0,0,.04H1.862s.06,0,.073-.04h0s0-.04.066-.053,0,0,.033,0a9.839,9.839,0,0,0,.013-.99H2.015s0,.04.046,0,0,0-.033,0h.04c-.033.04,0,.046-.033.1h.053s0,.04.06.04h0c.046,0,.04.053.086.073h0A.093.093,0,0,1,2.268.48h0a.04.04,0,0,0,.046,0H2.261c-.053,0,0-.046,0-.04H2.228V.4c0-.04,0,0,.046,0h0a.586.586,0,0,1,.113.153h0A1.241,1.241,0,0,0,2.52.746v.08h0l.193.053h0a.272.272,0,0,1,.08.126h0c-.04,0,0-.033-.06,0h0a.073.073,0,0,0,0,.053h-.04a.4.4,0,0,0,.08,0h0a.159.159,0,0,1-.04-.053h0s.053.04.033.08h0a.064.064,0,0,1-.04.053h0v.033c0,.033,0,0,.033,0h0a.039.039,0,0,1,.04.046h0V1.164h0s0-.053-.04,0H2.726a.086.086,0,0,1,.033-.04s0,.04.06.053,0,.053,0,.06V1.2c0-.04.053,0,.053.066V1.3h0a.058.058,0,0,1,.06.066h0s-.046-.06-.066-.08a.06.06,0,0,0,0-.04h.066s.06.06.086.08,0,0-.033,0h0v.033h0a.23.23,0,0,0,.08.06h0V1.45h0v.04h0v.04s0,.046.073,0,0,0,0-.033h0V1.463h0a.551.551,0,0,1,.08.106H3.184a.048.048,0,0,1-.053.046c-.053,0,0,0,0,.04a.046.046,0,0,0,0-.04h.046l.252-.073h0l.053-.04h0s.04.066,0,.1h0l-.04.04h0v.033H3.49s-.113-.027-.113-.013v.066c0,.02.04,0,.04,0H3.45a.074.074,0,0,1,.073.08h0v-.04h0v.046h0l.04-.033h0a.126.126,0,0,0-.046.04h0v.033H3.483a1.092,1.092,0,0,0,.106.086h.04L3.7,1.868h-.04c-.04,0,0,.04,0,.04v.046l-.1.4v-.04H3.4v.06c0,.06,0,0,.04,0V2.44h0a.3.3,0,0,1,0-.053L3.41,2.333h0v.053h0v-.04h0a.073.073,0,0,0,0,.04.112.112,0,0,0-.04-.08c-.04-.033,0,.04,0,.04v-.04c0-.007-.04,0,0,.053h0c0-.04,0-.073-.053-.073s0,.04,0,.04v.066c0,.027-.046,0-.046.053h0a.058.058,0,0,1,.053.046h0a.1.1,0,0,1-.08.066v.086h0a.073.073,0,0,1,0-.066h0v.046h0v.033h0v.033h0s-.046-.046-.053,0h0a.372.372,0,0,1,0-.046h0V2.612a.088.088,0,0,0-.046-.093h0V2.473c0-.007,0,0-.04-.053h0a.093.093,0,0,0,0-.04H3a.106.106,0,0,0,0,.046H3v.04H3a.093.093,0,0,0,0-.04H3V2.38a.1.1,0,0,0,0,.073H3s0,.033.04,0,0,0,0,.046,0,.046.04.033V2.506h0s0,.033,0,.04h0V2.513h.033V2.479h0c0-.033,0,0,0,.06h0v.066c0,.033-.046-.04-.06,0s0,0,0,.04h0V2.559h0s0-.053.04,0-.04-.04-.046,0-.046,0-.066,0,0,.033,0,.06h.04s0-.04-.053-.033h0v.04c0,.04,0,0-.046,0H2.832v-.06a.073.073,0,0,0,0,.033h0a.153.153,0,0,1,0-.046h0a.04.04,0,0,1,0,.033h0v.1h0V2.639c0-.007-.04-.066,0,0h0v.033h0s-.053,0-.033.08-.04,0-.053,0h0l-.04-.046a.106.106,0,0,0,0,.066h0s-.033-.073-.046-.046h0V2.679h0v.033a.226.226,0,0,1,0-.066c0-.033,0,.06-.053,0s0,0,0,.066h0v.046a.345.345,0,0,1,0,.073h0l-.432.04s-.093,0-.126.046.046,0,.066,0,0,.033,0,.033v.073h0l-.04-.04h0v-.06h0v.04h0V2.911h0a.046.046,0,0,1,0,.033s0-.033,0-.033S1.889,2.944,1.9,3Zm.724-.379h0a.058.058,0,0,0-.04-.053H2.507a.04.04,0,0,1,.04,0,.062.062,0,0,0-.06.06c-.007.06,0-.046,0-.046h0v.093c0,.046.046,0,.04-.046s.046.04.073,0h0S2.626,2.665,2.62,2.619Zm.365-1.461h-.04C2.905,1.158,2.972,1.164,2.985,1.158ZM1.7,3.09Zm.053,0h0c0,.033-.007-.013,0-.013Zm0,0Zm-.073,0v-.06h0Zm.159-.06h0s-.007-.02,0-.02Zm-.452.106Zm.06,0h0s.013-.033.013-.027Zm-.213.033s0-.04-.04,0,0,0,0,.053Zm0,0h0s.033.007.027-.013Zm1.169-.3Zm-.724.106h0v.04C1.677,3.057,1.7,3.017,1.677,2.977ZM.421,3.462ZM.787,3.29ZM2.4,2.772Zm-.352.1Zm.3-.12h0c-.007.053.007.033,0-.007Zm-.77.239ZM2.1,2.831Zm.664-.146v0h0s.013.007.02,0Zm.219-.046c.027-.08-.007-.053.02,0Zm.246-1.368h0s.007.013.02,0ZM2.135,2.8v0ZM3.377,1.43ZM2.048,2.8V2.752h0a.06.06,0,0,0,0,.053S2,2.738,1.975,2.8s0,0,0,.04v.033a.073.073,0,0,0,.06-.04S2.048,2.871,2.048,2.8ZM3.49,1.543a.04.04,0,0,0,0,.033S3.509,1.543,3.49,1.543ZM1.743,2.871Zm.564-.12a.153.153,0,0,1,0-.08V2.619c0-.053,0,0-.046,0a.457.457,0,0,0,0,.053c0,.04-.033,0-.046,0h-.06V2.665c0-.04.04.06.046.093a.073.073,0,0,0,.106-.013Zm.611-.292s0,.08,0,.1h0v.033a.153.153,0,0,1,0-.046h0s.046,0,.053-.04,0,.04.046,0H2.985c-.033,0,0-.04,0,0h0V2.5c0-.02,0,0,0,.046h0V2.493c0-.053,0,.033-.04,0h-.04s0-.033.013-.04Zm-1.136.412a.126.126,0,0,0,0-.046h0S1.769,2.871,1.783,2.871ZM2.1,2.692h0v.093c0,.04,0-.053,0-.086Zm-.219.139h0v.007Zm-.06,0V2.785c0-.046-.013.086,0,.086Zm.81-.286h0a.14.14,0,0,1,0,.04s-.007-.02,0-.02Zm0,.053v.053a.664.664,0,0,1,0-.113h0v.046c0,.007-.02-.007,0,.033Zm.518-1.255h.033c.033,0,0-.046,0-.06h-.04v.04H3.1V1.37c0,.046,0,0,.04,0s.02-.013.013-.007Zm-.8,1.328h0s-.007.046,0,.033ZM1.5,2.931Zm.564-.159h0s0-.033-.046,0h0s.027-.013.027,0ZM3.377,1.543ZM2.161,2.705h0v.04C2.161,2.785,2.175,2.752,2.161,2.705Zm.246,0v-.04h0s-.013.02,0,.013Zm-.8.126a.146.146,0,0,0,0,.053V2.851c0-.033.007-.053,0-.046Zm1.8-1.288h0s-.033.046-.033,0h0V1.6h0a.126.126,0,0,1,0-.053ZM1.524,2.871a.086.086,0,0,0,0-.033h0a.287.287,0,0,1,0,.033Zm.252-.08ZM3.144,1.284c-.06,0,0-.053-.08,0H3.1s.033.02.04.013Zm.133.179h0s-.013.027,0,.013Zm-.086-.1h0s-.02.027,0,.013Zm.113.179h-.04v.046h0Zm0,0h.013ZM2.38,2.619Zm-.06,0h0v.007Zm.9-1.182Zm-.153-.173h0s-.02.027,0,.007ZM2.487,2.546h0s.007.027,0,.007ZM2.746.879Zm.412.551Zm-.5-.591h0V.892S2.713.826,2.653.839Zm.438.531Zm.146.173Zm0,0h.007ZM3,1.271l-.053.04h0S3,1.3,3.011,1.284ZM2.713.965h0V.879h0Zm.352.432h0v.04Zm-.133-.153v.007c0-.046.02-.033-.007-.007Zm-.073-.133H2.825Zm.452.558Zm-.219-.246ZM2.427.573h0s-.007.013.007,0Zm.711.93Zm-.272-.286h0s.02-.007.007,0Zm-.06-.086ZM2.646.939h0s.013.007.007,0Zm.066.073Zm.086.153ZM2.082.294ZM1.975.215V.261C1.975.268,2,.215,1.975.215Zm.073.12h0c-.04,0-.046.046,0,.04S2.048.348,2.048.334ZM1.955.215c-.046,0-.06.053-.04.06S1.982.215,1.955.215Zm1.2,1.574ZM2.009.294h0ZM1.876.115h0c-.04,0-.053.04,0,.04Zm0,.053ZM3.124,2.161h0s.027-.02.027.007ZM2.048.394Zm.213.345h0c.053,0,0,.066.046.066h0a.484.484,0,0,0-.06-.066ZM1.816.075Zm.405.611h0s.007.007-.013.007Zm0,0h0S2.181.693,2.2.68ZM2.048.46ZM1.823.1h-.06s.007.007.027,0ZM2.208.68h0a.04.04,0,0,1-.033,0h0ZM2.168.626ZM1.916.274h0s-.053.02-.033,0ZM1.823.148a.046.046,0,0,0-.033,0ZM1.7.009h0s-.007-.02-.033,0ZM1.9.3Zm-.12,0h-.04c-.04,0,0,0,.046-.053s.033-.04.04-.053,0,0-.06,0H1.73c-.033,0,0,.04-.06.046h.053c.053,0,0,0,0,.053s.033,0,.066,0h0a.058.058,0,0,0,.04.053h0V.308C1.829.268,1.736.3,1.743.3ZM1.683.029h.033a.221.221,0,0,1-.066,0Zm.438.664Zm.046.086h0s-.086.1-.12.1h0l.04-.04h.033s.02-.046.013-.046ZM1.869.4h0a.171.171,0,0,1-.033.013ZM2.925,1.8h0s-.033.02-.033.013ZM1.809.387l-.046.04c-.046.04,0-.046,0-.046h.053S1.829.394,1.809.387ZM1.6.089h0s.02-.013,0,0ZM1.862.5Zm.7.963h0s0,.033-.046.046h0A.14.14,0,0,1,2.566,1.463ZM2.46,1.33Zm-.584-.8h0s.007.007,0,0ZM1.657.215Zm.392.6h0V.8Zm.12.179v.033c0,.033.007-.04,0-.046ZM1.577.175s0-.04,0-.053h0v.04h0ZM2.786,1.8h0V1.782ZM2.46,1.39h0V1.377Zm-.146-.166h0s.007-.02,0-.013Zm0-.053h0s-.04-.007-.033-.013Zm.478.624h0v.033c0-.007,0-.046-.033-.046Zm-.418-.531h0s-.053.007-.033-.013ZM2.048.832Zm.857,1.122a.06.06,0,0,0,0,.046h0a.381.381,0,0,0-.027-.046Zm-.79-.943h.007S2.1,1.025,2.115,1.012Zm.664.857ZM2.115.992h0a.226.226,0,0,1-.066.027h0Zm0,.06ZM1.856.706h0s0,.06.053.033h0A.453.453,0,0,0,1.862.706Zm.857,1.156h0v0Zm-.359-.445ZM1.929.846h.013Zm1.1,1.361h0V2.24ZM1.431.128Zm.857,1.249Zm.053.066ZM1.75.653ZM1.59.407ZM1.431.215Zm.664.97h0s.007-.02-.007-.02Z" transform="translate(37.798 1.499)" fill="#252a30" fill-rule="evenodd"/>
      <path id="Tracé_590" data-name="Tracé 590" d="M0,0Z" transform="translate(41.175 3.958)" fill="#252a30" fill-rule="evenodd"/>
      <path id="Tracé_591" data-name="Tracé 591" d="M.108,0c-.033.046,0,.06,0,.086h0a.226.226,0,0,1,0,.066c.046,0,0,.086.073.086H.148c-.033,0,0,0,.033.04H.214c-.04,0-.04-.06-.08-.066h0C.088.166.055.1.009.053S.121.033.108,0Z" transform="translate(40.489 2.178)" fill="#252a30" fill-rule="evenodd"/>
      <path id="Tracé_592" data-name="Tracé 592" d="M0,.046H0A.08.08,0,0,1,0,0V.013H0Z" transform="translate(40.992 3.998)" fill="#252a30" fill-rule="evenodd"/>
      <path id="Tracé_593" data-name="Tracé 593" d="M0,.045H.04c.04,0,0,0,0-.033H.007C.007-.028,0,.045,0,.045Z" transform="translate(40.657 2.625)" fill="#252a30" fill-rule="evenodd"/>
      <path id="Tracé_594" data-name="Tracé 594" d="M.722.963H.655s.053,0,0,.046.046,0,.046,0H.775a.046.046,0,0,0-.046,0H.7V.976h0S.755.936.742.923L.669.97h0V.923h0a.066.066,0,0,0-.046,0,.071.071,0,0,0-.06.04C.542,1,.562.89.509.89h0L.476.923H.509V.99h0s-.04,0,0-.053H.429s0-.04,0-.046,0,0,0-.053H.5c.02,0,0-.04.04-.06h.04S.642.724.615.717h0A.035.035,0,0,0,.649.677.04.04,0,0,0,.7.677s-.04,0,0,0H.416V.631H.343S.31.671.29.691s0,0,.033,0,0,.046,0,.046v.08c0,.046-.033,0,0,0h-.1V.777c0-.04,0,0-.046,0L.217.724H.244A.126.126,0,0,0,.31.691H.263C.217.691.31.657.31.644S.19.644.224.7h0S.19.737.164.737H.257A.564.564,0,0,0,.35.671H.356c-.04,0,0-.046,0-.053H.3c-.053,0,0,0,0-.06s0,0,.04,0h0S.39.511.343.511s0,0,0,.04H.3C.3.511.3.5.3.465H.27L.3.432C.336.4.263.432.257.432h0A.2.2,0,0,0,.19.379h0L.237.345A.04.04,0,0,1,.2.305H.244c.046,0,0,0-.033-.04h0a.146.146,0,0,0-.046.04.04.04,0,0,0-.04,0H.17V.266H.1S.144.232.131.226H.177V.186c0-.04,0,.053.06.08h0C.2.266.237.232.177.232h0s0,.033.06.04H.19a.06.06,0,0,0,.046,0h.04s0-.033,0-.053,0,.046.06.053h0v.04h0v.04H.3s0,.04.04,0h0a.159.159,0,0,0,.066,0h0a.445.445,0,0,1,.04.113V.5h0S.5.5.449.558h0V.6A.113.113,0,0,1,.376.6h0A1.682,1.682,0,0,0,.522.511s-.066.06,0,.066h0V.624c0,.007-.06,0-.04.046h0A.106.106,0,0,1,.6.7h0S.6.744.6.77h.06L.7.724h0s0,.04,0,.06h0V.83h0s0,.033.053,0H.8S.748.956.722.963ZM.655.863H.576s0,.04.046,0h0S.662.877.655.863ZM.536.651ZM.2.06h0L.144.1V.146H.151A.035.035,0,0,0,.111.113C.071.113.2.04.2.04ZM.529.724h0V.7ZM.35.418H.31V.465h0A.073.073,0,0,1,.35.425h0V.392h0S.336.4.35.385ZM.576.843ZM.522.8h0S.542.75.522.764Zm0,0ZM.257.339h0ZM.562.956h0S.609.89.582.91Zm-.033,0h0S.562.9.549.91ZM.184.292h0S.217.213.2.213ZM.476.823a.08.08,0,0,0-.066,0h.04ZM.237.412h0s0-.073.02-.08ZM.19.325H.151C.111.325.2.252.21.246ZM.064.08h0A.12.12,0,0,1,.084,0ZM.449.7ZM.17.213H.137s.033.02.04.013ZM.058.04h0Zm.3.591Zm.166.3h0V.923ZM.3.93H.263c-.033,0,0-.06-.04,0h0s0,.046,0,.06Z" transform="translate(38.733 0.345)" fill="#252a30" fill-rule="evenodd"/>
      <path id="Tracé_595" data-name="Tracé 595" d="M0,0Z" transform="translate(39.143 0.545)" fill="#252a30" fill-rule="evenodd"/>
      <path id="Tracé_596" data-name="Tracé 596" d="M0,0Z" transform="translate(39.222 0.854)" fill="#252a30" fill-rule="evenodd"/>
      <path id="Tracé_597" data-name="Tracé 597" d="M0,0Z" transform="translate(39.445 1.375)" fill="#252a30" fill-rule="evenodd"/>
      <path id="Tracé_598" data-name="Tracé 598" d="M.048.073H.015C-.025.073.048.02.048,0h0a.471.471,0,0,0,0,.073Z" transform="translate(38.889 1.282)" fill="#252a30" fill-rule="evenodd"/>
      <path id="Tracé_599" data-name="Tracé 599" d="M.082.116a.086.086,0,0,1,0-.033h0S.029.03.009.037h0a.04.04,0,0,1,.06,0H.155c0-.1,0,.04.06,0h0V.083c0,.046,0,0-.04,0s0,0,0,.033S.089.11.082.116ZM.009.076Z" transform="translate(40.94 4.054)" fill="#252a30" fill-rule="evenodd"/>
      <path id="Tracé_600" data-name="Tracé 600" d="M0,.1.04.057H.073c.033,0,0,0,0-.04s0,0,0,.033S.033.05.02.05H.053c.033,0,0,0,0,.033h0S.007.083,0,.1Z" transform="translate(41.314 3.975)" fill="#252a30" fill-rule="evenodd"/>
      <path id="Tracé_601" data-name="Tracé 601" d="M.053.088h0s-.033,0,0-.04,0,0,.066-.04S.027.082.053.088ZM0,.088H0S.007.1,0,.1Z" transform="translate(40.83 2.482)" fill="#252a30" fill-rule="evenodd"/>
      <path id="Tracé_602" data-name="Tracé 602" d="M.09,0h0S.057.033.057.046H.017c-.04,0,0,0,.033.04H.11S.083.007.09,0Z" transform="translate(41.304 3.115)" fill="#252a30" fill-rule="evenodd"/>
      <path id="Tracé_603" data-name="Tracé 603" d="M0,.148v-.1H0V.015H0v.08H0A.123.123,0,0,0,0,.148Z" transform="translate(41.066 3.943)" fill="#252a30" fill-rule="evenodd"/>
      <path id="Tracé_604" data-name="Tracé 604" d="M0,0V.053A.123.123,0,0,0,0,0Z" transform="translate(40.351 2.112)" fill="#252a30" fill-rule="evenodd"/>
      <path id="Tracé_605" data-name="Tracé 605" d="M.055.133V.086H.227V.046h0s0-.04,0-.046h0S.314.12.34.159s0,0-.04,0H.181a.126.126,0,0,1,0,.06H.048a.046.046,0,0,0,0-.053H.114c.053,0,.06.086.06.106s0,0-.06,0,0,.033,0,.04h0c0-.04-.033-.06,0-.093H.055V.173H.1S.048.146.055.133ZM.181.08h0S.174.093.174.08Zm0,0Zm0,.186Zm-.053,0h0S.068.239.094.226Zm-.04,0h0S.041.206.055.193Z" transform="translate(38.344 0.053)" fill="#252a30" fill-rule="evenodd"/>
      <path id="Tracé_606" data-name="Tracé 606" d="M.166.007H.053L0,.107H0L.053.067s.04,0,0,.04h0L.12.067h.04a.08.08,0,0,0-.066,0L.133.021h0S.166,0,.166.007Z" transform="translate(38.751 0.942)" fill="#252a30" fill-rule="evenodd"/>
      <path id="Tracé_607" data-name="Tracé 607" d="M.017,0h.04S.03.013.017,0Z" transform="translate(38.974 1.434)" fill="#252a30" fill-rule="evenodd"/>
      <path id="Tracé_608" data-name="Tracé 608" d="M.053.092h0V.059c0-.033-.053,0-.053,0A.525.525,0,0,1,.073.006h0S.053.086.053.092Zm0,0h0l.04-.02Z" transform="translate(38.426 0.366)" fill="#252a30" fill-rule="evenodd"/>
    </g>
  </g>
</svg>
