<svg xmlns="http://www.w3.org/2000/svg" width="41.994" height="10.066" viewBox="0 0 41.994 10.066">
  <g id="Calque_2" data-name="Calque 2" transform="translate(0.844 -2.232) rotate(11)">
    <g id="OBJECTS" transform="translate(0 0)">
      <path id="Tracé_245" data-name="Tracé 245" d="M.063.014H.1s0,.04-.073,0S.076.034.063.014Z" transform="translate(9.361 2.995)" fill="#252a30" fill-rule="evenodd"/>
      <path id="Tracé_246" data-name="Tracé 246" d="M0,0Z" transform="translate(6.641 3.162)" fill="#252a30" fill-rule="evenodd"/>
      <path id="Tracé_247" data-name="Tracé 247" d="M.261.018H.148C.195.018.234-.022.261.018Z" transform="translate(4.501 3.277)" fill="#252a30" fill-rule="evenodd"/>
      <path id="Tracé_248" data-name="Tracé 248" d="M0,0H.066C.06,0,0,.027,0,0Z" transform="translate(5.844 3.208)" fill="#252a30" fill-rule="evenodd"/>
      <path id="Tracé_249" data-name="Tracé 249" d="M.126,0a.226.226,0,0,0-.12.033C-.033.071.126-.022.126,0Z" transform="translate(2.531 3.409)" fill="#252a30" fill-rule="evenodd"/>
      <path id="Tracé_250" data-name="Tracé 250" d="M.018,0Z" transform="translate(10.283 2.986)" fill="#252a30" fill-rule="evenodd"/>
      <path id="Tracé_251" data-name="Tracé 251" d="M0,0H.066A.113.113,0,0,1,0,0Z" transform="translate(5.645 3.248)" fill="#252a30" fill-rule="evenodd"/>
      <path id="Tracé_252" data-name="Tracé 252" d="M0,.006a.139.139,0,0,1,.08,0H.035C-.012.006,0,.026,0,.006Z" transform="translate(13.34 2.844)" fill="#252a30" fill-rule="evenodd"/>
      <path id="Tracé_253" data-name="Tracé 253" d="M.1.031H.02C-.053,0,.1-.022.1.031Z" transform="translate(7.87 3.151)" fill="#252a30" fill-rule="evenodd"/>
      <path id="Tracé_254" data-name="Tracé 254" d="M.06.02C.1.02-.006.073,0,.02S.053.04.06.02Z" transform="translate(15.547 2.717)" fill="#252a30" fill-rule="evenodd"/>
      <path id="Tracé_255" data-name="Tracé 255" d="M0,0H.053Z" transform="translate(16.304 2.71)" fill="#252a30" fill-rule="evenodd"/>
      <path id="Tracé_256" data-name="Tracé 256" d="M0,0H0Z" transform="translate(11.39 2.976)" fill="#252a30" fill-rule="evenodd"/>
      <path id="Tracé_257" data-name="Tracé 257" d="M.061,0h0Z" transform="translate(11.288 3.003)" fill="#252a30" fill-rule="evenodd"/>
      <path id="Tracé_258" data-name="Tracé 258" d="M.073,0A.093.093,0,0,1,0,0H0C.027.017.053-.009.073,0Z" transform="translate(14.856 2.813)" fill="#252a30" fill-rule="evenodd"/>
      <path id="Tracé_259" data-name="Tracé 259" d="M.02,0C.086,0,.1,0,.1.053H0Z" transform="translate(17.772 2.697)" fill="#252a30" fill-rule="evenodd"/>
      <path id="Tracé_260" data-name="Tracé 260" d="M.053,0H0A.132.132,0,0,1,.053,0Z" transform="translate(13.183 2.953)" fill="#252a30" fill-rule="evenodd"/>
      <path id="Tracé_261" data-name="Tracé 261" d="M.032,0A.618.618,0,0,0,.278,0S.218,0,.211.033s-.073,0-.166,0S.032.013.032,0Z" transform="translate(22.96 2.431)" fill="#252a30" fill-rule="evenodd"/>
      <path id="Tracé_262" data-name="Tracé 262" d="M.053,0H0S.053.013.053,0Z" transform="translate(13.063 2.963)" fill="#252a30" fill-rule="evenodd"/>
      <path id="Tracé_263" data-name="Tracé 263" d="M.02,0H0Z" transform="translate(16.616 2.783)" fill="#252a30" fill-rule="evenodd"/>
      <path id="Tracé_264" data-name="Tracé 264" d="M.067.006H0C-.006.006.06-.007.067.006Z" transform="translate(21.749 2.518)" fill="#252a30" fill-rule="evenodd"/>
      <path id="Tracé_265" data-name="Tracé 265" d="M.053,0Z" transform="translate(11.489 3.062)" fill="#252a30" fill-rule="evenodd"/>
      <path id="Tracé_266" data-name="Tracé 266" d="M0,0Z" transform="translate(16.961 2.77)" fill="#252a30" fill-rule="evenodd"/>
      <path id="Tracé_267" data-name="Tracé 267" d="M.093.005H0a.213.213,0,0,1,.093,0Z" transform="translate(21.889 2.499)" fill="#252a30" fill-rule="evenodd"/>
      <path id="Tracé_268" data-name="Tracé 268" d="M.093,0A.173.173,0,0,1,0,.053H0S.053,0,.093,0Z" transform="translate(16.722 2.783)" fill="#252a30" fill-rule="evenodd"/>
      <path id="Tracé_269" data-name="Tracé 269" d="M.17,0S.057,0,.077.08H.024A1.328,1.328,0,0,1,.17,0Z" transform="translate(17.004 2.763)" fill="#252a30" fill-rule="evenodd"/>
      <path id="Tracé_270" data-name="Tracé 270" d="M.135.01h0A.232.232,0,0,0,0,.01C-.017,0,.082.016.135.01Z" transform="translate(20.698 2.561)" fill="#252a30" fill-rule="evenodd"/>
      <path id="Tracé_271" data-name="Tracé 271" d="M.06,0H0Z" transform="translate(17.499 2.744)" fill="#252a30" fill-rule="evenodd"/>
      <path id="Tracé_272" data-name="Tracé 272" d="M.027,0Z" transform="translate(20.123 2.631)" fill="#252a30" fill-rule="evenodd"/>
      <path id="Tracé_273" data-name="Tracé 273" d="M.02,0C.066,0,.133,0,.1.04a.379.379,0,0,1-.1,0S.033.013.02,0Z" transform="translate(1.222 3.627)" fill="#252a30" fill-rule="evenodd"/>
      <path id="Tracé_274" data-name="Tracé 274" d="M.1.006H.014C-.026.026.027-.014.1.006Z" transform="translate(17.333 2.758)" fill="#252a30" fill-rule="evenodd"/>
      <path id="Tracé_275" data-name="Tracé 275" d="M.259.06H.086s0-.04,0-.06A.2.2,0,0,1,0,0H0A.213.213,0,0,0,.126,0l.04.04a.086.086,0,0,1-.08,0H.252C.232.033.286.033.259.06Z" transform="translate(18.13 2.77)" fill="#252a30" fill-rule="evenodd"/>
      <path id="Tracé_276" data-name="Tracé 276" d="M.087,0H.007C-.026,0,.061.007.087,0Z" transform="translate(21.304 2.544)" fill="#252a30" fill-rule="evenodd"/>
      <path id="Tracé_277" data-name="Tracé 277" d="M.007,0H.053A.08.08,0,0,1,0,0S.013.033.007,0Z" transform="translate(19.492 2.631)" fill="#252a30" fill-rule="evenodd"/>
      <path id="Tracé_278" data-name="Tracé 278" d="M.193,0c-.04,0-.066.046,0,.08s-.04,0-.08,0H.12c.04,0,0,0,0-.053A.292.292,0,0,1,.193,0Z" transform="translate(19.784 2.631)" fill="#252a30" fill-rule="evenodd"/>
      <path id="Tracé_279" data-name="Tracé 279" d="M.06.011H0A.046.046,0,0,1,.06.011Z" transform="translate(18.595 2.699)" fill="#252a30" fill-rule="evenodd"/>
      <path id="Tracé_280" data-name="Tracé 280" d="M.033,0h.06A.06.06,0,0,1,.159.06C.166.12.073.06,0,.06A.383.383,0,0,0,.033,0Z" transform="translate(19.08 2.684)" fill="#252a30" fill-rule="evenodd"/>
      <path id="Tracé_281" data-name="Tracé 281" d="M.083,0H0A.241.241,0,0,0,.083,0Z" transform="translate(24.522 2.392)" fill="#252a30" fill-rule="evenodd"/>
      <path id="Tracé_282" data-name="Tracé 282" d="M.093.009A.219.219,0,0,0,0,.009S.086-.011.093.009Z" transform="translate(25.25 2.369)" fill="#252a30" fill-rule="evenodd"/>
      <path id="Tracé_283" data-name="Tracé 283" d="M0,0H.067C.133,0-.006.02,0,0Z" transform="translate(25.488 2.352)" fill="#252a30" fill-rule="evenodd"/>
      <path id="Tracé_284" data-name="Tracé 284" d="M.093.012A.425.425,0,0,1,0,.012S.093-.015.093.012Z" transform="translate(24.692 2.4)" fill="#252a30" fill-rule="evenodd"/>
      <path id="Tracé_285" data-name="Tracé 285" d="M.046,0C.12,0,.2,0,.219.053a.3.3,0,0,1,.186,0H.325A.79.79,0,0,1,.08.013H0S.06.027.046,0Z" transform="translate(18.655 2.73)" fill="#252a30" fill-rule="evenodd"/>
      <path id="Tracé_286" data-name="Tracé 286" d="M.084,0H0A.3.3,0,0,0,.084,0Z" transform="translate(27.809 2.232)" fill="#252a30" fill-rule="evenodd"/>
      <path id="Tracé_287" data-name="Tracé 287" d="M.091,0V.04H.024C-.042.04.044,0,.091,0Z" transform="translate(20.497 2.631)" fill="#252a30" fill-rule="evenodd"/>
      <path id="Tracé_288" data-name="Tracé 288" d="M.093,0h0Z" transform="translate(26.671 2.305)" fill="#252a30" fill-rule="evenodd"/>
      <path id="Tracé_289" data-name="Tracé 289" d="M.093,0A.173.173,0,0,1,0,0H.093Z" transform="translate(26.538 2.318)" fill="#252a30" fill-rule="evenodd"/>
      <path id="Tracé_290" data-name="Tracé 290" d="M0,0H0Z" transform="translate(26.916 2.305)" fill="#252a30" fill-rule="evenodd"/>
      <path id="Tracé_291" data-name="Tracé 291" d="M.371.018s0,.033-.06.04S.132.011.172.058.119.058.1.018s-.04,0-.086,0H.371Z" transform="translate(16.637 2.845)" fill="#252a30" fill-rule="evenodd"/>
      <path id="Tracé_292" data-name="Tracé 292" d="M.06.034H.106c.046,0-.04,0-.046.04a.086.086,0,0,0-.06,0c.06,0,0,0,0-.053S.027.034.06.034Z" transform="translate(18.064 2.743)" fill="#252a30" fill-rule="evenodd"/>
      <path id="Tracé_293" data-name="Tracé 293" d="M.1,0H0A.19.19,0,0,0,.1,0Z" transform="translate(0.885 3.713)" fill="#252a30" fill-rule="evenodd"/>
      <path id="Tracé_294" data-name="Tracé 294" d="M.093,0A.173.173,0,0,1,0,0,.375.375,0,0,1,.093,0Z" transform="translate(16.337 2.887)" fill="#252a30" fill-rule="evenodd"/>
      <path id="Tracé_295" data-name="Tracé 295" d="M.013,0H.106A.213.213,0,0,1,0,0S.02.013.013,0Z" transform="translate(17.187 2.843)" fill="#252a30" fill-rule="evenodd"/>
      <path id="Tracé_296" data-name="Tracé 296" d="M.013,0H0S.013.013.013,0Z" transform="translate(19.405 2.724)" fill="#252a30" fill-rule="evenodd"/>
      <path id="Tracé_297" data-name="Tracé 297" d="M.13,0h0V.053a.04.04,0,0,0-.053,0H0C-.023.053.11.007.13,0Z" transform="translate(22.277 2.577)" fill="#252a30" fill-rule="evenodd"/>
      <path id="Tracé_298" data-name="Tracé 298" d="M.1,0,.068.036C.035.069.068,0,.015,0S.068,0,.1,0Z" transform="translate(20.394 2.694)" fill="#252a30" fill-rule="evenodd"/>
      <path id="Tracé_299" data-name="Tracé 299" d="M.073,0A.1.1,0,0,1,0,0,.209.209,0,0,0,.073,0Z" transform="translate(26.12 2.385)" fill="#252a30" fill-rule="evenodd"/>
      <path id="Tracé_300" data-name="Tracé 300" d="M.08,0H0S.053.02.08,0Z" transform="translate(26.013 2.392)" fill="#252a30" fill-rule="evenodd"/>
      <path id="Tracé_301" data-name="Tracé 301" d="M.465.025h-.1A1.162,1.162,0,0,1,0,.025,1.1,1.1,0,0,1,.465.025Z" transform="translate(25.329 2.413)" fill="#252a30" fill-rule="evenodd"/>
      <path id="Tracé_302" data-name="Tracé 302" d="M0,0Z" transform="translate(18.177 2.837)" fill="#252a30" fill-rule="evenodd"/>
      <path id="Tracé_303" data-name="Tracé 303" d="M.061.019s-.073.04-.06,0S.028.013.061.019Z" transform="translate(19.968 2.724)" fill="#252a30" fill-rule="evenodd"/>
      <path id="Tracé_304" data-name="Tracé 304" d="M.066.007H0A.086.086,0,0,1,.066.007Z" transform="translate(25.243 2.458)" fill="#252a30" fill-rule="evenodd"/>
      <path id="Tracé_305" data-name="Tracé 305" d="M.146,0S.1,0,.106.04.053.04,0,.04L.04,0A.538.538,0,0,0,.146,0Z" transform="translate(19.113 2.817)" fill="#252a30" fill-rule="evenodd"/>
      <path id="Tracé_306" data-name="Tracé 306" d="M.086.009A.126.126,0,0,0,0,.009S.1-.011.086.009Z" transform="translate(18.675 2.854)" fill="#252a30" fill-rule="evenodd"/>
      <path id="Tracé_307" data-name="Tracé 307" d="M.087.009H0C-.006.009.1-.011.087.009Z" transform="translate(27.361 2.389)" fill="#252a30" fill-rule="evenodd"/>
      <path id="Tracé_308" data-name="Tracé 308" d="M.173.018a.345.345,0,0,0-.12,0H0S.153-.022.173.018Z" transform="translate(25.94 2.467)" fill="#252a30" fill-rule="evenodd"/>
      <path id="Tracé_309" data-name="Tracé 309" d="M.126,0c0,.04-.133.04-.126,0A.724.724,0,0,1,.126,0Z" transform="translate(26.153 2.455)" fill="#252a30" fill-rule="evenodd"/>
      <path id="Tracé_310" data-name="Tracé 310" d="M.379.011H.305A1.182,1.182,0,0,1,0,.011a1.654,1.654,0,0,1,.379,0Z" transform="translate(26.339 2.421)" fill="#252a30" fill-rule="evenodd"/>
      <path id="Tracé_311" data-name="Tracé 311" d="M0,0H.1A.173.173,0,0,1,0,0Z" transform="translate(27.003 2.418)" fill="#252a30" fill-rule="evenodd"/>
      <path id="Tracé_312" data-name="Tracé 312" d="M.213,0a.053.053,0,0,1,0,.053H0A.527.527,0,0,1,.213,0Z" transform="translate(14.504 3.082)" fill="#252a30" fill-rule="evenodd"/>
      <path id="Tracé_313" data-name="Tracé 313" d="M.305.01h0A1.567,1.567,0,0,1,0,.01,1.142,1.142,0,0,1,.305.01Z" transform="translate(24.751 2.521)" fill="#252a30" fill-rule="evenodd"/>
      <path id="Tracé_314" data-name="Tracé 314" d="M.09,0H.01C-.03,0,.057.007.09,0Z" transform="translate(24.608 2.551)" fill="#252a30" fill-rule="evenodd"/>
      <path id="Tracé_315" data-name="Tracé 315" d="M0,0H.086C.113,0,.013.013,0,0Z" transform="translate(28.059 2.398)" fill="#252a30" fill-rule="evenodd"/>
      <path id="Tracé_316" data-name="Tracé 316" d="M.106.012A.558.558,0,0,1,0,.012S.106-.015.106.012Z" transform="translate(28.145 2.386)" fill="#252a30" fill-rule="evenodd"/>
      <path id="Tracé_317" data-name="Tracé 317" d="M.06.009H0S.06-.011.06.009Z" transform="translate(28.291 2.383)" fill="#252a30" fill-rule="evenodd"/>
      <path id="Tracé_318" data-name="Tracé 318" d="M.005,0H.059S-.021.027.005,0Z" transform="translate(27.708 2.411)" fill="#252a30" fill-rule="evenodd"/>
      <path id="Tracé_319" data-name="Tracé 319" d="M.023,0H0C-.01,0,.023.013.023,0Z" transform="translate(26.541 2.485)" fill="#252a30" fill-rule="evenodd"/>
      <path id="Tracé_320" data-name="Tracé 320" d="M0,.005a.452.452,0,0,1,.139,0A.325.325,0,0,1,0,.005Z" transform="translate(26.91 2.479)" fill="#252a30" fill-rule="evenodd"/>
      <path id="Tracé_321" data-name="Tracé 321" d="M0,0h.04S-.011.02,0,0Z" transform="translate(20.785 2.823)" fill="#252a30" fill-rule="evenodd"/>
      <path id="Tracé_322" data-name="Tracé 322" d="M.186.009c0,.033-.153,0-.186,0A.478.478,0,0,1,.186.009Z" transform="translate(29.593 2.376)" fill="#252a30" fill-rule="evenodd"/>
      <path id="Tracé_323" data-name="Tracé 323" d="M.053,0H0Z" transform="translate(29.938 2.372)" fill="#252a30" fill-rule="evenodd"/>
      <path id="Tracé_324" data-name="Tracé 324" d="M.179.027c0,.033-.06,0-.093.04H.04A.1.1,0,0,0,0,0,.7.7,0,0,1,.179.027Z" transform="translate(30.224 2.332)" fill="#252a30" fill-rule="evenodd"/>
      <path id="Tracé_325" data-name="Tracé 325" d="M.073,0Z" transform="translate(30.656 2.338)" fill="#252a30" fill-rule="evenodd"/>
      <path id="Tracé_326" data-name="Tracé 326" d="M.2.015H.159a.139.139,0,0,0-.126,0H0a.943.943,0,0,1,.2,0Z" transform="translate(31.147 2.303)" fill="#252a30" fill-rule="evenodd"/>
      <path id="Tracé_327" data-name="Tracé 327" d="M.405.014H.359A3.228,3.228,0,0,1,0,.014H.08a.923.923,0,0,1,.325,0Z" transform="translate(31.731 2.264)" fill="#252a30" fill-rule="evenodd"/>
      <path id="Tracé_328" data-name="Tracé 328" d="M.153,0A.2.2,0,0,1,.06.046H0A.6.6,0,0,1,.153,0Z" transform="translate(32.389 2.252)" fill="#252a30" fill-rule="evenodd"/>
      <path id="Tracé_329" data-name="Tracé 329" d="M0,0H.066C.133,0,0,.033,0,0Z" transform="translate(37.117 2)" fill="#252a30" fill-rule="evenodd"/>
      <path id="Tracé_330" data-name="Tracé 330" d="M.089,0H0A.345.345,0,0,1,.089,0Z" transform="translate(33.621 2.196)" fill="#252a30" fill-rule="evenodd"/>
      <path id="Tracé_331" data-name="Tracé 331" d="M.093.012H0A.093.093,0,0,1,.093.012Z" transform="translate(36.792 2.02)" fill="#252a30" fill-rule="evenodd"/>
      <path id="Tracé_332" data-name="Tracé 332" d="M.193,0H0A1.784,1.784,0,0,1,.193,0Z" transform="translate(33.066 2.236)" fill="#252a30" fill-rule="evenodd"/>
      <path id="Tracé_333" data-name="Tracé 333" d="M.159,0A.166.166,0,0,1,0,0C.06.023.106-.01.159,0Z" transform="translate(33.445 2.202)" fill="#252a30" fill-rule="evenodd"/>
      <path id="Tracé_334" data-name="Tracé 334" d="M.08,0A.052.052,0,0,0,.033.04C.02.08.033.04,0,.04A.126.126,0,0,1,.08,0Z" transform="translate(35.583 2.093)" fill="#252a30" fill-rule="evenodd"/>
      <path id="Tracé_335" data-name="Tracé 335" d="M0,0H.073S0,.02,0,0Z" transform="translate(36.453 2.046)" fill="#252a30" fill-rule="evenodd"/>
      <path id="Tracé_336" data-name="Tracé 336" d="M.073.018H0C.007.018.073-.022.073.018Z" transform="translate(37.542 1.989)" fill="#252a30" fill-rule="evenodd"/>
      <path id="Tracé_337" data-name="Tracé 337" d="M0,0V.033H0Z" transform="translate(36.433 2.053)" fill="#252a30" fill-rule="evenodd"/>
      <path id="Tracé_338" data-name="Tracé 338" d="M.007,0H.02C-.02,0,.013.007.007,0Z" transform="translate(35.131 2.133)" fill="#252a30" fill-rule="evenodd"/>
      <path id="Tracé_339" data-name="Tracé 339" d="M0,0H.046C.04,0,0,.013,0,0Z" transform="translate(34.381 2.179)" fill="#252a30" fill-rule="evenodd"/>
      <path id="Tracé_340" data-name="Tracé 340" d="M0,0H.073S0,.013,0,0Z" transform="translate(34.813 2.152)" fill="#252a30" fill-rule="evenodd"/>
      <path id="Tracé_341" data-name="Tracé 341" d="M.068,0h0Z" transform="translate(38.338 1.967)" fill="#252a30" fill-rule="evenodd"/>
      <path id="Tracé_342" data-name="Tracé 342" d="M.115,0c0,.033-.066,0-.106,0Z" transform="translate(37.899 2)" fill="#252a30" fill-rule="evenodd"/>
      <path id="Tracé_343" data-name="Tracé 343" d="M.011,0H.064a.06.06,0,0,0-.04,0Z" transform="translate(38.687 1.963)" fill="#252a30" fill-rule="evenodd"/>
      <path id="Tracé_344" data-name="Tracé 344" d="M0,0H.139A.312.312,0,0,1,0,0Z" transform="translate(38.824 1.967)" fill="#252a30" fill-rule="evenodd"/>
      <path id="Tracé_345" data-name="Tracé 345" d="M.073,0A.1.1,0,0,1,0,0Z" transform="translate(39.05 1.967)" fill="#252a30" fill-rule="evenodd"/>
      <path id="Tracé_346" data-name="Tracé 346" d="M0,0H.047S-.006.02,0,0Z" transform="translate(29.971 2.445)" fill="#252a30" fill-rule="evenodd"/>
      <path id="Tracé_347" data-name="Tracé 347" d="M.1,0H.024C-.049,0,.064.007.1,0Z" transform="translate(31.422 2.365)" fill="#252a30" fill-rule="evenodd"/>
      <path id="Tracé_348" data-name="Tracé 348" d="M.071,0H0C-.015,0,.031.007.071,0Z" transform="translate(32.251 2.332)" fill="#252a30" fill-rule="evenodd"/>
      <path id="Tracé_349" data-name="Tracé 349" d="M.04.008H.093A.146.146,0,0,0,0,.008S.06.041.04.008Z" transform="translate(29.473 2.477)" fill="#252a30" fill-rule="evenodd"/>
      <path id="Tracé_350" data-name="Tracé 350" d="M.12.015H0S.113-.018.12.015Z" transform="translate(34.859 2.211)" fill="#252a30" fill-rule="evenodd"/>
      <path id="Tracé_351" data-name="Tracé 351" d="M.06,0H0A.093.093,0,0,1,.06,0Z" transform="translate(35.138 2.187)" fill="#252a30" fill-rule="evenodd"/>
      <path id="Tracé_352" data-name="Tracé 352" d="M.086.012H0S.1-.015.086.012Z" transform="translate(34.68 2.22)" fill="#252a30" fill-rule="evenodd"/>
      <path id="Tracé_353" data-name="Tracé 353" d="M.02,0A.159.159,0,0,0,.1,0H0Z" transform="translate(36.732 2.126)" fill="#252a30" fill-rule="evenodd"/>
      <path id="Tracé_354" data-name="Tracé 354" d="M.069,0H.016C-.037,0,.056,0,.069,0Z" transform="translate(36.404 2.15)" fill="#252a30" fill-rule="evenodd"/>
      <path id="Tracé_355" data-name="Tracé 355" d="M.06,0H0A.093.093,0,0,1,.06,0Z" transform="translate(35.968 2.181)" fill="#252a30" fill-rule="evenodd"/>
      <path id="Tracé_356" data-name="Tracé 356" d="M.206.009A.432.432,0,0,1,0,.009C.046.023.159-.017.206.009Z" transform="translate(34.726 2.249)" fill="#252a30" fill-rule="evenodd"/>
      <path id="Tracé_357" data-name="Tracé 357" d="M.126,0A.319.319,0,0,1,0,0,.372.372,0,0,0,.126,0Z" transform="translate(34.454 2.279)" fill="#252a30" fill-rule="evenodd"/>
      <path id="Tracé_358" data-name="Tracé 358" d="M.086,0h0A.365.365,0,0,1,0,0Z" transform="translate(38.744 2.066)" fill="#252a30" fill-rule="evenodd"/>
      <path id="Tracé_359" data-name="Tracé 359" d="M.053.009H0S.06-.011.053.009Z" transform="translate(36.134 2.23)" fill="#252a30" fill-rule="evenodd"/>
      <path id="Tracé_360" data-name="Tracé 360" d="M.08,0h0Z" transform="translate(35.383 2.272)" fill="#252a30" fill-rule="evenodd"/>
      <path id="Tracé_361" data-name="Tracé 361" d="M.06,0h0Z" transform="translate(38.771 2.099)" fill="#252a30" fill-rule="evenodd"/>
      <path id="Tracé_362" data-name="Tracé 362" d="M0,0H.053Z" transform="translate(32.96 2.498)" fill="#252a30" fill-rule="evenodd"/>
      <path id="Tracé_363" data-name="Tracé 363" d="M.053.006H0S.053-.007.053.006Z" transform="translate(32.953 2.512)" fill="#252a30" fill-rule="evenodd"/>
      <path id="Tracé_364" data-name="Tracé 364" d="M.014,0A1.209,1.209,0,0,1,.233,0H.028C-.026,0,.014.018.014,0Z" transform="translate(40.151 2.114)" fill="#252a30" fill-rule="evenodd"/>
      <path id="Tracé_365" data-name="Tracé 365" d="M.006,0Z" transform="translate(40.412 2.106)" fill="#252a30" fill-rule="evenodd"/>
      <path id="Tracé_366" data-name="Tracé 366" d="M.033,0Z" transform="translate(32.727 2.631)" fill="#252a30" fill-rule="evenodd"/>
      <path id="Tracé_367" data-name="Tracé 367" d="M.359.083H.352a.086.086,0,0,0-.073,0H0c.073,0,.146,0,.159-.06S.332.03.359.083Z" transform="translate(39.01 2.202)" fill="#252a30" fill-rule="evenodd"/>
      <path id="Tracé_368" data-name="Tracé 368" d="M.113.005H0A.312.312,0,0,1,.113.005Z" transform="translate(40.046 2.207)" fill="#252a30" fill-rule="evenodd"/>
      <path id="Tracé_369" data-name="Tracé 369" d="M.06.012H.013C-.033.012.06-.015.06.012Z" transform="translate(34.182 2.546)" fill="#252a30" fill-rule="evenodd"/>
      <path id="Tracé_370" data-name="Tracé 370" d="M0,0H0Z" transform="translate(31.32 2.704)" fill="#252a30" fill-rule="evenodd"/>
      <path id="Tracé_371" data-name="Tracé 371" d="M.129.021H0C-.023.008.123-.019.129.021Z" transform="translate(40.308 2.218)" fill="#252a30" fill-rule="evenodd"/>
      <path id="Tracé_372" data-name="Tracé 372" d="M.093.012H0a.093.093,0,0,1,.093,0Z" transform="translate(37.961 2.346)" fill="#252a30" fill-rule="evenodd"/>
      <path id="Tracé_373" data-name="Tracé 373" d="M.06,0h0Z" transform="translate(35.364 2.498)" fill="#252a30" fill-rule="evenodd"/>
      <path id="Tracé_374" data-name="Tracé 374" d="M0,0Z" transform="translate(27.833 2.91)" fill="#252a30" fill-rule="evenodd"/>
      <path id="Tracé_375" data-name="Tracé 375" d="M.073.012H0S.08-.015.073.012Z" transform="translate(27.853 2.918)" fill="#252a30" fill-rule="evenodd"/>
      <path id="Tracé_376" data-name="Tracé 376" d="M.015,0c-.04,0,.033,0,0,.04h0Z" transform="translate(33.124 2.631)" fill="#252a30" fill-rule="evenodd"/>
      <path id="Tracé_377" data-name="Tracé 377" d="M0,0Z" transform="translate(29.504 2.83)" fill="#252a30" fill-rule="evenodd"/>
      <path id="Tracé_378" data-name="Tracé 378" d="M.272,0H.027c-.06,0,0,0,0,.046a.206.206,0,0,0,.126,0,.06.06,0,0,0,.053,0A.126.126,0,0,0,.3.1.159.159,0,0,1,.2.1v.04c0,.04-.08,0-.08.04a.252.252,0,0,1,.139,0s-.033,0,0,0H.465V.139h0a.252.252,0,0,1,.126,0c0-.033-.046,0-.093,0s0,0,0-.033a.259.259,0,0,1-.106,0V.073C.392.04.305.007.272,0Zm.1.153H.319A.2.2,0,0,1,.372.139Z" transform="translate(36.061 2.491)" fill="#252a30" fill-rule="evenodd"/>
      <path id="Tracé_379" data-name="Tracé 379" d="M.071,0H.018C-.035,0,.044,0,.071,0Z" transform="translate(36.641 2.468)" fill="#252a30" fill-rule="evenodd"/>
      <path id="Tracé_380" data-name="Tracé 380" d="M.018,0Z" transform="translate(37.08 2.445)" fill="#252a30" fill-rule="evenodd"/>
      <path id="Tracé_381" data-name="Tracé 381" d="M0,0H.054S-.006.046,0,0Z" transform="translate(33.278 2.631)" fill="#252a30" fill-rule="evenodd"/>
      <path id="Tracé_382" data-name="Tracé 382" d="M0,.006H.054C.107.006-.012-.007,0,.006Z" transform="translate(36.837 2.479)" fill="#252a30" fill-rule="evenodd"/>
      <path id="Tracé_383" data-name="Tracé 383" d="M.185.04a.525.525,0,0,0,.166,0h0C.424.04.656.073.61,0H.869c.027,0,0,0,0,.046H.922s.06,0,.073-.04a.146.146,0,0,0,.093,0s0,0,0,.04A.359.359,0,0,0,.922.113c.04,0,.12,0,.139.04s-.04,0-.04,0H.789C.756.153.922.153.915.12a.4.4,0,0,0-.133,0h0L.736.159c-.046.04,0,0-.046,0S.69.2.61.2.57.159.51.159s-.086,0-.06.046-.06,0-.053,0H.344c-.053,0,0,0,0-.033H.238A.073.073,0,0,0,.172.139L.112.173c-.06.033-.046,0-.093,0h.06a.04.04,0,0,1,0-.04S.2.073.185.04Z" transform="translate(36.653 2.445)" fill="#252a30" fill-rule="evenodd"/>
      <path id="Tracé_384" data-name="Tracé 384" d="M0,0S.1,0,.066.04A.066.066,0,0,1,0,0Z" transform="translate(34.215 2.631)" fill="#252a30" fill-rule="evenodd"/>
      <path id="Tracé_385" data-name="Tracé 385" d="M.026,0a.472.472,0,0,0,.1,0H.019C-.027,0,.026.007.026,0Z" transform="translate(39.157 2.352)" fill="#252a30" fill-rule="evenodd"/>
      <path id="Tracé_386" data-name="Tracé 386" d="M0,0H.027Z" transform="translate(37.111 2.465)" fill="#252a30" fill-rule="evenodd"/>
      <path id="Tracé_387" data-name="Tracé 387" d="M0,.007a.04.04,0,0,1,.046,0S0,.027,0,.007Z" transform="translate(35.995 2.543)" fill="#252a30" fill-rule="evenodd"/>
      <path id="Tracé_388" data-name="Tracé 388" d="M.478.117A1.481,1.481,0,0,0,.79.077H.956a.166.166,0,0,1,.159,0A.2.2,0,0,1,1.2.037a1.374,1.374,0,0,1,.166,0c.06,0,0,0,0,.046-.106,0-.186.08-.292,0s-.186,0-.252,0a.08.08,0,0,0-.053,0H.412A.186.186,0,0,1,.339.117h0s0,.046.033.033H.425c.066,0,0,.04,0,.053S.345.2.365.2.3.163.319.137s-.166,0-.213.04,0-.04-.053-.06.073,0,.06-.04A.166.166,0,0,0,0,.077V.024c0-.053.113,0,.139,0a.518.518,0,0,1,.232,0C.4.063.478.083.478.117Z" transform="translate(38.04 2.341)" fill="#252a30" fill-rule="evenodd"/>
      <path id="Tracé_389" data-name="Tracé 389" d="M.153,0a.073.073,0,0,1-.06.04V.073H.007C-.026.073.06.007.153,0Z" transform="translate(37.854 2.458)" fill="#252a30" fill-rule="evenodd"/>
      <path id="Tracé_390" data-name="Tracé 390" d="M.114,0C.08,0,.067,0,.074.046s-.033,0-.066,0S.061,0,.114,0Z" transform="translate(29.287 2.983)" fill="#252a30" fill-rule="evenodd"/>
      <path id="Tracé_391" data-name="Tracé 391" d="M0,0Z" transform="translate(29.261 3.009)" fill="#252a30" fill-rule="evenodd"/>
      <path id="Tracé_392" data-name="Tracé 392" d="M0,0H.04C.08,0,0,.04,0,.04Z" transform="translate(37.19 2.591)" fill="#252a30" fill-rule="evenodd"/>
      <path id="Tracé_393" data-name="Tracé 393" d="M.146,0h0A.086.086,0,0,0,.08.073H0Z" transform="translate(37.775 2.558)" fill="#252a30" fill-rule="evenodd"/>
      <path id="Tracé_394" data-name="Tracé 394" d="M.077,0s0,.053,0,.073,0,0-.053,0,0-.046,0-.066S.044.009.077,0Z" transform="translate(29.934 2.987)" fill="#252a30" fill-rule="evenodd"/>
      <path id="Tracé_395" data-name="Tracé 395" d="M.009,0Z" transform="translate(37.381 2.591)" fill="#252a30" fill-rule="evenodd"/>
      <path id="Tracé_396" data-name="Tracé 396" d="M.079,0h0Z" transform="translate(34.9 2.73)" fill="#252a30" fill-rule="evenodd"/>
      <path id="Tracé_397" data-name="Tracé 397" d="M.058,0H.032C-.048.053.045,0,.058,0Z" transform="translate(36.574 2.631)" fill="#252a30" fill-rule="evenodd"/>
      <path id="Tracé_398" data-name="Tracé 398" d="M.108.013a.166.166,0,0,1,0,.046H.015c-.033,0,0,0,0-.04S.068.013.108.013Z" transform="translate(36.757 2.618)" fill="#252a30" fill-rule="evenodd"/>
      <path id="Tracé_399" data-name="Tracé 399" d="M.033,0h.08c-.046,0-.08,0-.06.053H0S.02.02.033,0Z" transform="translate(31.32 2.936)" fill="#252a30" fill-rule="evenodd"/>
      <path id="Tracé_400" data-name="Tracé 400" d="M.142,0H0A.429.429,0,0,0,.142,0Z" transform="translate(35.514 2.704)" fill="#252a30" fill-rule="evenodd"/>
      <path id="Tracé_401" data-name="Tracé 401" d="M.023,0s.06,0,.06.04S.016.04,0,.04.023.013.023,0Z" transform="translate(29.251 3.049)" fill="#252a30" fill-rule="evenodd"/>
      <path id="Tracé_402" data-name="Tracé 402" d="M.166.036h.06c.046,0,0,0,0,.033A.624.624,0,0,1,0,.07C.066-.017.166-.017.166.036Z" transform="translate(36.905 2.647)" fill="#252a30" fill-rule="evenodd"/>
      <path id="Tracé_403" data-name="Tracé 403" d="M.086.022A.166.166,0,0,1,0,.022H0C.033,0,.093-.011.086.022Z" transform="translate(31.911 2.934)" fill="#252a30" fill-rule="evenodd"/>
      <path id="Tracé_404" data-name="Tracé 404" d="M.01,0h0C-.024,0,.043.033.01,0Z" transform="translate(37.181 2.631)" fill="#252a30" fill-rule="evenodd"/>
      <path id="Tracé_405" data-name="Tracé 405" d="M0,0H.046S0,.046,0,0Z" transform="translate(37.363 2.631)" fill="#252a30" fill-rule="evenodd"/>
      <path id="Tracé_406" data-name="Tracé 406" d="M.02,0S.053.046.02.046,0,.013.02,0Z" transform="translate(36.347 2.71)" fill="#252a30" fill-rule="evenodd"/>
      <path id="Tracé_407" data-name="Tracé 407" d="M9.391.855V.789c.086,0-.04,0,0-.033s-.04,0-.086,0h0a2.318,2.318,0,0,0-.379,0s-.033,0,0-.053H8.853V.749c0,.046,0,0-.08,0H8.707c-.066,0,.086,0,.066.046A.664.664,0,0,0,8.494.742a.066.066,0,0,1-.046,0,.531.531,0,0,0-.206,0H8.076c-.066,0,0,.06,0,.093s0,.046.033.046,0-.033-.046-.033H7.85A.554.554,0,0,0,7.671.775c-.086-.013,0,0-.033,0a.645.645,0,0,1-.206.06H7.265a.359.359,0,0,0-.113.053.89.89,0,0,0-.206,0c-.053.053-.159,0-.259.046a.112.112,0,0,0-.08.04.392.392,0,0,0-.213,0h0a.611.611,0,0,0-.153.046s-.033,0,0-.06a.392.392,0,0,0-.126,0s-.066.06-.1.06a.259.259,0,0,0-.226,0h-.1a.133.133,0,0,0-.113.06,1.846,1.846,0,0,0-.5,0,.073.073,0,0,1-.053-.06l-.206.1H4.556a2.079,2.079,0,0,1-.432.04H3.958a.345.345,0,0,1-.173,0h0a.418.418,0,0,0-.226.053H3.453a.319.319,0,0,1,.12-.046s-.06,0-.053-.053H3.374a.412.412,0,0,0-.166,0H3.081c-.04,0,0,.053,0,.073s-.066,0-.133,0,0,0,0,.046a.179.179,0,0,1-.08,0H2.836s.053-.033.06-.06a2.132,2.132,0,0,0-.511,0H2.2a.432.432,0,0,1-.159,0c-.033,0,0,0,0,.053-.106,0-.312.053-.345,0s-.12.046-.186.06-.046.06-.053.093.08,0,.139,0a.126.126,0,0,1,.086,0s-.06,0-.053.046-.04,0-.06,0-.04,0-.066-.066c-.139,0-.259.04-.4.046S1,1.406.95,1.473a.159.159,0,0,0-.126.053.215.215,0,0,0-.159.04c-.046.04.093,0,.1,0l-.1.053H.432A.81.81,0,0,0,0,1.778a.305.305,0,0,1,.113.113H.166c.053,0,0,0,.04.046-.159.066.1.126.08.186s.139,0,.213,0A.664.664,0,0,0,.85,2.07h.2a.664.664,0,0,1,.12,0H1.72a.511.511,0,0,0,.266,0h0a.179.179,0,0,0,.086-.046h.06a1.607,1.607,0,0,1,.432,0H2.63a.97.97,0,0,0,.359,0h.04a.863.863,0,0,1,.266,0h.943c.08,0,.226-.066.312-.033a.365.365,0,0,1,.146,0c.159-.053.385,0,.551-.046a.339.339,0,0,0,.2,0,7.259,7.259,0,0,0,.764,0c.133-.053.305,0,.445-.046a.332.332,0,0,0,.086,0,2.656,2.656,0,0,1,.591-.033,2.736,2.736,0,0,1,.638-.046h.186a1.794,1.794,0,0,0,.465-.046h.166a1.727,1.727,0,0,0,.246,0,.219.219,0,0,0,.173,0,1.992,1.992,0,0,0,.392,0,.877.877,0,0,0,.272,0h.252a.564.564,0,0,1,.272-.086h0a1.594,1.594,0,0,0,.359,0,2.557,2.557,0,0,1,.319,0c.226,0,.372-.053.6-.073.086.046.206,0,.312,0h0c.372,0,.883-.04,1.242-.04a1.767,1.767,0,0,0,.345-.04,3.042,3.042,0,0,0,.412,0,2.657,2.657,0,0,0,.392,0h.04a5.315,5.315,0,0,1,.8,0c.08-.04.232,0,.319,0a8.209,8.209,0,0,0,.823-.046.1.1,0,0,1-.053,0A.664.664,0,0,0,16.6,1.4h0s0-.033.073-.033a.286.286,0,0,0,.173,0h.139c.08,0,.033.04.066.046a7.086,7.086,0,0,1,.777-.046.279.279,0,0,0,.2,0h0c.046,0,0-.033.06-.033h.219a.126.126,0,0,0,.073,0h.086a.259.259,0,0,1,.146,0h0a9.415,9.415,0,0,0,1.043-.04h.352a.365.365,0,0,0,.159,0s-.033,0,0-.04.053,0,.113-.04,0,.066.06.046.04,0,.04,0h.086a.379.379,0,0,1,.146,0,.159.159,0,0,0,.04.053c.06,0,.04-.046.086-.053a.1.1,0,0,1,.053,0h0a.246.246,0,0,0,.246,0,1.109,1.109,0,0,1,.392,0,1.169,1.169,0,0,1,.219,0h.073c.02,0,0,0,0,.04h.06a.332.332,0,0,1,.113,0h0a1.361,1.361,0,0,0,.305.04c.1-.053.226-.093.332-.139s0,0,0-.04.06,0,.086,0,0,.04,0,.053-.04-.193-.04-.193v.06c0,.06.08,0,.086,0h-.06a.976.976,0,0,0,.272,0h0a.222.222,0,0,0,.113-.033c.046-.033.113,0,.126,0s.133,0,.159.04a.511.511,0,0,1,.219,0,.259.259,0,0,1,.086-.033h.086a.053.053,0,0,1,.046-.046h0a3.161,3.161,0,0,0,.525-.04c0,.046.146,0,.2,0a2.032,2.032,0,0,0,.405,0,.359.359,0,0,1,.106.053v.046a.219.219,0,0,0,.146-.046h0a2.152,2.152,0,0,0,.359,0h.239a1.952,1.952,0,0,0,.392,0h0a.133.133,0,0,1,.086,0c.053.08.3-.033.4,0a1.328,1.328,0,0,1,.325,0,.545.545,0,0,1,.332-.106L27.3.875c.073-.04,0,0,0,.04s.219,0,.252-.053h.033c.033,0,.12-.04.106,0s.053-.04.12-.04h0c.053,0,.073,0,.08-.04s-.053,0-.066,0,.04-.053.113-.06h.1c.04,0,.073.073-.046.06,0,.033-.046.046-.073.066h0A.611.611,0,0,0,28.085.8h.053c.053,0,0,0,0-.033s.1,0,.166,0,.066,0,.04.033,0,0-.046,0A.279.279,0,0,1,28.2.8s0,0,0,.053a.9.9,0,0,0,.193,0h.179c.066,0,.053,0,0,.053h.159a2.706,2.706,0,0,0,.312-.08c.1-.02,0,0-.04,0h.04c-.073,0,0-.06.093-.053h.239a.046.046,0,0,0,0-.066h-.086a.491.491,0,0,1-.325,0h0a1.118,1.118,0,0,0-.305.04h0c-.159.04-.279,0-.438.04a.385.385,0,0,1,.332-.159h-.013a.345.345,0,0,1,.153,0h.086A.806.806,0,0,0,29.1.57a.315.315,0,0,1,.226,0h.259c-.1,0,0-.073,0-.1a.571.571,0,0,0,.113,0h-.106c-.04,0,0,0,0,.04l.053.046c-.04.046-.113.08-.133.133s.086,0,.12,0h.033a.2.2,0,0,0-.053,0H29.7s-.146.04-.179,0,0,.053-.053.073,0,0-.04,0h-.053a.272.272,0,0,0,.179,0c.046,0,.1,0,.1.06s.086-.053.166-.073a.12.12,0,0,0,.126,0c-.046,0-.06-.033-.1-.04s.08,0,.126,0,0-.04.06-.046,0,0,.046,0h.06V.709c0,.046,0,0,.093,0a.272.272,0,0,1-.073.046L30.1.716c-.053-.04,0,.093.12.073h.266c.046,0,0-.053.06-.06H30.6c-.027,0,0-.066.06-.073a.258.258,0,0,1,.073,0c.04,0,.073,0,.066.06s-.04,0-.04,0,.1,0,.08.04a.232.232,0,0,0,.12,0c.066,0,.106,0,.1.04h.04a.114.114,0,0,0,.086-.046c.033-.046-.053,0-.053,0L31.3.716c0-.04.033-.08.1-.053s0,.04,0,.073a.219.219,0,0,0,.213,0h.246A.345.345,0,0,0,31.665.7.139.139,0,0,1,31.877.55c.033-.046.12,0,.166,0h0A.083.083,0,0,1,32.11.6c.027.046,0,0,0,.046s0,0-.073,0,0,.04,0,0,0,0,.04,0h0a.737.737,0,0,0,.325,0A.045.045,0,0,1,32.356.59a.246.246,0,0,1,.133,0h-.04a1.992,1.992,0,0,0,.418,0c0-.053,0-.1-.146-.113H32.7c-.053,0-.06.04-.1.06a1.083,1.083,0,0,0-.252,0h0a.558.558,0,0,1,.126,0c-.04-.08.133-.066.226-.073h.066c.066,0,.139.06.206.086a.173.173,0,0,0-.093,0,2.3,2.3,0,0,0,.425,0c0-.033.08-.053.06-.086s0,0-.066,0h.033a.162.162,0,0,0-.153.08.239.239,0,0,1-.12,0C33.093.5,33.006.5,32.993.47s0,0-.073,0S32.767.4,32.7.37s-.08.053-.153.04h-.2a.066.066,0,0,0-.073,0V.463c0,.053-.12,0-.12-.053s.053,0,.06,0,0-.04,0-.04V.41c0,.04.133,0,.159,0s0,0,.046-.053.12,0,.12,0h.066q-.053,0,0-.06a.257.257,0,0,0,.153-.033c.06-.033-.053-.046,0-.053a.37.37,0,0,1,.086,0h.159c.053,0,.053-.04.1,0h-.193c-.046,0,0,0,0-.033s-.046,0-.086,0-.053-.046,0-.066h-.08c-.046,0,0,0,0-.04h-.007c-.066,0-.033.04-.093.053s.06,0,0,.04h-.04c0,.046-.133.046-.179.06s.04,0,0,0a.279.279,0,0,1-.146,0s-.053,0-.053-.04,0,0,.04,0h.053c.04,0,0-.04.1,0s0-.073.053-.1,0,.033-.053.046-.219.093-.339,0c0,0,.053-.033.053-.04H32l.046-.04c-.046,0-.06-.033-.093-.046a.43.43,0,0,0-.239.033.392.392,0,0,1,.139,0H31.8c-.046,0,.073.133-.073.146,0,.04.1,0,.106.046l.04.126a.8.8,0,0,0,.106.106.292.292,0,0,1-.146.046V.543h-.06a.179.179,0,0,1-.086-.06s.093-.04.146,0,.086,0,.093-.046,0,0-.08,0,0,0,0-.046l-.08-.06c.086,0,.153-.066.066-.086s-.08,0-.12,0-.146,0-.173-.046.04,0,.053,0a1.461,1.461,0,0,0-.3,0,.133.133,0,0,0-.1.046.232.232,0,0,0,.066.073h.093a.339.339,0,0,1-.186,0s.033,0,0,0,0,0-.033-.046a.432.432,0,0,1-.159,0v.04c0,.04.12,0,.093,0h-.12s.046,0,0,.046-.066,0-.139,0H30.9c.053,0-.08-.06,0-.08s.046,0,.053,0,.066-.053,0-.086-.066,0-.106,0H30.4c-.046,0,0,.04,0,.046s-.06,0-.073,0h.053a.053.053,0,0,0,0-.04h-.133c-.06,0,0,0-.04.04s-.066,0-.106,0-.292,0-.312.093h-.219s-.06,0-.066-.053,0,0-.053,0H28.53a1.541,1.541,0,0,0-.305,0h0L28.178.244a.432.432,0,0,1-.213,0h1.175a.877.877,0,0,0,.193,0h-.139a.306.306,0,0,1-.093,0,4.044,4.044,0,0,0-.936.046.2.2,0,0,0-.139,0h-.053c-.412,0-.75.066-1.156.073a4.107,4.107,0,0,0-.412.046h.04a1.627,1.627,0,0,0-.179,0,.392.392,0,0,0-.246,0H25.88c-.033,0,.053,0,.046-.033a7.385,7.385,0,0,0-.75.053H25.4c0,.033-.146,0-.193,0H25.4a.87.87,0,0,1-.232,0s.08,0,.106.033h0a1.056,1.056,0,0,1-.259-.106,1.388,1.388,0,0,1-.166,0h.3V.324a1.992,1.992,0,0,0-.405.046.405.405,0,0,0-.173-.013v.06h-.5s.153,0,.153-.06-.04,0-.04,0,.246-.046.232,0,0,0,.04-.04,0,.033.053.033.06,0,.06-.053h-.412a.365.365,0,0,1-.246.06s.08,0,.08-.046h-.418c.046,0,0,0,0,.04s-.106,0-.113,0a.379.379,0,0,0,.106,0,2.73,2.73,0,0,0-.465,0h.445l.073-.04h.166s.073.033.106,0h0a.232.232,0,0,0,.08,0V.357h.053A.3.3,0,0,0,23.955.3h-.239a5.605,5.605,0,0,0-.6,0h.046a.126.126,0,0,1-.086,0,.049.049,0,0,1-.046.046.636.636,0,0,1-.113,0h.153c.053,0,0,0,0-.033h-.571a.213.213,0,0,1-.159,0s-.053,0-.06.046,0,0,.04,0a.186.186,0,0,0,.159,0h.086s-.139,0-.126.033a.219.219,0,0,1,.093,0h0a.472.472,0,0,0-.2,0h-.113a6.249,6.249,0,0,0-.664.046.035.035,0,0,0,.04.033c.04,0-.06.053,0,.066a1.328,1.328,0,0,1-.232,0,.226.226,0,0,1,.179-.179V.317c0-.04-.073,0-.093,0h.126a1.286,1.286,0,0,1-.319.04h0V.291c0-.027.033,0,.04,0a.412.412,0,0,1-.126,0c-.033.113-.379,0-.478.066h0a.272.272,0,0,1-.106,0v.06H20.8a.086.086,0,0,0,.073,0h.073s-.04,0-.046-.053.133,0,.159,0,.08.066-.046.073c.08.046-.073.053-.153.073a.06.06,0,0,0-.08-.033h-.093s.066.04,0,.04,0,0-.046-.04a2.656,2.656,0,0,0-.525,0h-.033a.039.039,0,0,0,.04-.04c0-.04-.04,0-.053,0H20.1a.823.823,0,0,1-.179,0s-.066,0-.08.046-.04,0-.086,0c.06,0-.04,0,0-.053s.073,0,.086,0h-.226c-.033,0,.046.046,0,.06h-.166c-.073,0,0,.04-.086,0s.1,0,.066,0a.066.066,0,0,1,.086,0,3.042,3.042,0,0,1-.7,0h-.1a.06.06,0,0,1-.046,0V.4a.246.246,0,0,0-.139,0H18.5a1.428,1.428,0,0,0,.153,0,.226.226,0,0,1-.159.04c0,.12-.259.033-.365.093a1.587,1.587,0,0,0-.432,0h.093c0-.04-.08,0-.066-.06H17.9a1.654,1.654,0,0,0-.186-.1V.417c0,.046-.086,0-.053,0h.1a.2.2,0,0,1-.139,0s-.033,0,0,.06-.113,0-.126.06.04,0,.033,0a.133.133,0,0,1-.113,0c.033,0-.053,0,0-.053a.7.7,0,0,1-.166,0h-.066a.3.3,0,0,1-.073.086h-.033c0,.04-.08.046-.1,0s0,0,.033-.04a.392.392,0,0,0-.166.093s0-.033-.073-.033,0,.04-.04.04H16.51A.292.292,0,0,1,16.3.722a.1.1,0,0,0-.1,0c.066-.04-.1-.033-.066-.06h-.272a.093.093,0,0,1,.086,0c.046,0,.2,0,.213-.066a.219.219,0,0,0-.113,0h-.139a1.893,1.893,0,0,0-.445,0,.086.086,0,0,0,0-.046h.053a.1.1,0,0,0,.086.06.226.226,0,0,1,.08,0h.04c.04,0,.033,0,0-.046s.08,0,.08,0h0a.153.153,0,0,0,.093,0h-.066a.06.06,0,0,0-.04,0h-.06c-.08,0-.186.06-.272,0h-.08c-.02,0,0,0,0,.046s0,0-.053,0h-.033c-.106,0-.066.08-.153.113s-.053,0-.086,0,0,.04,0,.046S14.923.8,14.9.835s.046,0,.053,0l-.04.04h-.053c-.053,0-.232.04-.239,0a2.656,2.656,0,0,1-.266.06c-.033,0,0,0-.033-.046a.279.279,0,0,0-.093,0h0V.849c0-.04-.093,0-.086,0h.04a.292.292,0,0,0-.106,0v.04c0,.007-.04,0-.073,0s-.093,0-.106.06S13.867.9,13.9.875s.04,0,.053,0q0,.01-.007.02s.033,0,0-.046-.1,0-.12,0A.252.252,0,0,1,14.006.8a.076.076,0,0,1-.046.066.166.166,0,0,0,.12-.046h.053V.782c0-.04.106,0,.193,0h0a.285.285,0,0,0,.139-.04c.06-.04.073,0,.133,0h.053c.053,0,.04,0,.093-.04s.1,0,.06-.06h.073c-.033-.046.073-.04.066-.08-.133,0-.193.06-.325,0V.523c0-.04-.073,0-.106,0h-.126c-.093,0-.04.086.046.08a.106.106,0,0,1,.06,0A.259.259,0,0,0,14.7.6c0,.066-.166.053-.232,0a.843.843,0,0,1-.3.046.418.418,0,0,0,.1-.066h-.126s.12,0,.153-.04h-.179c-.06,0-.133.053-.239.06h0S14,.6,14.006.55a.79.79,0,0,0-.252,0h0a.877.877,0,0,0-.193,0h0a.465.465,0,0,0-.2,0h-.08c.033,0,0,.053.04.053h.186c.066,0,0,.033,0,.046a.259.259,0,0,1-.093,0h-.226a.139.139,0,0,0-.113,0h0c-.053,0,0-.04-.073-.046s.066,0,0-.053a.219.219,0,0,1-.093,0A.79.79,0,0,1,12.8.6c.033.053-.126.08-.139.033a.126.126,0,0,1-.12,0h.027c-.113,0-.279,0-.246-.06a1.2,1.2,0,0,1-.246,0,.1.1,0,0,1-.073.04h-.04a1.118,1.118,0,0,0-.179.06c-.066.02,0-.046,0-.066a.359.359,0,0,1-.146,0h0a.187.187,0,0,1-.173.066H11.7a.232.232,0,0,1-.106,0h-.073c-.04,0,0,.046.086.06-.139.046-.166-.046-.272,0s-.133,0-.153-.053h-.066A.207.207,0,0,1,11,.643C10.945.6,11,.6,11,.57s0,0-.053,0a.664.664,0,0,1-.053.139,1.474,1.474,0,0,1-.564,0c.046-.046.232,0,.325-.04a.419.419,0,0,1,.126-.046c.04-.007-.186,0-.259-.046s0,.033,0,.033a.206.206,0,0,0-.113,0H10.34c-.027,0-.133,0-.146.053s0,0-.053,0,0,.053-.066.066-.06,0-.06,0H9.9c.139-.04-.073-.073-.139,0s0,.046-.06.06H9.6a.093.093,0,0,0,.08,0c0,.033,0,.04.04.06s0,0-.046,0H9.623c-.053,0-.033.04-.08.04S9.417.9,9.391.855Zm3.938,0h.04c.04,0-.093.046-.146.066H13c.033,0-.173.046-.186,0a.405.405,0,0,0,.153-.033.724.724,0,0,1-.339,0c-.053,0-.04.053-.106.053h-.093V.9c0-.046.08,0,.06-.053s.232,0,.246,0A.9.9,0,0,1,13.083.8h.066c.066,0,.166,0,.179.046Zm10.732-.5h0ZM8.281.908a.359.359,0,0,0,.146,0s-.08,0-.08.046a.093.093,0,0,0-.093,0S8.248.9,8.281.875Zm.286,0a.066.066,0,0,1-.06,0s.02-.046.06-.046Zm0,0H8.58Zm-.345,0H8.169A.112.112,0,0,1,8.222.908Zm.85-.04H9c-.027,0,.04.007.073,0Zm-2.3.153h0Zm.319,0a.843.843,0,0,1,.146,0c0,.046-.113.04-.146,0s.013,0,0,0ZM5.9,1.094a.139.139,0,0,1-.113.046c-.08,0-.106,0-.106-.04Zm.153,0a.073.073,0,0,1-.066,0s.073-.073.066-.033ZM12.034.762h.08V.8H12.04a.341.341,0,0,1-.027-.066Zm-3.673.259a.266.266,0,0,0-.126,0s-.04,0,0-.04S8.374.941,8.361,1.021Zm-6.767.3Zm1.992-.086h-.02ZM12.087.8H12a.283.283,0,0,0,.113,0ZM10.274.9h.033C10.3.9,10.3.908,10.3.9ZM11.841.849h-.106c.04-.046.139-.033.133,0ZM7.85,1.021H7.79C7.77,1.021,7.85,1.068,7.85,1.021ZM10.626.9h-.066C10.493.9,10.626.908,10.626.9ZM14.132.709c.06.053-.073.066-.153.046h.073c.027,0-.007-.053.046-.046Zm1.1-.053a.385.385,0,0,0,.12,0c-.073.073-.219.053-.153,0Zm7.584-.4a.04.04,0,0,1,.04,0,.478.478,0,0,0-.113,0c-.04-.007.033.027.04,0ZM10.858.922s.086,0,0,.046S10.8.922,10.8.9ZM21.8.337h0ZM10.36,1a.319.319,0,0,1-.08.066.073.073,0,0,0-.08,0c-.06,0-.1,0-.1-.046-.139,0-.186.093-.332.06h0l.04-.04a1.2,1.2,0,0,1,.312,0A.143.143,0,0,1,10.3.955ZM20.853.357a.817.817,0,0,1-.179,0,.279.279,0,0,1,.179,0ZM8.819,1.021H8.726a.93.93,0,0,1-.226,0H8.494s.073,0,.053-.04a.465.465,0,0,1,.272.073ZM11.7.842c-.04,0,0,.053,0,.073s.1,0,.12.046a.571.571,0,0,1-.2,0s0-.046,0-.053a1.919,1.919,0,0,0-.206,0c-.086,0-.12.113-.246.113h-.053c-.053,0,.053,0,.08-.04s.06,0,.066.033c.146,0,.126-.08.12-.106A1.328,1.328,0,0,1,11.7.875Zm3.241,0c.086,0,0-.08.073-.113s.086,0,.126,0h.007c.046,0,.033.04,0,.046h.08a.339.339,0,0,1,.272,0,.584.584,0,0,1,.219-.033h0a.126.126,0,0,1-.086,0h.093a.551.551,0,0,1-.159,0h.146a.146.146,0,0,1,.073,0c-.06,0,0,.046-.08.053a.059.059,0,0,0-.093,0c-.046.053-.08,0-.086-.04s-.04,0-.073,0h-.06V.809a.664.664,0,0,0-.226,0c.053,0-.04,0,0,.033s-.133,0-.206,0H14.9c-.06,0-.02.02.04.027ZM8.959.988h.073v.046H8.959s-.02-.013.02-.013Zm1.773,0h.08a1.175,1.175,0,0,1-.146,0c.033,0,0-.06-.033-.093.1.007.093.126.12.126Zm-1.2.033s0,.04-.086.04h0a.239.239,0,0,1,.086-.04Zm-.305,0s-.073,0-.086.053S9.158,1.021,9.231,1.021ZM13.455.888H13.4c-.053,0,0,0,0-.04S13.428.888,13.455.888ZM13.4.835h.053c.053,0,0-.06.1-.066s.106.06.153.1h-.2c-.027,0,0-.04.046-.053S13.369.882,13.4.835ZM22.752.4h-.073c-.027,0,.04,0,0-.046A.458.458,0,0,1,22.9.3a.173.173,0,0,0,.08.06.737.737,0,0,1-.226,0h.106c-.06,0,0,.046-.073.053s-.046,0-.046-.04.007-.013.013.027Zm-10.8.491h-.073C11.841.888,11.894.882,11.954.888ZM7.6,1.127h0c-.04,0-.027.013-.027,0ZM10.52.968h.093a.455.455,0,0,1-.193.04h.073a.076.076,0,0,0,0-.04ZM21.331.39h-.02a.664.664,0,0,1-.113,0s.113.046.106,0ZM11.071.981h-.213c-.04,0,.179-.046.186,0Zm1.209-.1V.928H12.12a.272.272,0,0,1,.133-.046Zm-3.985.292a.113.113,0,0,1-.04-.053.193.193,0,0,1,.139,0c-.106.013-.073.053-.126.053ZM21.152.423h0a.551.551,0,0,0,.232,0h0c-.093,0-.186.073-.286.033h-.073s.08,0,.073-.066ZM7.737,1.154Zm1.328-.066s0,.033-.06.033h0ZM23.031.357c.08.06.266,0,.312.033h-.279c-.06,0,0,0,0-.053a.266.266,0,0,1-.126,0A.52.52,0,0,0,23.031.357Zm-1.116.06h-.033S21.916.437,21.916.417Zm.664,0h-.013S22.58.4,22.58.357ZM21.69.47h.139a.12.12,0,0,1-.093.053h-.06c-.06,0,0-.08.013-.086Zm-.126,0c.046,0,.066.04.033.053s-.066-.06-.033-.073ZM12.206.955h0a.086.086,0,0,1-.06,0A.053.053,0,0,1,12.206.955Zm-.3,0h.1a.181.181,0,0,1-.12.066c-.066,0,.013,0,.02-.046ZM22.234.423h.013C22.221.423,22.241.43,22.234.423ZM23.377.357h.04S23.363.4,23.377.357Zm-10.626.6h-.066c-.027,0,.086-.013.08.007ZM25.9.244h-.073A.209.209,0,0,1,25.9.244ZM22.527.45h-.053c-.053,0-.007-.007.02,0ZM26.319.271h.073a.788.788,0,0,1-.305,0c.04,0,.139-.046.2,0Zm-3.36.166ZM21.9.49Zm-.12,0V.556H21.73S21.7.516,21.743.51Zm1.76-.1V.457c0,.027-.12,0-.12,0H23.41c-.053,0,.053-.033.093-.046ZM25.655.357h-.033a.213.213,0,0,1,.113,0,.717.717,0,0,1,.3,0h0A2.6,2.6,0,0,1,25.655.357ZM22.945.5h.086a.159.159,0,0,1-.106.033ZM23.908.43c-.12,0-.113.06-.232.046,0-.046.12,0,.113-.053S23.941.39,23.908.43Zm.731-.066h-.007a.046.046,0,0,1,.027-.007Zm-3.513.2h-.073a.335.335,0,0,0,.093,0Zm1.594-.08h.02ZM27.972.2h.06s-.06.02-.04,0ZM22.241.523h-.007s.027.013.027,0Zm1.933-.08h-.2a.488.488,0,0,1,.219,0Zm.491,0h0s.007-.027.02-.033ZM25.9.357Zm-.418,0h.073c-.007,0-.073.046-.066,0ZM24.639.43h.027s-.02.027-.02.02ZM30.071.2h-.06a.173.173,0,0,1,.066.02Zm.664,0a.7.7,0,0,1-.219,0s.193.007.239.013Zm-.777.046H30c0,.04-.046.066-.113.04s.093.007.093-.027Zm.757,0c.04.046-.06.08-.133.073.06-.02.046-.086.153-.073ZM21.252.756V.8h-.04S21.179.762,21.252.756ZM30.31.271s.04,0,0,.04a.252.252,0,0,1-.106,0,.139.139,0,0,1,.073-.04ZM31.346.224h.086c.073,0,0,.066-.106.046a.04.04,0,0,1,.02-.046Zm-.279,0h.046c.046,0-.027.027-.046.027Zm-14.763.8h.106S16.311,1.061,16.3,1.021ZM29.8.357h0ZM27.893.45h0c-.139-.04-.232.053-.379,0l.073-.04c.073-.04.053,0,.08,0A.664.664,0,0,1,27.893.45ZM31.7.251h-.046s.027-.013.027,0Zm-3.54.193h-.113a.093.093,0,0,1,.093,0Zm.086,0H28.3s-.08.02-.073-.007ZM29.613.4H29.52s.073-.04.073-.007Zm2.065-.12a.392.392,0,0,1,.106.046h-.126c-.053,0,.007-.033,0-.053ZM28.358.463H28.3c-.06,0,.013.007.013-.007Zm.3,0h.093c.04,0-.06,0-.08.04s-.046-.04-.053-.066ZM30.689.357h0Zm.757,0h-.08a.06.06,0,0,1,.08-.046Zm.877,0a.139.139,0,0,1-.053,0s.06-.093.053-.066Zm-1.687,0Zm.312.086a.08.08,0,0,1,.086,0c.04,0,.093-.04.093-.073.086.053.086-.013.086-.013s.206,0,.12.053a.412.412,0,0,1,.12,0s-.066.053,0,.073h-.219a.445.445,0,0,1-.179.04s-.093,0-.073-.066,0,0,0,.04a2.318,2.318,0,0,1-.305,0s.053,0,.053-.046.133,0,.232,0,.013.013-.013.013ZM32.276.3h-.093c-.04,0,.06.013.1.053ZM28.431.51h0s.007.027.007.02Zm-.458.046h0a.71.71,0,0,0-.153.106c-.04.046-.06,0-.113,0s.033,0,0-.053a.551.551,0,0,0-.146,0h-.066V.57a.1.1,0,0,0,.046,0h.146a.153.153,0,0,1,.073,0h.073a.59.59,0,0,1,.146.007Zm2.285-.1h-.04c-.04,0,.02.02.046.02ZM21.916.928h-.106C21.756.928,21.916.941,21.916.928ZM30.423.477s-.04.033-.04.06a.345.345,0,0,1,.219,0s0,.04,0,.06a.438.438,0,0,1-.166,0H30.27s-.053,0-.053-.04,0,.033-.04,0h0L30.23.51a.251.251,0,0,1,.213-.033ZM32.13.4a.139.139,0,0,1-.073,0s.093-.04.093,0ZM29.885.523h0C29.825.523,29.845.55,29.885.523ZM24.253.835h.073A.213.213,0,0,0,24.28.9c-.007.027-.08,0-.113,0h.046s.033-.04.007-.066Zm.79-.046h0ZM29.752.536s-.04,0-.04.033h0a.1.1,0,0,1,.007-.033Zm1.84-.093H31.6s-.027.02-.04,0ZM28.225.629h-.007s-.013.02-.027,0ZM27.2.7h-.033ZM31.977.47a.345.345,0,0,1,.2,0h0c-.053,0-.106,0-.106.046h0A.377.377,0,0,0,31.944.47Zm-9.55.491h.06a.415.415,0,0,0-.093,0ZM24.871.829H24.8c-.066,0,.007.007.033,0ZM25.9.782h-.086a.126.126,0,0,1,.086,0Zm.292,0h0c-.046,0-.033-.007-.013-.02ZM22.493,1l-.033.04h-.093s-.073.06-.106,0c.066-.02.1-.073.219-.06ZM25.668.822a.89.89,0,0,1,.139,0s-.159.007-.153-.02ZM28.152.7h-.1a.884.884,0,0,1,.086-.02Zm-6.641.385-.093.046h0s.02-.073.073-.066ZM27.229.756h.053c.007,0,0,0,0,.033s-.093,0-.086,0h-.106C27.056.789,27.189.775,27.229.756Zm-5.147.266h0ZM27.335.749h.093s-.04.033,0,.06-.046,0-.086,0-.007-.033-.007-.046Zm-.3,0a.073.073,0,0,0,.053,0,.066.066,0,0,1-.073,0s.02.04.02.033Zm1.992-.1v.04c0,.04-.252.04-.272,0a.279.279,0,0,1,.126,0,.232.232,0,0,1,.179-.007Zm-6.794.385h-.146c-.073,0,.113.033.179.033Zm2.7-.146h0s-.007.02.033.033ZM28.251.709h.066c.007,0,.027.04-.007.033ZM20,1.167h.06a.193.193,0,0,1-.093,0ZM32.362.5h-.106c-.02,0,.146.02.166.046ZM25.289.888h-.106c-.033,0,.153.027.166.046Zm-.392,0v.04h0s.06.04.06.027ZM29.507.656a.06.06,0,0,1,.053,0h-.046ZM30.881.583h.073a.166.166,0,0,1-.08,0ZM32.123.53h0c-.066,0,.073.066.06.066Zm-5.5.3h0s.04.06.06.066Z" transform="translate(0 2.274)" fill="#252a30" fill-rule="evenodd"/>
      <path id="Tracé_408" data-name="Tracé 408" d="M0,0H0Z" transform="translate(17.267 2.936)" fill="#252a30" fill-rule="evenodd"/>
      <path id="Tracé_409" data-name="Tracé 409" d="M2.216,0C2.136.06,1.91.033,1.8.053H1.731a2.205,2.205,0,0,0-.272.053,1.858,1.858,0,0,1-.545,0H.768a.724.724,0,0,0-.126,0h0a.279.279,0,0,1-.086,0H.6c.06,0,.04,0,0,.046a.664.664,0,0,0-.252,0H.044c-.1,0,0,0,0-.046H.529C.841.106,1.193.06,1.539.053A6.21,6.21,0,0,1,2.216,0Z" transform="translate(24.256 2.318)" fill="#252a30" fill-rule="evenodd"/>
      <path id="Tracé_410" data-name="Tracé 410" d="M.066,0A.325.325,0,0,0,.205,0h0s-.04,0,0,.053h-.2C-.027.053.086.027.066,0Z" transform="translate(16.165 2.936)" fill="#252a30" fill-rule="evenodd"/>
      <path id="Tracé_411" data-name="Tracé 411" d="M.128.04c0-.046-.086,0-.12,0S.054.04.081,0A.179.179,0,0,0,.187,0S.114.053.187.046.147.046.128.04Z" transform="translate(24.252 2.644)" fill="#252a30" fill-rule="evenodd"/>
      <path id="Tracé_412" data-name="Tracé 412" d="M.458.252h0V.213A.465.465,0,0,0,.764.279l-.04.04c-.04.04-.232,0-.206,0C.425.319.438.279.345.286H.292c-.013,0,0,.033,0,.04A.146.146,0,0,0,.2.325a.179.179,0,0,0-.126,0c-.033,0,0-.04,0-.046S.033.312.02.332s.06,0,.053.033A.12.12,0,0,0,0,.365H.08c.02,0,.04,0,0,.04A.558.558,0,0,0,.226.458a.432.432,0,0,0,.126,0A.076.076,0,0,1,.438.385c.086,0,0,.04,0,.086V.438a.385.385,0,0,1,.093,0h0l-.02.02S.671.458.684.425s-.06,0-.06,0H.711c.013,0,0,.053,0,.08a1.142,1.142,0,0,1,.425,0H1.2L1.175.458s-.06,0-.06.046,0,0,.04,0H1.029s0,.04-.08,0H.837S.6.591.5.5C.5.538.5.5.458.5H.4C.465.458.571.5.651.5H.8C.8.5.8.5.8.558s.08,0,.06-.04.086,0,.086,0A.048.048,0,0,0,.9.571c0,.053.1-.046.166-.04A.228.228,0,0,0,1.249.485H1.109a.046.046,0,0,0,0,.04h.073a.206.206,0,0,0,.106,0c-.06,0,0-.053-.046-.073s.139,0,.153-.066-.046,0-.093,0h0L1.249.345C1.2.305,1.3.259,1.4.279h0L1.468.232c.066-.046-.086,0-.093-.033s.073.033.126,0h.046c.046,0,.06,0,.073.04a.193.193,0,0,1,.073,0s.04.033,0,.04,0,0-.033,0,0,0,0,.04.073,0,.146,0h.106c.053,0,.066,0,.113-.06s.1.06.12.113-.106,0-.106,0h0c-.073,0-.093.053-.133.08h0a.405.405,0,0,1-.219,0c-.12.04-.239,0-.345.053a.465.465,0,0,0,.166,0,.046.046,0,0,0,.033,0,.086.086,0,0,1,.066,0,.159.159,0,0,0,.133.04h0s.073,0,.086.04.06,0,.066,0h.166c.053,0,.04,0,.033.04h.093A.151.151,0,0,0,2.291.551c.02-.033-.093,0-.139,0H2.065c-.04,0,0-.04,0-.046h.027a.23.23,0,0,0,.126.04c-.04,0,0-.066,0-.08h.106S2.4.465,2.4.5s0-.06.093-.066.133.113,0,.1h.066c.013,0-.08.046-.033.066S2.557.6,2.6.6h0A.06.06,0,0,1,2.67.6h.093a.186.186,0,0,0,0-.08h0s.093.033.106,0-.073,0-.073,0a.046.046,0,0,0,0-.06c0-.053.04-.066.06-.113h-.1V.4c0,.046-.06,0-.073.033a.106.106,0,0,0-.1,0H2.424c-.053,0,0-.033,0-.04a.311.311,0,0,1,.213-.04c.106.02,0,0,.033,0a.3.3,0,0,1,.179.033h.286s.08,0,0-.046H3.36c.033,0,.12-.066.173-.046-.066,0-.073.033-.12.04H3.6a2.371,2.371,0,0,1,.392-.04H4.3a.053.053,0,0,0,.046,0A.206.206,0,0,0,4.41.246c.066,0,.053.033.106.033h.432c.086,0,0,0,.04-.04a.259.259,0,0,0,.106,0v.04H5.24a.7.7,0,0,0,.053-.06.664.664,0,0,0,.252,0s.053-.04,0-.053a1.521,1.521,0,0,1,.246,0h0a.272.272,0,0,0-.179,0,.076.076,0,0,1-.06.066c-.06.02.086,0,0,.04s.066,0,.106,0,0-.04,0-.053,0,0,.033,0h.053a.8.8,0,0,1,.213,0H5.97a.438.438,0,0,1,.133,0h.159c.033,0,0-.053.093-.046a.04.04,0,0,1,0-.046H6.229c-.04,0,.12,0,.1-.053H6.156c-.066,0-.08,0-.053.04H5.745c-.053,0,.053,0,.08.046a.79.79,0,0,1-.193,0h.033c-.007,0,.159,0,.186-.04a2.776,2.776,0,0,1-.345,0,.319.319,0,0,1-.193,0,.963.963,0,0,0-.186,0H4.748a.066.066,0,0,0,.046,0A.9.9,0,0,1,4.556.086h0l-.6.046H3.8A.7.7,0,0,0,3.56.166c-.04.033,0,0,0-.033a1.919,1.919,0,0,0-.193,0A.558.558,0,0,0,3.447.2c.033.02,0,0-.053,0h0a.153.153,0,0,1-.073,0c-.053-.066,0-.1,0-.173-.08,0-.1.093-.232.073h.033a1.255,1.255,0,0,0-.232,0s0,.066-.1.06h0a.219.219,0,0,1-.1,0H2.477c-.04,0,0,.04,0,.053s-.053,0-.053,0h-.1a2.092,2.092,0,0,0-.664,0h0a3.174,3.174,0,0,1-.352.04h0a.289.289,0,0,0-.159-.04h.086c.033,0,.04-.046.066-.066s0,0-.06,0-.173,0-.206.06.046,0,.04,0a.545.545,0,0,1-.2,0,.066.066,0,0,1-.04,0c-.08,0-.159,0-.179-.033a.445.445,0,0,1,.166,0,.206.206,0,0,1,.086,0A.048.048,0,0,0,.956.133a.558.558,0,0,0-.213,0H.564c-.053,0,0,.04,0,.046S.5.179.491.179H.425A.128.128,0,0,0,.458.252Zm.564,0h.066c.066,0,0,0,0-.033s.04,0,.053,0,0,0,0,.053A.392.392,0,0,1,.9.272h0a.432.432,0,0,1,.126-.04ZM2.211.179h0ZM5.459.02a.345.345,0,0,0,.113,0S5.5.02,5.479.06H5.406s0,.06-.04.08a.6.6,0,0,0-.206,0H5.007V.086H5.1a.392.392,0,0,1,.113,0,.246.246,0,0,1,.139,0,.219.219,0,0,0,0-.04H5.266a.372.372,0,0,1-.086,0h0a.6.6,0,0,1,.219,0c.066-.013.013-.033.06-.046Zm-3.4.2h0ZM3.752.133h.053a.053.053,0,0,1,0,.046h0a.305.305,0,0,0,.1,0,.153.153,0,0,0,.066,0H3.865a.073.073,0,0,1-.06,0c-.046,0-.066.053-.126.06h0a.054.054,0,0,0,.053-.06c0-.06-.06,0-.106,0H3.553c-.013,0,0-.046.093-.04s0,0,.04,0,.053-.007.066-.027Zm-2.3.133H1.441a.1.1,0,0,1,.013-.02Zm.312,0H1.7s.08-.033.066-.013Zm0,0h-.04L1.793.232ZM4.3.139a.2.2,0,0,1,.139,0L4.4.193H4.25c-.04,0,.06-.08.073-.086ZM.976.352a.246.246,0,0,1-.106,0s.159-.073.146-.033Zm.1,0h.113A.226.226,0,0,0,1.116.339ZM4.782.126h-.12s.126-.033.159-.013Zm-2.9.146a.166.166,0,0,1,.126.06h-.12A.387.387,0,0,0,1.926.259ZM4.137.166h.053s0,.033-.06.033.06-.027.046-.046Zm.485,0c.04,0,0,0,0,.04s.04-.066.04-.08ZM5.95.1h.093S5.977.086,5.99.06ZM2.092.312h.033a.166.166,0,0,1-.08,0h.06c.013,0,.02-.027.027-.04ZM4.748.179c.066,0,0,.04,0,.04h0s.04-.073.06-.08ZM5.824.139h.033C5.97.12,5.95.086,5.884.1ZM2.69.319H2.676ZM1.056.412H1c-.053,0,.08-.04.113-.04Zm.525.166H1.72c.033,0,.246-.046.193,0s-.073,0-.066,0a.538.538,0,0,1-.219.046A.6.6,0,0,0,1.64.538Z" transform="translate(32.694 2.172)" fill="#252a30" fill-rule="evenodd"/>
      <path id="Tracé_413" data-name="Tracé 413" d="M.1,0h0Z" transform="translate(36.992 2.113)" fill="#252a30" fill-rule="evenodd"/>
      <path id="Tracé_414" data-name="Tracé 414" d="M.062.009H.009S.049-.011.062.009Z" transform="translate(35.528 2.263)" fill="#252a30" fill-rule="evenodd"/>
      <path id="Tracé_415" data-name="Tracé 415" d="M.052,0H.012C-.028,0,.045.007.052,0Z" transform="translate(32.855 2.485)" fill="#252a30" fill-rule="evenodd"/>
      <path id="Tracé_416" data-name="Tracé 416" d="M.286.04H.14V.073c0,.033,0,0-.066,0h0S.014.033,0,.073.12.013.2,0h0A.239.239,0,0,0,.353,0,.274.274,0,0,0,.286.04Z" transform="translate(33.929 2.797)" fill="#252a30" fill-rule="evenodd"/>
      <path id="Tracé_417" data-name="Tracé 417" d="M.664,0H.584A.292.292,0,0,1,.425,0C.372.066.193.073.093.08S.033.08,0,.113a.75.75,0,0,0,.279,0H.325a.438.438,0,0,1,.153,0H.445a.664.664,0,0,0,.286,0C.843.2.843.06,1.036.113H1.009s-.06,0,0-.04H.8A.133.133,0,0,1,.664,0ZM.352.066Z" transform="translate(15.593 2.803)" fill="#252a30" fill-rule="evenodd"/>
      <path id="Tracé_418" data-name="Tracé 418" d="M.046,0H.279C.332,0,.206,0,.232.04S.186.04.146.04h0a.624.624,0,0,0,.2,0c-.04,0,0,0,0,.04a.332.332,0,0,1-.086,0A1.767,1.767,0,0,1,0,.08.263.263,0,0,0,.146.04c.04-.04-.033,0,0,0H.193A.176.176,0,0,1,.046,0Z" transform="translate(17.738 2.783)" fill="#252a30" fill-rule="evenodd"/>
      <path id="Tracé_419" data-name="Tracé 419" d="M.077.093s0,.04-.053,0H.316c.053,0-.08,0-.066-.073S.176.1.077.093ZM.2.133Z" transform="translate(23.997 2.372)" fill="#252a30" fill-rule="evenodd"/>
      <path id="Tracé_420" data-name="Tracé 420" d="M.359.036H.406A.065.065,0,0,1,.366.1H.505C.452.149.353.1.266.1H.173A.168.168,0,0,1,.067.056a.246.246,0,0,1,.1,0C.167.023.061.056.08.009H.127a.12.12,0,0,0-.093,0H.167C.1.009.227.056.167.063s.06,0,.086,0H.346S.366.036.359.036Z" transform="translate(19.982 2.595)" fill="#252a30" fill-rule="evenodd"/>
      <path id="Tracé_421" data-name="Tracé 421" d="M.146,0c.04,0,0,.04.046.053s.093,0,.086.033H.159c-.033,0,0,0,0,.04s-.04,0-.04,0H.146C.2.126.133.027.146,0Z" transform="translate(16.41 2.863)" fill="#252a30" fill-rule="evenodd"/>
      <path id="Tracé_422" data-name="Tracé 422" d="M.2,0A.279.279,0,0,1,0,.04.664.664,0,0,1,.2,0Z" transform="translate(27.262 2.425)" fill="#252a30" fill-rule="evenodd"/>
      <path id="Tracé_423" data-name="Tracé 423" d="M1.249.193a.664.664,0,0,0,.232,0h.08c.08,0,0,0,0-.073s-.046,0-.073,0,0,0,0-.04H1.348V.027c0-.053,0,0-.093,0s0,.06,0,.066H1.063c0-.04-.186,0-.219,0H.877C.843.093.877.139.79.146h0S.684.146.677.093H.744V.06h.266a.1.1,0,0,1-.053,0H.3c.033,0,.093.046.146,0h0a.279.279,0,0,0,.08,0V.093c0,.033,0,0-.046,0H.425V0H.146A.394.394,0,0,1,.332.066h0c.053,0,.053,0,.08.046s.106,0,.073,0A.4.4,0,0,1,.664.073h.12c.007,0-.033,0,0,.033H.963c.04,0-.04,0-.053.046S.8.153.731.153c0,0-.06,0-.06.04s-.126,0-.146,0,0-.04,0-.053,0,0,.053,0S.5.139.491.093a.365.365,0,0,0-.153.08s.066,0,.053.053A.618.618,0,0,1,.232.259h0a.339.339,0,0,1,.113,0H.325a.246.246,0,0,0,.133,0H.545c.04,0,.3,0,.359-.06s.113,0,.126,0a.736.736,0,0,1,.226.033c.086.033,0,0,0-.033s0,0,.053,0,0,0,0-.04l-.3.046S.916.206.9.166h0A1.78,1.78,0,0,0,1.249.193ZM1.209.06h.06S1.2.08,1.209.06Zm.106,0h.093a.239.239,0,0,1-.126,0h0ZM.591.206H.531A.541.541,0,0,0,.591.2Zm.193,0h.04A.412.412,0,0,1,.7.206S.79.252.784.226ZM1,.206H1V.232Z" transform="translate(38.957 2.259)" fill="#252a30" fill-rule="evenodd"/>
      <path id="Tracé_424" data-name="Tracé 424" d="M.446,0a.039.039,0,0,0,.04.04H.446c-.007,0,.04,0,0,.04A.086.086,0,0,0,.5.08c.04,0,.04.04.046.053s-.033,0-.053,0S.427.179.42.213a.093.093,0,0,1-.06,0A.1.1,0,0,1,.4.139c0-.033-.179,0-.206,0H.121s0-.046,0-.073-.073,0-.106,0,0,0,0-.046S.141.02.154.08.227.033.247.007a.173.173,0,0,0,.1,0h.04a.086.086,0,0,1,.066,0S.466,0,.446,0Z" transform="translate(35.489 2.564)" fill="#252a30" fill-rule="evenodd"/>
      <path id="Tracé_425" data-name="Tracé 425" d="M.3.056S.239.1.206.056s0,0-.046-.04,0,0,0,.053A.286.286,0,0,1,0,.069L.033.029c.033-.04.113,0,.133,0A.63.63,0,0,0,.3.056Z" transform="translate(33.478 2.8)" fill="#252a30" fill-rule="evenodd"/>
      <path id="Tracé_426" data-name="Tracé 426" d="M.216.06H.15C.19.06.223.106.269.1S.329.033.322,0A.213.213,0,0,1,.21,0S.243.053.216.06Zm.053,0h0S.249.033.269.04Z" transform="translate(38.707 2.511)" fill="#252a30" fill-rule="evenodd"/>
      <path id="Tracé_427" data-name="Tracé 427" d="M0,.014Z" transform="translate(39.734 0.392)" fill="#252a30" fill-rule="evenodd"/>
      <path id="Tracé_428" data-name="Tracé 428" d="M0,0H0V0Z" transform="translate(39.183 0.253)" fill="#252a30" fill-rule="evenodd"/>
      <path id="Tracé_429" data-name="Tracé 429" d="M.049.015H0S.056-.018.049.015Z" transform="translate(38.808 0.139)" fill="#252a30" fill-rule="evenodd"/>
      <path id="Tracé_430" data-name="Tracé 430" d="M.006,0V.033C.006.066-.007.027.006,0Z" transform="translate(39.057 0.207)" fill="#252a30" fill-rule="evenodd"/>
      <path id="Tracé_431" data-name="Tracé 431" d="M.042.021H.009C-.025.021.049-.026.042.021Z" transform="translate(38.423 0)" fill="#252a30" fill-rule="evenodd"/>
      <path id="Tracé_432" data-name="Tracé 432" d="M0,0Z" transform="translate(39.89 0.469)" fill="#252a30" fill-rule="evenodd"/>
      <path id="Tracé_433" data-name="Tracé 433" d="M0,0Z" transform="translate(39.017 0.22)" fill="#252a30" fill-rule="evenodd"/>
      <path id="Tracé_434" data-name="Tracé 434" d="M0,0Z" transform="translate(40.468 0.638)" fill="#252a30" fill-rule="evenodd"/>
      <path id="Tracé_435" data-name="Tracé 435" d="M0,.024Z" transform="translate(39.435 0.396)" fill="#252a30" fill-rule="evenodd"/>
      <path id="Tracé_436" data-name="Tracé 436" d="M0,.018H0C0-.028,0,.031,0,.018Z" transform="translate(40.906 0.7)" fill="#252a30" fill-rule="evenodd"/>
      <path id="Tracé_437" data-name="Tracé 437" d="M0,0Z" transform="translate(41.042 0.751)" fill="#252a30" fill-rule="evenodd"/>
      <path id="Tracé_438" data-name="Tracé 438" d="M0,0Z" transform="translate(40.092 0.572)" fill="#252a30" fill-rule="evenodd"/>
      <path id="Tracé_439" data-name="Tracé 439" d="M0,0Z" transform="translate(40.079 0.592)" fill="#252a30" fill-rule="evenodd"/>
      <path id="Tracé_440" data-name="Tracé 440" d="M0,.006Z" transform="translate(40.77 0.732)" fill="#252a30" fill-rule="evenodd"/>
      <path id="Tracé_441" data-name="Tracé 441" d="M0,0V.02Z" transform="translate(41.328 0.851)" fill="#252a30" fill-rule="evenodd"/>
      <path id="Tracé_442" data-name="Tracé 442" d="M0,0Z" transform="translate(40.431 0.725)" fill="#252a30" fill-rule="evenodd"/>
      <path id="Tracé_443" data-name="Tracé 443" d="M0,0Z" transform="translate(41.089 2.332)" fill="#252a30" fill-rule="evenodd"/>
      <path id="Tracé_444" data-name="Tracé 444" d="M0,0A.04.04,0,0,1,0,.04H0Z" transform="translate(40.405 0.718)" fill="#252a30" fill-rule="evenodd"/>
      <path id="Tracé_445" data-name="Tracé 445" d="M0,0Z" transform="translate(41.095 0.844)" fill="#252a30" fill-rule="evenodd"/>
      <path id="Tracé_446" data-name="Tracé 446" d="M0,0Z" transform="translate(41.221 2.133)" fill="#252a30" fill-rule="evenodd"/>
      <path id="Tracé_447" data-name="Tracé 447" d="M0,.015Z" transform="translate(40.096 0.657)" fill="#252a30" fill-rule="evenodd"/>
      <path id="Tracé_448" data-name="Tracé 448" d="M0,0Z" transform="translate(41.175 0.857)" fill="#252a30" fill-rule="evenodd"/>
      <path id="Tracé_449" data-name="Tracé 449" d="M0,0Z" transform="translate(41.208 2.163)" fill="#252a30" fill-rule="evenodd"/>
      <path id="Tracé_450" data-name="Tracé 450" d="M0,0V.046H0S0,0,0,0Z" transform="translate(41.126 0.857)" fill="#252a30" fill-rule="evenodd"/>
      <path id="Tracé_451" data-name="Tracé 451" d="M0,0V.066H0a.04.04,0,0,0,0-.04Z" transform="translate(41.175 0.871)" fill="#252a30" fill-rule="evenodd"/>
      <path id="Tracé_452" data-name="Tracé 452" d="M0,0Z" transform="translate(41.354 1.967)" fill="#252a30" fill-rule="evenodd"/>
      <path id="Tracé_453" data-name="Tracé 453" d="M0,0Z" transform="translate(41.275 0.884)" fill="#252a30" fill-rule="evenodd"/>
      <path id="Tracé_454" data-name="Tracé 454" d="M0,0Z" transform="translate(41.444 1.884)" fill="#252a30" fill-rule="evenodd"/>
      <path id="Tracé_455" data-name="Tracé 455" d="M0,0V.046H0A.1.1,0,0,1,0,0Z" transform="translate(38.15 0.034)" fill="#252a30" fill-rule="evenodd"/>
      <path id="Tracé_456" data-name="Tracé 456" d="M.006.006h0v.04h0S-.007-.02.006.006Z" transform="translate(41.242 0.884)" fill="#252a30" fill-rule="evenodd"/>
      <path id="Tracé_457" data-name="Tracé 457" d="M.19.584h0L.615.4,0,.066H0V.1H0s0-.033,0-.04,0-.04,0-.053H0v.04H0a.046.046,0,0,0,0,.04L.7.331.217.663h0A.359.359,0,0,0,.19.584Z" transform="translate(41.403 0.951)" fill="#252a30" fill-rule="evenodd"/>
      <path id="Tracé_458" data-name="Tracé 458" d="M0,0Z" transform="translate(41.275 2.063)" fill="#252a30" fill-rule="evenodd"/>
      <path id="Tracé_459" data-name="Tracé 459" d="M0,0Z" transform="translate(41.527 1.781)" fill="#252a30" fill-rule="evenodd"/>
      <path id="Tracé_460" data-name="Tracé 460" d="M.053.053A.133.133,0,0,0,0,0H.04C.08,0,.06.053.053.053Z" transform="translate(41.407 1.794)" fill="#252a30" fill-rule="evenodd"/>
      <path id="Tracé_461" data-name="Tracé 461" d="M0,0Z" transform="translate(41.633 1.648)" fill="#252a30" fill-rule="evenodd"/>
      <path id="Tracé_462" data-name="Tracé 462" d="M.077,0H.024A.138.138,0,0,1,.077,0Z" transform="translate(41.497 1.711)" fill="#252a30" fill-rule="evenodd"/>
      <path id="Tracé_463" data-name="Tracé 463" d="M0,0Z" transform="translate(40.85 2.548)" fill="#252a30" fill-rule="evenodd"/>
      <path id="Tracé_464" data-name="Tracé 464" d="M0,0Z" transform="translate(40.737 2.631)" fill="#252a30" fill-rule="evenodd"/>
      <path id="Tracé_465" data-name="Tracé 465" d="M.009.006Z" transform="translate(40.728 2.678)" fill="#252a30" fill-rule="evenodd"/>
      <path id="Tracé_466" data-name="Tracé 466" d="M0,0Z" transform="translate(40.803 2.558)" fill="#252a30" fill-rule="evenodd"/>
      <path id="Tracé_467" data-name="Tracé 467" d="M.073.021A.086.086,0,0,1,0,.021H0a.093.093,0,0,1,.073,0Z" transform="translate(41.54 1.62)" fill="#252a30" fill-rule="evenodd"/>
      <path id="Tracé_468" data-name="Tracé 468" d="M0,0Z" transform="translate(40.438 3.066)" fill="#252a30" fill-rule="evenodd"/>
      <path id="Tracé_469" data-name="Tracé 469" d="M.033,0H0S.033,0,.033,0Z" transform="translate(41.321 1.91)" fill="#252a30" fill-rule="evenodd"/>
      <path id="Tracé_470" data-name="Tracé 470" d="M0,0Z" transform="translate(40.564 2.873)" fill="#252a30" fill-rule="evenodd"/>
      <path id="Tracé_471" data-name="Tracé 471" d="M0,0Z" transform="translate(40.577 2.85)" fill="#252a30" fill-rule="evenodd"/>
      <path id="Tracé_472" data-name="Tracé 472" d="M0,0Z" transform="translate(40.544 2.896)" fill="#252a30" fill-rule="evenodd"/>
      <path id="Tracé_473" data-name="Tracé 473" d="M0,.067H0V.021H0Z" transform="translate(41.175 0.89)" fill="#252a30" fill-rule="evenodd"/>
      <path id="Tracé_474" data-name="Tracé 474" d="M0,.014V.081H0V.028C0-.026,0,.014,0,.014Z" transform="translate(41.378 0.943)" fill="#252a30" fill-rule="evenodd"/>
      <path id="Tracé_475" data-name="Tracé 475" d="M0,0Z" transform="translate(38.071 0.08)" fill="#252a30" fill-rule="evenodd"/>
      <path id="Tracé_476" data-name="Tracé 476" d="M0,.006Z" transform="translate(41.039 0.931)" fill="#252a30" fill-rule="evenodd"/>
      <path id="Tracé_477" data-name="Tracé 477" d="M0,0Z" transform="translate(41.175 0.95)" fill="#252a30" fill-rule="evenodd"/>
      <path id="Tracé_478" data-name="Tracé 478" d="M0,0Z" transform="translate(41.487 1.721)" fill="#252a30" fill-rule="evenodd"/>
      <path id="Tracé_479" data-name="Tracé 479" d="M0,0Z" transform="translate(41.079 2.163)" fill="#252a30" fill-rule="evenodd"/>
      <path id="Tracé_480" data-name="Tracé 480" d="M0,0H.033C.066,0,.007,0,0,0Z" transform="translate(41.321 1.864)" fill="#252a30" fill-rule="evenodd"/>
      <path id="Tracé_481" data-name="Tracé 481" d="M0,.006Z" transform="translate(40.597 2.751)" fill="#252a30" fill-rule="evenodd"/>
      <path id="Tracé_482" data-name="Tracé 482" d="M.006.006Z" transform="translate(40.598 2.731)" fill="#252a30" fill-rule="evenodd"/>
      <path id="Tracé_483" data-name="Tracé 483" d="M0,.067H0V0A.053.053,0,0,1,0,.067Z" transform="translate(40.617 2.604)" fill="#252a30" fill-rule="evenodd"/>
      <path id="Tracé_484" data-name="Tracé 484" d="M0,0V0Z" transform="translate(41.387 1.017)" fill="#252a30" fill-rule="evenodd"/>
      <path id="Tracé_485" data-name="Tracé 485" d="M0,.018H0C0,.058.007.018,0,.018Z" transform="translate(41.368 1.763)" fill="#252a30" fill-rule="evenodd"/>
      <path id="Tracé_486" data-name="Tracé 486" d="M0,0Z" transform="translate(40.677 2.588)" fill="#252a30" fill-rule="evenodd"/>
      <path id="Tracé_487" data-name="Tracé 487" d="M0,0Z" transform="translate(41.454 1.641)" fill="#252a30" fill-rule="evenodd"/>
      <path id="Tracé_488" data-name="Tracé 488" d="M0,0Z" transform="translate(41.507 1.555)" fill="#252a30" fill-rule="evenodd"/>
      <path id="Tracé_489" data-name="Tracé 489" d="M0,0Z" transform="translate(40.378 2.91)" fill="#252a30" fill-rule="evenodd"/>
      <path id="Tracé_490" data-name="Tracé 490" d="M0,0Z" transform="translate(40.511 2.684)" fill="#252a30" fill-rule="evenodd"/>
      <path id="Tracé_491" data-name="Tracé 491" d="M.015.018c-.033,0,0-.04,0,0S.015.011.015.018Z" transform="translate(40.496 2.699)" fill="#252a30" fill-rule="evenodd"/>
      <path id="Tracé_492" data-name="Tracé 492" d="M0,.064H0v0Z" transform="translate(40.471 2.733)" fill="#252a30" fill-rule="evenodd"/>
      <path id="Tracé_493" data-name="Tracé 493" d="M0,0Z" transform="translate(40.428 2.836)" fill="#252a30" fill-rule="evenodd"/>
      <path id="Tracé_494" data-name="Tracé 494" d="M.044,0a.186.186,0,0,1,0,.053H.011C-.022.053.031.007.044,0Z" transform="translate(40.64 0.984)" fill="#252a30" fill-rule="evenodd"/>
      <path id="Tracé_495" data-name="Tracé 495" d="M0,.04H0A.042.042,0,0,1,.053,0C.106.007.007.021,0,.04Z" transform="translate(40.664 2.477)" fill="#252a30" fill-rule="evenodd"/>
      <path id="Tracé_496" data-name="Tracé 496" d="M0,0Z" transform="translate(40.71 2.455)" fill="#252a30" fill-rule="evenodd"/>
      <path id="Tracé_497" data-name="Tracé 497" d="M.006,0Z" transform="translate(40.273 2.989)" fill="#252a30" fill-rule="evenodd"/>
      <path id="Tracé_498" data-name="Tracé 498" d="M0,0Z" transform="translate(40.245 3.016)" fill="#252a30" fill-rule="evenodd"/>
      <path id="Tracé_499" data-name="Tracé 499" d="M0,0Z" transform="translate(40.239 3.036)" fill="#252a30" fill-rule="evenodd"/>
      <path id="Tracé_500" data-name="Tracé 500" d="M.006.009Z" transform="translate(40.319 2.927)" fill="#252a30" fill-rule="evenodd"/>
      <path id="Tracé_501" data-name="Tracé 501" d="M.006,0Z" transform="translate(40.452 2.734)" fill="#252a30" fill-rule="evenodd"/>
      <path id="Tracé_502" data-name="Tracé 502" d="M0,0Z" transform="translate(40.395 2.79)" fill="#252a30" fill-rule="evenodd"/>
      <path id="Tracé_503" data-name="Tracé 503" d="M0,.009Z" transform="translate(41.175 1.805)" fill="#252a30" fill-rule="evenodd"/>
      <path id="Tracé_504" data-name="Tracé 504" d="M0,.052V.012C0-.028.013.045,0,.052Z" transform="translate(40.013 3.183)" fill="#252a30" fill-rule="evenodd"/>
      <path id="Tracé_505" data-name="Tracé 505" d="M0,0Z" transform="translate(39.993 3.295)" fill="#252a30" fill-rule="evenodd"/>
      <path id="Tracé_506" data-name="Tracé 506" d="M0,0H.06A.033.033,0,0,1,.03.019.033.033,0,0,1,0,0Z" transform="translate(39.94 3.335)" fill="#252a30" fill-rule="evenodd"/>
      <path id="Tracé_507" data-name="Tracé 507" d="M0,0Z" transform="translate(39.9 3.394)" fill="#252a30" fill-rule="evenodd"/>
      <path id="Tracé_508" data-name="Tracé 508" d="M0,0Z" transform="translate(39.847 3.491)" fill="#252a30" fill-rule="evenodd"/>
      <path id="Tracé_509" data-name="Tracé 509" d="M0,.077H0S.033.077.053.024h0Z" transform="translate(39.74 3.55)" fill="#252a30" fill-rule="evenodd"/>
      <path id="Tracé_510" data-name="Tracé 510" d="M0,.04V0H.04A.053.053,0,0,1,0,.04Z" transform="translate(39.701 3.66)" fill="#252a30" fill-rule="evenodd"/>
      <path id="Tracé_511" data-name="Tracé 511" d="M.024.006Z" transform="translate(39.212 4.511)" fill="#252a30" fill-rule="evenodd"/>
      <path id="Tracé_512" data-name="Tracé 512" d="M0,0Z" transform="translate(39.568 3.899)" fill="#252a30" fill-rule="evenodd"/>
      <path id="Tracé_513" data-name="Tracé 513" d="M0,0Z" transform="translate(39.242 4.47)" fill="#252a30" fill-rule="evenodd"/>
      <path id="Tracé_514" data-name="Tracé 514" d="M0,0H.046A.106.106,0,0,1,0,0Z" transform="translate(39.594 3.813)" fill="#252a30" fill-rule="evenodd"/>
      <path id="Tracé_515" data-name="Tracé 515" d="M0,.018H0C0,.058.02.018,0,.018Z" transform="translate(39.574 3.861)" fill="#252a30" fill-rule="evenodd"/>
      <path id="Tracé_516" data-name="Tracé 516" d="M0,0Z" transform="translate(39.369 4.248)" fill="#252a30" fill-rule="evenodd"/>
      <path id="Tracé_517" data-name="Tracé 517" d="M.006,0Z" transform="translate(39.283 4.388)" fill="#252a30" fill-rule="evenodd"/>
      <path id="Tracé_518" data-name="Tracé 518" d="M0,0Z" transform="translate(39.183 4.623)" fill="#252a30" fill-rule="evenodd"/>
      <path id="Tracé_519" data-name="Tracé 519" d="M0,0Z" transform="translate(39.289 4.384)" fill="#252a30" fill-rule="evenodd"/>
      <path id="Tracé_520" data-name="Tracé 520" d="M0,0Z" transform="translate(39.408 4.151)" fill="#252a30" fill-rule="evenodd"/>
      <path id="Tracé_521" data-name="Tracé 521" d="M0,0Z" transform="translate(39.481 4.012)" fill="#252a30" fill-rule="evenodd"/>
      <path id="Tracé_522" data-name="Tracé 522" d="M.006,0Z" transform="translate(39.436 4.089)" fill="#252a30" fill-rule="evenodd"/>
      <path id="Tracé_523" data-name="Tracé 523" d="M0,0Z" transform="translate(39.076 4.729)" fill="#252a30" fill-rule="evenodd"/>
      <path id="Tracé_524" data-name="Tracé 524" d="M0,0Z" transform="translate(39.116 4.66)" fill="#252a30" fill-rule="evenodd"/>
      <path id="Tracé_525" data-name="Tracé 525" d="M0,0Z" transform="translate(39.056 4.789)" fill="#252a30" fill-rule="evenodd"/>
      <path id="Tracé_526" data-name="Tracé 526" d="M.006,0Z" transform="translate(39.031 4.809)" fill="#252a30" fill-rule="evenodd"/>
      <path id="Tracé_527" data-name="Tracé 527" d="M0,0Z" transform="translate(39.003 4.862)" fill="#252a30" fill-rule="evenodd"/>
      <path id="Tracé_528" data-name="Tracé 528" d="M.006.006Z" transform="translate(39.927 3.222)" fill="#252a30" fill-rule="evenodd"/>
      <path id="Tracé_529" data-name="Tracé 529" d="M0,0Z" transform="translate(39.754 3.491)" fill="#252a30" fill-rule="evenodd"/>
      <path id="Tracé_530" data-name="Tracé 530" d="M0,0Z" transform="translate(39.664 3.624)" fill="#252a30" fill-rule="evenodd"/>
      <path id="Tracé_531" data-name="Tracé 531" d="M.012.009Z" transform="translate(39.961 3.133)" fill="#252a30" fill-rule="evenodd"/>
      <path id="Tracé_532" data-name="Tracé 532" d="M0,0Z" transform="translate(39.355 4.078)" fill="#252a30" fill-rule="evenodd"/>
      <path id="Tracé_533" data-name="Tracé 533" d="M0,0Z" transform="translate(39.342 4.132)" fill="#252a30" fill-rule="evenodd"/>
      <path id="Tracé_534" data-name="Tracé 534" d="M0,0Z" transform="translate(39.375 4.045)" fill="#252a30" fill-rule="evenodd"/>
      <path id="Tracé_535" data-name="Tracé 535" d="M0,0Z" transform="translate(39.183 4.404)" fill="#252a30" fill-rule="evenodd"/>
      <path id="Tracé_536" data-name="Tracé 536" d="M0,0Z" transform="translate(39.183 4.344)" fill="#252a30" fill-rule="evenodd"/>
      <path id="Tracé_537" data-name="Tracé 537" d="M0,0Z" transform="translate(39.229 4.258)" fill="#252a30" fill-rule="evenodd"/>
      <path id="Tracé_538" data-name="Tracé 538" d="M0,.04V0S.033.046,0,.04Z" transform="translate(39.329 4.019)" fill="#252a30" fill-rule="evenodd"/>
      <path id="Tracé_539" data-name="Tracé 539" d="M0,.015Z" transform="translate(39.359 3.977)" fill="#252a30" fill-rule="evenodd"/>
      <path id="Tracé_540" data-name="Tracé 540" d="M0,0Z" transform="translate(38.944 4.759)" fill="#252a30" fill-rule="evenodd"/>
      <path id="Tracé_541" data-name="Tracé 541" d="M0,0Z" transform="translate(39.183 4.264)" fill="#252a30" fill-rule="evenodd"/>
      <path id="Tracé_542" data-name="Tracé 542" d="M0,0Z" transform="translate(39.242 4.129)" fill="#252a30" fill-rule="evenodd"/>
      <path id="Tracé_543" data-name="Tracé 543" d="M0,0Z" transform="translate(38.91 4.746)" fill="#252a30" fill-rule="evenodd"/>
      <path id="Tracé_544" data-name="Tracé 544" d="M.006,0Z" transform="translate(39.422 3.633)" fill="#252a30" fill-rule="evenodd"/>
      <path id="Tracé_545" data-name="Tracé 545" d="M0,0Z" transform="translate(39.402 3.627)" fill="#252a30" fill-rule="evenodd"/>
      <path id="Tracé_546" data-name="Tracé 546" d="M0,.046H0V0Z" transform="translate(38.711 4.915)" fill="#252a30" fill-rule="evenodd"/>
      <path id="Tracé_547" data-name="Tracé 547" d="M0,0Z" transform="translate(38.682 5.005)" fill="#252a30" fill-rule="evenodd"/>
      <path id="Tracé_548" data-name="Tracé 548" d="M0,0Z" transform="translate(39.342 3.534)" fill="#252a30" fill-rule="evenodd"/>
      <path id="Tracé_549" data-name="Tracé 549" d="M0,.06H0V0H0L.033.053C.066.106.046.073,0,.06Z" transform="translate(38.671 4.696)" fill="#252a30" fill-rule="evenodd"/>
      <path id="Tracé_550" data-name="Tracé 550" d="M.015,0Z" transform="translate(38.617 4.922)" fill="#252a30" fill-rule="evenodd"/>
      <path id="Tracé_551" data-name="Tracé 551" d="M0,0Z" transform="translate(39.183 3.799)" fill="#252a30" fill-rule="evenodd"/>
      <path id="Tracé_552" data-name="Tracé 552" d="M0,0Z" transform="translate(39.508 3.295)" fill="#252a30" fill-rule="evenodd"/>
      <path id="Tracé_553" data-name="Tracé 553" d="M0,0Z" transform="translate(38.565 4.955)" fill="#252a30" fill-rule="evenodd"/>
      <path id="Tracé_554" data-name="Tracé 554" d="M0,0Z" transform="translate(38.791 4.503)" fill="#252a30" fill-rule="evenodd"/>
      <path id="Tracé_555" data-name="Tracé 555" d="M0,0H.033C.066,0,0,0,0,0Z" transform="translate(39.056 4.009)" fill="#252a30" fill-rule="evenodd"/>
      <path id="Tracé_556" data-name="Tracé 556" d="M0,0Z" transform="translate(39.907 2.631)" fill="#252a30" fill-rule="evenodd"/>
      <path id="Tracé_557" data-name="Tracé 557" d="M0,0Z" transform="translate(39.847 2.631)" fill="#252a30" fill-rule="evenodd"/>
      <path id="Tracé_558" data-name="Tracé 558" d="M.018,0Z" transform="translate(39.271 3.594)" fill="#252a30" fill-rule="evenodd"/>
      <path id="Tracé_559" data-name="Tracé 559" d="M0,0Z" transform="translate(39.691 2.94)" fill="#252a30" fill-rule="evenodd"/>
      <path id="Tracé_560" data-name="Tracé 560" d="M.152.063H.046V.1H.119V.136h0S.139.063.152.063ZM.006,0Z" transform="translate(38.772 4.102)" fill="#252a30" fill-rule="evenodd"/>
      <path id="Tracé_561" data-name="Tracé 561" d="M0,0Z" transform="translate(38.884 4.231)" fill="#252a30" fill-rule="evenodd"/>
      <path id="Tracé_562" data-name="Tracé 562" d="M0,0Z" transform="translate(38.851 4.301)" fill="#252a30" fill-rule="evenodd"/>
      <path id="Tracé_563" data-name="Tracé 563" d="M.009.006Z" transform="translate(39.234 3.594)" fill="#252a30" fill-rule="evenodd"/>
      <path id="Tracé_564" data-name="Tracé 564" d="M0,0Z" transform="translate(38.851 4.244)" fill="#252a30" fill-rule="evenodd"/>
      <path id="Tracé_565" data-name="Tracé 565" d="M.156.009h0s-.066,0,0,.06-.04,0,0,0H.117a.071.071,0,0,0-.04-.06c-.04-.02,0,0-.053,0h.06c.06,0,0,0,0,.04s.04,0,0,0H.13c.007,0,0,0,0-.033H.21S.13,0,.156.009Z" transform="translate(38.694 4.236)" fill="#252a30" fill-rule="evenodd"/>
      <path id="Tracé_566" data-name="Tracé 566" d="M.046.006A.046.046,0,0,1,0,.006.052.052,0,0,1,.046.006Z" transform="translate(39.083 3.76)" fill="#252a30" fill-rule="evenodd"/>
      <path id="Tracé_567" data-name="Tracé 567" d="M0,0Z" transform="translate(38.631 4.696)" fill="#252a30" fill-rule="evenodd"/>
      <path id="Tracé_568" data-name="Tracé 568" d="M0,0Z" transform="translate(38.831 4.298)" fill="#252a30" fill-rule="evenodd"/>
      <path id="Tracé_569" data-name="Tracé 569" d="M0,0Z" transform="translate(38.917 4.078)" fill="#252a30" fill-rule="evenodd"/>
      <path id="Tracé_570" data-name="Tracé 570" d="M.136.037V.11H.089c0-.04,0,0,0,.033H.049c-.04,0-.073-.02-.027-.02s0-.046.04-.046h.02c.027,0,0,0,0-.053s0,0,.06,0H.189s0,.033,0,.046S.175.044.136.037Z" transform="translate(38.496 4.5)" fill="#252a30" fill-rule="evenodd"/>
      <path id="Tracé_571" data-name="Tracé 571" d="M0,.009Z" transform="translate(38.711 4.441)" fill="#252a30" fill-rule="evenodd"/>
      <path id="Tracé_572" data-name="Tracé 572" d="M0,.04V0H0A.076.076,0,0,1,0,.04Z" transform="translate(39.588 2.803)" fill="#252a30" fill-rule="evenodd"/>
      <path id="Tracé_573" data-name="Tracé 573" d="M.006,0Z" transform="translate(39.582 2.8)" fill="#252a30" fill-rule="evenodd"/>
      <path id="Tracé_574" data-name="Tracé 574" d="M0,0Z" transform="translate(38.711 4.251)" fill="#252a30" fill-rule="evenodd"/>
      <path id="Tracé_575" data-name="Tracé 575" d="M0,0Z" transform="translate(38.631 4.391)" fill="#252a30" fill-rule="evenodd"/>
      <path id="Tracé_576" data-name="Tracé 576" d="M.066.033,0,0H.06A.288.288,0,0,1,.066.033Z" transform="translate(39.415 2.89)" fill="#252a30" fill-rule="evenodd"/>
      <path id="Tracé_577" data-name="Tracé 577" d="M0,0Z" transform="translate(38.678 4.281)" fill="#252a30" fill-rule="evenodd"/>
      <path id="Tracé_578" data-name="Tracé 578" d="M0,0Z" transform="translate(38.917 3.826)" fill="#252a30" fill-rule="evenodd"/>
      <path id="Tracé_579" data-name="Tracé 579" d="M.058,0H.018A.076.076,0,0,1,.058,0Z" transform="translate(38.693 4.135)" fill="#252a30" fill-rule="evenodd"/>
      <path id="Tracé_580" data-name="Tracé 580" d="M.046,0H.04C.08,0,.053,0,.046,0Z" transform="translate(38.671 4.175)" fill="#252a30" fill-rule="evenodd"/>
      <path id="Tracé_581" data-name="Tracé 581" d="M.04.04h0L0,0H0Z" transform="translate(39.269 3.115)" fill="#252a30" fill-rule="evenodd"/>
      <path id="Tracé_582" data-name="Tracé 582" d="M0,0Z" transform="translate(38.834 3.959)" fill="#252a30" fill-rule="evenodd"/>
      <path id="Tracé_583" data-name="Tracé 583" d="M.04,0H0S.033,0,.04,0Z" transform="translate(39.508 2.78)" fill="#252a30" fill-rule="evenodd"/>
      <path id="Tracé_584" data-name="Tracé 584" d="M.015,0H.068C.088,0,.055.02.015,0Z" transform="translate(38.63 4.191)" fill="#252a30" fill-rule="evenodd"/>
      <path id="Tracé_585" data-name="Tracé 585" d="M0,0Z" transform="translate(39.183 3.242)" fill="#252a30" fill-rule="evenodd"/>
      <path id="Tracé_586" data-name="Tracé 586" d="M0,0Z" transform="translate(38.648 4.228)" fill="#252a30" fill-rule="evenodd"/>
      <path id="Tracé_587" data-name="Tracé 587" d="M.006,0Z" transform="translate(38.619 4.248)" fill="#252a30" fill-rule="evenodd"/>
      <path id="Tracé_588" data-name="Tracé 588" d="M.04,0H0C.007,0,.027,0,.04,0Z" transform="translate(38.684 4.056)" fill="#252a30" fill-rule="evenodd"/>
      <path id="Tracé_589" data-name="Tracé 589" d="M1.9.487V.428H1.829c-.027,0,0-.033,0-.046h0V.428h0V.4H1.65v.02h0V.341h0s-.04.053-.053,0h0l-.04.04c-.04.04,0-.033,0-.053s0,0-.06,0h0a.06.06,0,0,0,0-.053H1.464a.312.312,0,0,1,0-.06h0s0-.04-.046,0h0L1.384.262C1.351.308,1.344.2,1.3.175a.206.206,0,0,1,0-.053L1.232.2s-.04,0,0-.066-.053,0-.086,0H1.092V.076h0L.72.109h0V.155h0V.116C.68.116.68.042.634.062s0,0,0-.04h0V.076C.634.1.561.076.581.023s0,0-.053.033L.481.135h0v.04h0a.146.146,0,0,1,0-.066H.395c-.027,0,0,0-.053.04s0,0-.04.033,0,0-.04,0H.222A.139.139,0,0,0,.1.235C.1.275.1.3.1.355h0A.426.426,0,0,1,.1.4C.043.448.1.527.03.58s0,.033,0,.06.046.033.086,0,0,0,0,.033h0A.347.347,0,0,1,.2.76h0s0,.06.04.04h0A.08.08,0,0,0,.269.766h0s.066,0,.08.04h0s0,.046.066,0H.468c.013,0,0,.046.06,0A.791.791,0,0,0,.66.859H.846c.046,0,0,.046,0,.033s.113.04.139.093.06.04.1,0h0s.093,0,.12.04.086,0,.126,0h0s.06.06.1,0h.053s.06.033.086,0,0,0,.046.04h.239a.445.445,0,0,0,.133,0c0,.053.046,0,.066,0h0l.252.08h.246a.307.307,0,0,1,.166.046c.053.046.046,0,.066,0h.173a.053.053,0,0,0,.053,0h0v.053c0,.013.113,0,.166,0h.08l-.292-.8h0v.04h0A.578.578,0,0,0,2.806.64V.68c0,.04-.04,0,0,0h0V.72c0,.04-.053-.046-.046,0h0V.76h0V.793L2.713.76V.806h-.06c.02,0,0,.066-.066.053s0,0,0,.04h-.08c-.033,0,0,.086.046.133h0V.992H2.507l-.033.046H2.42c-.053,0,0,.033,0,.04h0v.033h0a.129.129,0,0,1-.06.1c-.06.04-.04,0,0,.033s-.06,0-.08.046a.093.093,0,0,1,0,.04h-.04c-.04,0,0,0,0,.046h0a.106.106,0,0,0-.06.046h0c-.04,0-.04.04-.06.06h0s0,.066-.08.046,0,.046-.046.053,0,.06,0,.073H2s-.033,0,0,.066H2v.04H2V1.8H2s.04.04,0,.053H2s-.073,0-.046-.04,0,0-.04-.046h0v.053h0v.04c0,.04-.033,0-.04,0H1.823a.046.046,0,0,0,0,.04h0v.04H1.776s0,.066,0,.093h0c.033,0,.053,0,.033.04h0a.106.106,0,0,0,.053.04h0a.046.046,0,0,1,.06-.046h0c.046,0,0-.04,0-.066h0c0-.04.04-.046.046-.086a.08.08,0,0,1,0,.053H1.916v.08c0,.04,0,.04-.06,0H1.823a.838.838,0,0,0,.086.06H1.862a1.1,1.1,0,0,0-.086-.093h0c0,.046-.033,0-.046-.046h0a.066.066,0,0,1-.06,0v.066H1.637v-.04h.046c.007,0-.08-.053-.08,0h0a.039.039,0,0,1,.04.046H1.69c.046,0,.053,0,.046.046H1.63c-.046,0,0,0,0,.04a.04.04,0,0,1-.046,0h.033a.053.053,0,0,1,0,.046c.04,0,.066.046,0,.046s0-.033-.06-.04-.06,0,0,0-.04,0-.046.033a.073.073,0,0,0,.066,0s.046.06,0,.046H1.491s-.08,0-.073.04h.046s-.053,0-.046.08.093.046.12.04h0V2.327h0s.04.053.033.073,0,0-.033,0H1.431c-.04,0-.046.04-.066.066s.033.04.066.053h0a.07.07,0,0,0-.046-.06H1.57c.027,0,0-.04,0-.046V2.367c0-.046.04,0,.046,0h.007a.046.046,0,0,1,.033,0H1.584c-.04,0,0,0,.04.04h0a.106.106,0,0,1,.053.033s0,0,0,.046.046,0,.046,0h.046v-.04c0-.04-.033,0-.04,0h0c-.04-.033,0-.046,0-.06h.04V2.42c0,.033.06.04.073.06h0s-.046-.086,0-.066H1.9s.046,0,0-.053h0c-.04,0-.12-.066-.113-.093s0,0-.053,0l-.106-.04V2.181h0a.126.126,0,0,1,.066,0s0,.033,0,.033v.04c0,.04,0,0,.033,0h.06a.059.059,0,0,0,.06.06c.06,0,0,0,0-.04s.04,0,.066,0h0l.04-.046c.04-.046,0,0,0-.04H1.862s.06,0,.073.04h0s0,.04.066.053,0,0,.033,0a9.839,9.839,0,0,1,.013.99H2.015s0-.04.046,0,0,0-.033,0h.04c-.033-.04,0-.046-.033-.1h.053s0-.04.06-.04h0c.046,0,.04-.053.086-.073h0A.093.093,0,0,0,2.268,3h0a.04.04,0,0,1,.046,0H2.261c-.053,0,0,.046,0,.04H2.228v.04c0,.04,0,0,.046,0h0a.586.586,0,0,0,.113-.153h0a1.241,1.241,0,0,1,.133-.193v-.08h0l.193-.053h0a.272.272,0,0,0,.08-.126h0c-.04,0,0,.033-.06,0h0a.073.073,0,0,1,0-.053h-.04a.4.4,0,0,1,.08,0h0a.159.159,0,0,0-.04.053h0s.053-.04.033-.08h0a.064.064,0,0,0-.04-.053h0V2.314c0-.033,0,0,.033,0h0a.039.039,0,0,0,.04-.046h0V2.32h0s0,.053-.04,0H2.726a.086.086,0,0,0,.033.04s0-.04.06-.053,0-.053,0-.06v.04c0,.04.053,0,.053-.066V2.188h0a.058.058,0,0,0,.06-.066h0s-.046.06-.066.08a.06.06,0,0,1,0,.04h.066s.06-.06.086-.08,0,0-.033,0h0V2.128h0a.23.23,0,0,1,.08-.06h0V2.035h0v-.04h0v-.04s0-.046.073,0,0,0,0,.033h0v.033h0a.551.551,0,0,0,.08-.106H3.184a.048.048,0,0,0-.053-.046c-.053,0,0,0,0-.04a.046.046,0,0,1,0,.04h.046l.252.073h0l.053.04h0s.04-.066,0-.1h0l-.04-.04h0V1.809H3.49s-.113.027-.113.013V1.756c0-.02.04,0,.04,0H3.45a.074.074,0,0,0,.073-.08h0v.04h0V1.67h0l.04.033h0a.126.126,0,0,1-.046-.04h0V1.63H3.483a1.092,1.092,0,0,1,.106-.086h.04l.066.073h-.04c-.04,0,0-.04,0-.04V1.53l-.1-.4v.04H3.4v-.06c0-.06,0,0,.04,0V1.045h0a.3.3,0,0,0,0,.053l-.033.053h0V1.1h0v.04h0a.073.073,0,0,1,0-.04.112.112,0,0,1-.04.08c-.04.033,0-.04,0-.04v.04c0,.007-.04,0,0-.053h0c0,.04,0,.073-.053.073s0-.04,0-.04V1.092c0-.027-.046,0-.046-.053h0A.058.058,0,0,0,3.324.992h0a.1.1,0,0,0-.08-.066V.839h0a.073.073,0,0,0,0,.066h0V.859h0V.826h0V.793h0s-.046.046-.053,0h0a.372.372,0,0,0,0,.046h0V.873a.088.088,0,0,1-.046.093h0v.046c0,.007,0,0-.04.053h0a.093.093,0,0,1,0,.04H3a.106.106,0,0,1,0-.046H3v-.04H3a.093.093,0,0,1,0,.04H3v.046a.1.1,0,0,1,0-.073H3s0-.033.04,0,0,0,0-.046,0-.046.04-.033V.979h0V.939h0V.972h.033v.033h0V.946h0V.879c0-.033-.046.04-.06,0s0,0,0-.04h0V.926h0s0,.053.04,0-.04.04-.046,0-.046,0-.066,0,0-.033,0-.06h.04s0,.04-.053.033h0V.859c0-.04,0,0-.046,0H2.832v.06a.073.073,0,0,1,0-.033h0a.153.153,0,0,0,0,.046h0a.04.04,0,0,0,0-.033h0V.8h0V.846c0,.007-.04.066,0,0h0V.813h0s-.053,0-.033-.08-.04,0-.053,0h0L2.706.78a.106.106,0,0,1,0-.066h0S2.673.786,2.659.76h0V.806h0V.773a.226.226,0,0,0,0,.066c0,.033,0-.06-.053,0s0,0,0-.066h0V.726a.345.345,0,0,0,0-.073h0L2.175.614s-.093,0-.126-.046.046,0,.066,0,0-.033,0-.033V.461h0L2.075.5h0V.56h0V.521h0V.574h0a.046.046,0,0,0,0-.033s0,.033,0,.033S1.889.541,1.9.487ZM2.62.866h0a.058.058,0,0,1-.04.053H2.507a.04.04,0,0,0,.04,0,.062.062,0,0,1-.06-.06c-.007-.06,0,.046,0,.046h0V.813c0-.046.046,0,.04.046s.046-.04.073,0h0S2.626.819,2.62.866Zm.365,1.461h-.04C2.905,2.327,2.972,2.32,2.985,2.327ZM1.7.394Zm.053,0h0c0-.033-.007.013,0,.013Zm0,0Zm-.073,0v.06h0Zm.159.06h0s-.007.02,0,.02ZM1.384.348Zm.06,0h0s.013.033.013.027ZM1.232.315s0,.04-.04,0,0,0,0-.053Zm0,0h0s.033-.007.027.013ZM2.4.614ZM1.677.507h0V.467C1.677.428,1.7.467,1.677.507ZM.421.023ZM.787.2ZM2.4.713Zm-.352-.1Zm.3.12h0C2.341.68,2.354.7,2.347.74ZM1.577.494ZM2.1.653ZM2.766.8v0h0s.013-.007.02,0Zm.219.046c.027.08-.007.053.02,0Zm.246,1.368h0s.007-.013.02,0ZM2.135.68v0ZM3.377,2.055ZM2.048.687V.733h0a.06.06,0,0,1,0-.053S2,.746,1.975.68s0,0,0-.04V.607a.073.073,0,0,1,.06.04S2.048.614,2.048.687ZM3.49,1.942a.04.04,0,0,1,0-.033S3.509,1.942,3.49,1.942ZM1.743.614Zm.564.12a.153.153,0,0,0,0,.08V.866c0,.053,0,0-.046,0a.457.457,0,0,1,0-.053c0-.04-.033,0-.046,0h-.06V.819c0,.04.04-.06.046-.093A.073.073,0,0,1,2.307.74Zm.611.292v-.1h0V.893a.153.153,0,0,0,0,.046h0s.046,0,.053.04,0-.04.046,0H2.985c-.033,0,0,.04,0,0h0V.939h0V.992c0,.053,0-.033-.04,0h-.04s0,.033.013.04ZM1.783.614a.126.126,0,0,1,0,.046h0S1.769.614,1.783.614ZM2.1.793h0V.7c0-.04,0,.053,0,.086ZM1.882.653h0V.647Zm-.06,0V.7c0,.046-.013-.086,0-.086Zm.81.286h0a.14.14,0,0,0,0-.04s-.007.02,0,.02Zm0-.053V.833a.664.664,0,0,0,0,.113h0V.9c0-.007-.02.007,0-.033Zm.518,1.255h.033c.033,0,0,.046,0,.06h-.04v-.04H3.1V2.114c0-.046,0,0,.04,0s.02.013.013.007ZM2.347.813h0s-.007-.046,0-.033ZM1.5.554Zm.564.159h0s0,.033-.046,0h0s.027.013.027,0ZM3.377,1.942ZM2.161.78h0V.74C2.161.7,2.175.733,2.161.78Zm.246,0v.04h0s-.013-.02,0-.013ZM1.61.653A.146.146,0,0,1,1.61.6V.634c0,.033.007.053,0,.046Zm1.8,1.288h0s-.033-.046-.033,0h0V1.889h0a.126.126,0,0,0,0,.053ZM1.524.614a.086.086,0,0,1,0,.033h0a.287.287,0,0,0,0-.033Zm.252.08ZM3.144,2.2c-.06,0,0,.053-.08,0H3.1s.033-.02.04-.013Zm.133-.179h0s-.013-.027,0-.013Zm-.086.1h0s-.02-.027,0-.013ZM3.3,1.942h-.04V1.9h0Zm0,0h.013ZM2.38.866Zm-.06,0h0V.859Zm.9,1.182Zm-.153.173h0s-.02-.027,0-.007ZM2.487.939h0s.007-.027,0-.007Zm.259,1.667Zm.412-.551Zm-.5.591h0V2.593S2.713,2.659,2.653,2.646Zm.438-.531Zm.146-.173Zm0,0h.007ZM3,2.214l-.053-.04h0s.053.013.06.027Zm-.292.305h0v.086h0Zm.352-.432h0v-.04Zm-.133.153V2.234c0,.046.02.033-.007.007Zm-.073.133H2.825Zm.452-.558Zm-.219.246Zm-.664.85h0s-.007-.013.007,0Zm.711-.93Zm-.272.286h0s.02.007.007,0Zm-.06.086Zm-.159.193h0s.013-.007.007,0Zm.066-.073ZM2.8,2.32Zm-.717.87Zm-.106.08V3.224C1.975,3.217,2,3.27,1.975,3.27Zm.073-.12h0c-.04,0-.046-.046,0-.04S2.048,3.137,2.048,3.151Zm-.093.12c-.046,0-.06-.053-.04-.06S1.982,3.27,1.955,3.27ZM3.151,1.7ZM2.009,3.19h0Zm-.133.179h0c-.04,0-.053-.04,0-.04Zm0-.053ZM3.124,1.324h0s.027.02.027-.007ZM2.048,3.091Zm.213-.345h0c.053,0,0-.066.046-.066h0a.484.484,0,0,1-.06.066Zm-.445.664ZM2.221,2.8h0s.007-.007-.013-.007Zm0,0h0s-.04-.007-.02.007Zm-.173.226Zm-.226.365h-.06s.007-.007.027,0Zm.385-.584h0a.04.04,0,0,0-.033,0h0Zm-.04.053Zm-.252.352h0s-.053-.02-.033,0Zm-.093.126a.046.046,0,0,1-.033,0ZM1.7,3.476h0s-.007.02-.033,0Zm.2-.292Zm-.12,0h-.04c-.04,0,0,0,.046.053s.033.04.04.053,0,0-.06,0H1.73c-.033,0,0-.04-.06-.046h.053c.053,0,0,0,0-.053s.033,0,.066,0h0a.058.058,0,0,1,.04-.053h0v.04c0,.04-.093.007-.086.007Zm-.093.272h.033a.221.221,0,0,0-.066,0Zm.438-.664Zm.046-.086h0s-.086-.1-.12-.1h0l.04.04h.033s.02.046.013.046Zm-.3.379h0a.171.171,0,0,0-.033-.013Zm1.056-1.4h0s-.033-.02-.033-.013ZM1.809,3.1l-.046-.04c-.046-.04,0,.046,0,.046h.053S1.829,3.091,1.809,3.1ZM1.6,3.4h0s.02.013,0,0Zm.259-.412Zm.7-.963h0s0-.033-.046-.046h0A.14.14,0,0,0,2.566,2.022Zm-.106.133Zm-.584.8h0s.007-.007,0,0Zm-.219.312Zm.392-.6h0v.013Zm.12-.179V2.46c0-.033.007.04,0,.046Zm-.591.817v.053h0v-.04h0Zm1.209-1.62h0V1.7Zm-.325.405h0v.013Zm-.146.166h0s.007.02,0,.013Zm0,.053h0s-.04.007-.033.013Zm.478-.624h0V1.656c0,.007,0,.046-.033.046Zm-.418.531h0s-.053-.007-.033.013Zm-.325.432ZM2.905,1.53a.06.06,0,0,1,0-.046h0a.381.381,0,0,1-.027.046Zm-.79.943h.007S2.1,2.46,2.115,2.473Zm.664-.857Zm-.664.877h0a.226.226,0,0,0-.066-.027h0Zm0-.06Zm-.259.345h0s0-.06.053-.033h0a.453.453,0,0,1-.046.033Zm.857-1.156h0v0Zm-.359.445Zm-.425.571h.013Zm1.1-1.361h0V1.245Zm-1.6,2.079Zm.857-1.249Zm.053-.066Zm-.591.79Zm-.159.246Zm-.159.193Zm.664-.97h0s.007.02-.007.02Z" transform="translate(37.798 0.025)" fill="#252a30" fill-rule="evenodd"/>
      <path id="Tracé_590" data-name="Tracé 590" d="M0,0Z" transform="translate(41.175 1.047)" fill="#252a30" fill-rule="evenodd"/>
      <path id="Tracé_591" data-name="Tracé 591" d="M.108.3C.075.25.108.237.108.21h0a.226.226,0,0,0,0-.066c.046,0,0-.086.073-.086H.148c-.033,0,0,0,.033-.04H.214c-.04,0-.04.06-.08.066h0C.088.131.055.2.009.244S.121.263.108.3Z" transform="translate(40.489 2.533)" fill="#252a30" fill-rule="evenodd"/>
      <path id="Tracé_592" data-name="Tracé 592" d="M0,0H0A.08.08,0,0,0,0,.046V.033H0Z" transform="translate(40.992 0.964)" fill="#252a30" fill-rule="evenodd"/>
      <path id="Tracé_593" data-name="Tracé 593" d="M0,0H.04c.04,0,0,0,0,.033H.007C.007.073,0,0,0,0Z" transform="translate(40.657 2.338)" fill="#252a30" fill-rule="evenodd"/>
      <path id="Tracé_594" data-name="Tracé 594" d="M.722.067H.655s.053,0,0-.046S.7.021.7.021H.775a.046.046,0,0,1-.046,0H.7V.054h0s.06.04.046.053L.669.061h0V.107h0a.066.066,0,0,1-.046,0,.071.071,0,0,1-.06-.04C.542.027.562.14.509.14h0L.476.107H.509V.041h0s-.04,0,0,.053H.429V.14c0,.007,0,0,0,.053H.5c.02,0,0,.04.04.06h.04s.066.053.04.06h0a.035.035,0,0,1,.033.04A.04.04,0,0,1,.7.353s-.04,0,0,0H.416V.4H.343S.31.359.29.339s0,0,.033,0,0-.046,0-.046V.213c0-.046-.033,0,0,0h-.1v.04c0,.04,0,0-.046,0l.04.053H.244A.126.126,0,0,1,.31.339H.263C.217.339.31.373.31.386S.19.386.224.333h0S.19.293.164.293H.257A.564.564,0,0,1,.35.359H.356c-.04,0,0,.046,0,.053H.3c-.053,0,0,0,0,.06s0,0,.04,0h0S.39.519.343.519s0,0,0-.04H.3C.3.519.3.532.3.565H.27L.3.6C.336.632.263.6.257.6h0A.2.2,0,0,1,.19.652h0L.237.685A.04.04,0,0,0,.2.725H.244c.046,0,0,0-.033.04h0A.146.146,0,0,1,.164.725a.04.04,0,0,1-.04,0H.17v.04H.1S.144.8.131.8H.177v.04c0,.04,0-.053.06-.08h0C.2.764.237.8.177.8h0s0-.033.06-.04H.19a.06.06,0,0,1,.046,0h.04s0,.033,0,.053,0-.046.06-.053h0V.718h0V.678H.3s0-.04.04,0h0a.159.159,0,0,1,.066,0h0A.445.445,0,0,0,.449.565V.525h0s.046,0,0-.053h0V.432a.113.113,0,0,0-.073,0h0A1.682,1.682,0,0,1,.522.519S.456.459.522.452h0V.406c0-.007-.06,0-.04-.046h0A.106.106,0,0,0,.6.326h0S.6.286.6.26h.06L.7.306h0s0-.04,0-.06h0V.2h0S.7.167.755.2H.8S.748.074.722.067Zm-.066.1H.576s0-.04.046,0h0S.662.153.655.167ZM.536.379ZM.2.97h0L.144.93V.884H.151a.035.035,0,0,1-.04.033C.071.917.2.99.2.99ZM.529.306h0v.02ZM.35.612H.31V.565h0a.073.073,0,0,0,.04.04h0V.638h0S.336.632.35.645ZM.576.187ZM.522.233h0s.02.046,0,.033Zm0,0ZM.257.691h0ZM.562.074h0S.609.14.582.12Zm-.033,0h0s.033.06.02.046ZM.184.738h0s.033.08.02.08ZM.476.207a.08.08,0,0,1-.066,0h.04ZM.237.618h0s0,.073.02.08ZM.19.7H.151C.111.7.2.778.21.784ZM.064.95h0a.12.12,0,0,0,.02.08ZM.449.326ZM.17.818H.137S.17.8.177.8ZM.058.99h0ZM.356.4ZM.522.1h0V.107ZM.3.1H.263C.23.1.263.16.224.1h0s0-.046,0-.06Z" transform="translate(38.733 3.633)" fill="#252a30" fill-rule="evenodd"/>
      <path id="Tracé_595" data-name="Tracé 595" d="M0,0Z" transform="translate(39.143 4.461)" fill="#252a30" fill-rule="evenodd"/>
      <path id="Tracé_596" data-name="Tracé 596" d="M0,0Z" transform="translate(39.222 4.151)" fill="#252a30" fill-rule="evenodd"/>
      <path id="Tracé_597" data-name="Tracé 597" d="M0,0Z" transform="translate(39.445 3.63)" fill="#252a30" fill-rule="evenodd"/>
      <path id="Tracé_598" data-name="Tracé 598" d="M.048,0H.015c-.04,0,.033.053.033.073h0A.471.471,0,0,1,.048,0Z" transform="translate(38.889 3.653)" fill="#252a30" fill-rule="evenodd"/>
      <path id="Tracé_599" data-name="Tracé 599" d="M.082.013a.086.086,0,0,0,0,.033h0S.029.1.009.093h0a.04.04,0,0,0,.06,0H.155c0,.1,0-.04.06,0h0V.047c0-.046,0,0-.04,0s0,0,0-.033S.089.02.082.013ZM.009.053Z" transform="translate(40.94 0.824)" fill="#252a30" fill-rule="evenodd"/>
      <path id="Tracé_600" data-name="Tracé 600" d="M0,0,.04.04H.073c.033,0,0,0,0,.04s0,0,0-.033-.04,0-.053,0H.053c.033,0,0,0,0-.033h0S.007.013,0,0Z" transform="translate(41.314 0.937)" fill="#252a30" fill-rule="evenodd"/>
      <path id="Tracé_601" data-name="Tracé 601" d="M.053.013h0s-.033,0,0,.04,0,0,.066.04S.027.02.053.013ZM0,.013H0S.007,0,0,0Z" transform="translate(40.83 2.425)" fill="#252a30" fill-rule="evenodd"/>
      <path id="Tracé_602" data-name="Tracé 602" d="M.09.086h0S.057.053.057.04H.017c-.04,0,0,0,.033-.04H.11S.083.08.09.086Z" transform="translate(41.304 1.807)" fill="#252a30" fill-rule="evenodd"/>
      <path id="Tracé_603" data-name="Tracé 603" d="M0,0V.1H0V.133H0V.053H0A.123.123,0,0,1,0,0Z" transform="translate(41.066 0.917)" fill="#252a30" fill-rule="evenodd"/>
      <path id="Tracé_604" data-name="Tracé 604" d="M0,.054V0A.123.123,0,0,1,0,.054Z" transform="translate(40.351 2.842)" fill="#252a30" fill-rule="evenodd"/>
      <path id="Tracé_605" data-name="Tracé 605" d="M.055.179V.226H.227v.04h0s0,.04,0,.046h0S.314.193.34.153s0,0-.04,0H.181a.126.126,0,0,0,0-.06H.048a.046.046,0,0,1,0,.053H.114C.168.146.174.06.174.04s0,0-.06,0,0-.033,0-.04h0c0,.04-.033.06,0,.093H.055V.139H.1S.048.166.055.179ZM.181.232h0S.174.219.174.232Zm0,0Zm0-.186Zm-.053,0h0S.068.073.094.086Zm-.04,0h0S.041.106.055.12Z" transform="translate(38.344 4.643)" fill="#252a30" fill-rule="evenodd"/>
      <path id="Tracé_606" data-name="Tracé 606" d="M.166.1H.053L0,0H0L.053.04s.04,0,0-.04h0L.12.04h.04a.08.08,0,0,1-.066,0l.04.046h0S.166.106.166.1Z" transform="translate(38.751 3.959)" fill="#252a30" fill-rule="evenodd"/>
      <path id="Tracé_607" data-name="Tracé 607" d="M.017.006h.04S.03-.007.017.006Z" transform="translate(38.974 3.568)" fill="#252a30" fill-rule="evenodd"/>
      <path id="Tracé_608" data-name="Tracé 608" d="M.053,0h0V.033c0,.033-.053,0-.053,0A.525.525,0,0,0,.073.086h0S.053.007.053,0Zm0,0h0l.04.02Z" transform="translate(38.426 4.55)" fill="#252a30" fill-rule="evenodd"/>
    </g>
  </g>
</svg>
