<?xml version="1.0" encoding="utf-8"?>
<!-- Generator: Adobe Illustrator 24.0.0, SVG Export Plug-In . SVG Version: 6.00 Build 0)  -->
<svg version="1.1" id="Layer_1_1_" xmlns="http://www.w3.org/2000/svg" xmlns:xlink="http://www.w3.org/1999/xlink" x="0px" y="0px"
	 viewBox="0 0 512 512" style="enable-background:new 0 0 512 512;" xml:space="preserve">
<style type="text/css">
	.st0{opacity:0.8;}
	.st1{fill:#FFFCFC;}
</style>
<rect class="st0" width="512" height="512"/>
<path class="st1" d="M336,344c0-13.2-10.8-24-24-24c-7.8,0-15-2.3-21.2-6.2L264,325.3V352h72V344z"/>
<path class="st1" d="M272.2,281.7c-0.1,0.1-0.3,0.2-0.4,0.2c-5,2.1-10.4,3.2-15.8,3.2s-10.8-1.1-15.8-3.2c-0.2-0.1-0.3-0.2-0.4-0.2
	c-0.3,6.7-2.3,13-5.5,18.5l21.9,11l22.2-9.5C274.7,295.9,272.5,289.1,272.2,281.7L272.2,281.7z"/>
<path class="st1" d="M246.5,267.2c6,2.6,12.9,2.6,18.9,0h0c21.2-9.1,35.5-28.9,38-51.5c-13.1-2.6-24.3-10.4-31.2-21.4
	c-8.5,13.2-23.2,21.9-39.8,22.1l-23.9,0.3C211.4,238.9,225.6,258.3,246.5,267.2L246.5,267.2z"/>
<path class="st1" d="M200.3,371c17.4,8.5,36.5,13,55.7,13c22.4,0,43.5-5.8,61.8-16H203.3L200.3,371z"/>
<path class="st1" d="M248,144c-22.1,0-40,17.9-40,40v16.7l24.3-0.3c17.5-0.2,31.7-14.6,31.7-32c0-4.1,3.1-7.8,7.2-8.2
	c4.2-0.4,7.8,2.2,8.6,6.2l1.7,8.6c2.4,12,11.2,21.1,22.4,24.4V184c0-22.1-17.9-40-40-40L248,144z"/>
<path class="st1" d="M40,288h24.1c10.6,0,20,7.1,23,17.2c1.5,5.1,3.4,10.4,5.5,15.7c3.8-0.5,7.6-0.8,11.5-0.8c8.4,0,16.8,1.2,25,3.7
	l0.1-0.1C117.9,302.8,112,279.5,112,256c0-79.4,64.6-144,144-144c23.5,0,46.8,5.9,67.6,17.1l0.1-0.1c-2.5-8.2-3.7-16.6-3.7-25
	c0-3.9,0.3-7.7,0.8-11.5c-5.3-2.1-10.6-4-15.7-5.5C295.1,84.1,288,74.6,288,64V40c0-4.4-3.6-8-8-8h-48c-4.4,0-8,3.6-8,8v24
	c0,10.6-7.1,20-17.2,23c-12.3,3.6-24.3,8.5-35.5,14.7c-9.2,5.1-20.9,3.4-28.4-4.1l-17-17c-3.1-3.1-8.2-3.1-11.3,0l-33.9,33.9
	c-1.5,1.5-2.3,3.5-2.3,5.7s0.8,4.1,2.3,5.7l17,17c7.5,7.5,9.2,19.2,4.1,28.4c-6.2,11.3-11.2,23.2-14.7,35.6
	C84.1,216.9,74.6,224,64.1,224H40c-4.4,0-8,3.6-8,8v48C32,284.4,35.6,288,40,288L40,288z"/>
<path class="st1" d="M66.3,386.3c1.5-1.5,3.5-2.3,5.7-2.3h48c4.4,0,8,3.6,8,8v48c0,2.1-0.8,4.2-2.3,5.7L92.3,479
	c3.9,0.7,7.8,1,11.7,1c39.7,0,72-32.3,72-72c0-8.2-1.5-16.5-4.4-24.4c-1.1-2.9-0.3-6.2,1.9-8.4l7.2-7.2H168c-4.4,0-8-3.6-8-8v-16
	c0-22.1,17.9-40,40-40c13.2,0,24-10.8,24-24v-7.7c-19.8-14.8-32-38.1-32-63.6V184c0-25.4,17-46.9,40.2-53.7
	C173,141.5,128,193.6,128,256c0,19.3,4.5,38.3,12.9,55.7l45.4-45.4l11.3,11.3l-60.8,60.8c-2.2,2.2-5.5,2.9-8.4,1.9
	c-8-2.9-16.2-4.4-24.4-4.4c-39.7,0-72,32.3-72,72c0,3.9,0.3,7.8,1,11.7L66.3,386.3z"/>
<path class="st1" d="M338.5,136.8l-23.7,23.7c3.3,7.2,5.2,15.1,5.2,23.5v24.8c0,25.5-12.2,48.8-32,63.6v7.6c0,13.2,10.8,24,24,24
	c20.9,0,38,16.2,39.7,36.7c20-22.6,32.3-52.2,32.3-84.7c0-19.3-4.5-38.3-12.9-55.7l-29.4,29.4l-11.3-11.3l44.8-44.8
	c2.2-2.2,5.5-2.9,8.4-1.9c8,2.9,16.2,4.4,24.4,4.4c39.7,0,72-32.3,72-72c0-3.9-0.3-7.8-1-11.7l-33.4,33.4c-1.5,1.5-3.5,2.3-5.7,2.3
	h-48c-4.4,0-8-3.6-8-8V72c0-2.1,0.8-4.2,2.3-5.7L419.7,33c-3.9-0.7-7.8-1-11.7-1c-39.7,0-72,32.3-72,72c0,8.2,1.5,16.5,4.4,24.4
	C341.4,131.4,340.7,134.6,338.5,136.8L338.5,136.8z"/>
<path class="st1" d="M311.7,141c-10.2-5-20.9-8.5-31.9-10.6c10.2,3,19.1,8.8,26,16.6L311.7,141z"/>
<path class="st1" d="M425,305.2c2.9-10.1,12.4-17.2,22.9-17.2H472c4.4,0,8-3.6,8-8v-48c0-4.4-3.6-8-8-8h-24.1
	c-10.6,0-20-7.1-23-17.2c-1.5-5.1-3.4-10.4-5.5-15.7c-3.8,0.5-7.6,0.8-11.5,0.8c-8.4,0-16.8-1.2-25-3.7l-0.1,0.1
	c11.2,20.8,17.1,44.1,17.1,67.6c0,43.2-19.2,81.9-49.5,108.4c-0.8,1.2-1.8,2.2-3.1,2.8C322.6,387.7,290.7,400,256,400
	c-23.5,0-46.8-5.9-67.6-17.1l-0.1,0.1c2.5,8.2,3.7,16.6,3.7,25c0,3.9-0.3,7.7-0.8,11.5c5.3,2.1,10.5,4,15.7,5.5
	c10.1,2.9,17.1,12.4,17.1,23v24c0,4.4,3.6,8,8,8h48c4.4,0,8-3.6,8-8v-24c0-10.6,7.1-20,17.2-23c12.3-3.6,24.3-8.5,35.5-14.7
	c9.2-5.1,20.9-3.4,28.4,4.1l17,17c3.1,3.1,8.2,3.1,11.3,0l33.9-33.9c3.1-3.1,3.1-8.2,0-11.3l-17-17c-7.5-7.5-9.2-19.2-4.1-28.4
	C416.5,329.4,421.4,317.5,425,305.2z"/>
<path class="st1" d="M200,320c-13.2,0-24,10.8-24,24v8h72v-27.1l-24.9-12.4C216.6,317.2,208.6,320,200,320z"/>
</svg>
