<svg xmlns="http://www.w3.org/2000/svg" width="325.5" height="20.264" viewBox="0 0 325.5 20.264">
  <g id="Calque_2" data-name="Calque 2" transform="translate(0.003 0.002)">
    <g id="object" transform="translate(-0.003 -0.002)">
      <path id="Tracé_1450" data-name="Tracé 1450" d="M.076,2.157A7.963,7.963,0,0,0,2.623,3.841,36.973,36.973,0,0,0,12.866,6.792,120.754,120.754,0,0,0,35,8.072,321.673,321.673,0,0,0,73.192,4.75C88.978,2.561,104.719.672,120.664.64a.326.326,0,0,0,0-.64A296.209,296.209,0,0,0,80.842,3.028C67.213,4.9,53.546,6.747,39.758,7.3a141.626,141.626,0,0,1-24.325-.762A43.866,43.866,0,0,1,3.75,3.662,8.466,8.466,0,0,1,.537,1.7c-.269-.32-.723.134-.461.454Z" transform="translate(0.003 0.001)" fill="#08bbc8"/>
      <path id="Tracé_1451" data-name="Tracé 1451" d="M319.853.64A298.57,298.57,0,0,1,361.372,3.9a382.622,382.622,0,0,0,40.412,4.078,137.6,137.6,0,0,0,23.871-.877,43.316,43.316,0,0,0,11.484-2.913,9.1,9.1,0,0,0,3.29-2.042c.262-.32-.192-.775-.454-.454a7.566,7.566,0,0,1-2.465,1.632,36.975,36.975,0,0,1-10.325,2.906,123.119,123.119,0,0,1-22.616,1.184,329.972,329.972,0,0,1-39.227-3.585C350.259,1.677,335.12,0,319.853,0a.326.326,0,0,0,0,.64Z" transform="translate(-115.007 0.001)" fill="#08bbc8"/>
      <path id="Tracé_1452" data-name="Tracé 1452" d="M272.678.5c-32.084,0-42.1,19.627-42.1,19.627S220.571.506,188.5.5c32.084,0,42.1,7.483,42.1,7.483S240.6.506,272.678.5Z" transform="translate(-67.833 -0.178)" fill="#08bbc8"/>
      <path id="Tracé_1453" data-name="Tracé 1453" d="M272.53,0c-15.011.058-31.367,4.711-40.713,17.239a18.188,18.188,0,0,0-1.671,2.561h.557a26.886,26.886,0,0,0-5.46-6.811A45.45,45.45,0,0,0,206.532,2.444,65.531,65.531,0,0,0,188.353,0v.64a134.982,134.982,0,0,1,28.076,2.509,49.161,49.161,0,0,1,12.31,4.014,11.613,11.613,0,0,1,1.543.915.3.3,0,0,0,.326,0,20.875,20.875,0,0,1,5.2-2.484,79.2,79.2,0,0,1,18.8-4.039A164.474,164.474,0,0,1,272.53.639a.326.326,0,0,0,0-.64A134.142,134.142,0,0,0,244.275,2.56a49.707,49.707,0,0,0-12.367,4.033c-.531.269-1.069.723-1.62.935.218-.083.4.122.115-.109a5.635,5.635,0,0,0-.762-.506,42.249,42.249,0,0,0-10.7-3.841C208.959.639,198.576,0,188.353,0a.326.326,0,0,0,0,.64c14.806.051,31.1,4.641,40.277,17.092a18.124,18.124,0,0,1,1.536,2.375.326.326,0,0,0,.557,0,26.245,26.245,0,0,1,5.2-6.523,44.65,44.65,0,0,1,18.417-10.46A64.609,64.609,0,0,1,272.53.639a.326.326,0,0,0,0-.64Z" transform="translate(-67.685 0.002)" fill="#08bbc8"/>
    </g>
  </g>
</svg>
