<svg xmlns="http://www.w3.org/2000/svg" width="1920" height="145.429" viewBox="0 0 1920 145.429">
  <g id="waves" transform="translate(0 -75.5)" opacity="0.56">
    <g id="Groupe_116" data-name="Groupe 116" transform="translate(0 176.41)">
      <g id="Groupe_115" data-name="Groupe 115" transform="translate(0 0)">
        <path id="Tracé_239" data-name="Tracé 239" d="M1920,222.019c-122.416,0-184.771-6.653-236.527-12-43.78-4.521-75.408-7.788-146.635-7.788s-102.849,3.267-146.629,7.788c-51.756,5.345-116.18,12-236.534,12s-184.758-6.653-236.514-12c-43.774-4.521-75.408-7.788-146.622-7.788S667.7,205.5,623.929,210.021c-51.75,5.345-116.173,12-236.521,12s-186.9-6.653-238.653-12C104.981,205.5,70.872,202.233,0,202.233V177.5c122.416,0,186.9,6.653,238.653,12,43.78,4.521,76.471,7.788,147.685,7.788s103.377-3.267,147.151-7.788c51.75-5.345,116.437-12,236.785-12s184.893,6.653,236.65,12c43.773,4.521,75.473,7.788,146.693,7.788s102.881-3.267,146.655-7.788c51.756-5.345,116.2-12,236.553-12s184.784,6.653,236.54,12c43.773,4.521,75.763,7.788,146.635,7.788Z" transform="translate(0 -177.5)" fill="#52c8db"/>
      </g>
    </g>
    <g id="Groupe_118" data-name="Groupe 118" transform="translate(0 125.955)">
      <g id="Groupe_117" data-name="Groupe 117">
        <path id="Tracé_240" data-name="Tracé 240" d="M1920,171.019c-122.416,0-184.771-6.653-236.527-12-43.78-4.521-75.408-7.788-146.635-7.788s-102.849,3.267-146.629,7.788c-51.756,5.345-116.18,12-236.534,12s-184.758-6.653-236.514-12c-43.774-4.521-75.408-7.788-146.622-7.788S667.7,154.5,623.929,159.021c-51.75,5.345-116.173,12-236.521,12s-186.9-6.653-238.653-12C104.981,154.5,70.872,151.233,0,151.233V126.5c122.416,0,186.9,6.653,238.653,12,43.78,4.521,76.471,7.788,147.685,7.788s103.377-3.267,147.151-7.788c51.75-5.345,116.437-12,236.785-12s184.893,6.653,236.65,12c43.773,4.521,75.473,7.788,146.693,7.788s102.881-3.267,146.655-7.788c51.756-5.345,116.2-12,236.553-12s184.784,6.653,236.54,12c43.773,4.521,75.763,7.788,146.635,7.788Z" transform="translate(0 -126.5)" fill="#52c8db"/>
      </g>
    </g>
    <g id="Groupe_120" data-name="Groupe 120" transform="translate(0 75.5)">
      <g id="Groupe_119" data-name="Groupe 119">
        <path id="Tracé_241" data-name="Tracé 241" d="M1920,120.019c-122.416,0-184.771-6.653-236.527-12-43.78-4.521-75.408-7.788-146.635-7.788s-102.849,3.267-146.629,7.788c-51.756,5.345-116.18,12-236.534,12s-184.758-6.653-236.514-12c-43.774-4.521-75.408-7.788-146.622-7.788S667.7,103.5,623.929,108.021c-51.75,5.345-116.173,12-236.521,12s-186.9-6.653-238.653-12C104.981,103.5,70.872,100.233,0,100.233V75.5c122.416,0,186.9,6.653,238.653,12,43.78,4.521,76.471,7.788,147.685,7.788S489.716,92.02,533.489,87.5c51.75-5.345,116.437-12,236.785-12s184.893,6.653,236.65,12c43.773,4.521,75.473,7.788,146.693,7.788S1256.5,92.02,1300.272,87.5c51.756-5.345,116.2-12,236.553-12s184.784,6.653,236.54,12c43.773,4.521,75.763,7.788,146.635,7.788Z" transform="translate(0 -75.5)" fill="#52c8db"/>
      </g>
    </g>
  </g>
</svg>
