<svg xmlns="http://www.w3.org/2000/svg" width="375.476" height="73.41" viewBox="0 0 375.476 73.41">
  <g id="waves" transform="translate(0 -75.5)" opacity="0.56">
    <g id="Groupe_116" data-name="Groupe 116" transform="translate(0 126.438)">
      <g id="Groupe_115" data-name="Groupe 115" transform="translate(0 0)">
        <path id="Tracé_239" data-name="Tracé 239" d="M375.476,199.972c-23.94,0-36.134-3.358-46.255-6.057-8.562-2.282-14.747-3.931-28.676-3.931s-20.113,1.649-28.675,3.931c-10.121,2.7-22.72,6.057-46.257,6.057s-36.131-3.358-46.253-6.057c-8.56-2.282-14.747-3.931-28.674-3.931s-20.111,1.649-28.671,3.931c-10.12,2.7-22.719,6.057-46.254,6.057s-36.551-3.358-46.671-6.057A95.7,95.7,0,0,0,0,189.985V177.5c23.94,0,36.551,3.358,46.671,6.057,8.562,2.282,14.955,3.931,28.881,3.931s20.216-1.649,28.777-3.931c10.12-2.7,22.771-6.057,46.306-6.057s36.158,3.358,46.279,6.057c8.56,2.282,14.76,3.931,28.687,3.931s20.119-1.649,28.68-3.931c10.121-2.7,22.724-6.057,46.26-6.057s36.136,3.358,46.258,6.057c8.56,2.282,14.816,3.931,28.676,3.931Z" transform="translate(0 -177.5)" fill="#52c8db"/>
      </g>
    </g>
    <g id="Groupe_118" data-name="Groupe 118" transform="translate(0 100.969)">
      <g id="Groupe_117" data-name="Groupe 117">
        <path id="Tracé_240" data-name="Tracé 240" d="M375.476,148.972c-23.94,0-36.134-3.358-46.255-6.057-8.562-2.282-14.747-3.931-28.676-3.931s-20.113,1.649-28.675,3.931c-10.121,2.7-22.72,6.057-46.257,6.057s-36.131-3.358-46.253-6.057c-8.56-2.282-14.747-3.931-28.674-3.931s-20.111,1.649-28.671,3.931c-10.12,2.7-22.719,6.057-46.254,6.057s-36.551-3.358-46.671-6.057A95.7,95.7,0,0,0,0,138.985V126.5c23.94,0,36.551,3.358,46.671,6.057,8.562,2.282,14.955,3.931,28.881,3.931s20.216-1.649,28.777-3.931c10.12-2.7,22.771-6.057,46.306-6.057s36.158,3.358,46.279,6.057c8.56,2.282,14.76,3.931,28.687,3.931s20.119-1.649,28.68-3.931c10.121-2.7,22.724-6.057,46.26-6.057s36.136,3.358,46.258,6.057c8.56,2.282,14.816,3.931,28.676,3.931Z" transform="translate(0 -126.5)" fill="#52c8db"/>
      </g>
    </g>
    <g id="Groupe_120" data-name="Groupe 120" transform="translate(0 75.5)">
      <g id="Groupe_119" data-name="Groupe 119">
        <path id="Tracé_241" data-name="Tracé 241" d="M375.476,97.972c-23.94,0-36.134-3.358-46.255-6.057-8.562-2.282-14.747-3.931-28.676-3.931s-20.113,1.649-28.675,3.931c-10.121,2.7-22.72,6.057-46.257,6.057s-36.131-3.358-46.253-6.057c-8.56-2.282-14.747-3.931-28.674-3.931s-20.111,1.649-28.671,3.931c-10.12,2.7-22.719,6.057-46.254,6.057s-36.551-3.358-46.671-6.057A95.7,95.7,0,0,0,0,87.985V75.5c23.94,0,36.551,3.358,46.671,6.057,8.562,2.282,14.955,3.931,28.881,3.931s20.216-1.649,28.777-3.931c10.12-2.7,22.771-6.057,46.306-6.057s36.158,3.358,46.279,6.057c8.56,2.282,14.76,3.931,28.687,3.931s20.119-1.649,28.68-3.931c10.121-2.7,22.724-6.057,46.26-6.057s36.136,3.358,46.258,6.057c8.56,2.282,14.816,3.931,28.676,3.931Z" transform="translate(0 -75.5)" fill="#52c8db"/>
      </g>
    </g>
  </g>
</svg>
